<svg width="20" height="20" viewBox="0 0 20 20" fill="none" xmlns="http://www.w3.org/2000/svg">
<path d="M10 0C11.845 0 13.33 5.96046e-08 14.54 0.0880001L11.1 5.25H6.4L9.9 0H10ZM1.464 1.464C2.717 0.212 4.622 0.0309999 8.096 0.00399995L4.599 5.25H0.104004C0.251004 3.486 0.607004 2.322 1.464 1.464Z" fill="black"/>
<path fill-rule="evenodd" clip-rule="evenodd" d="M0 10C0 8.763 2.23517e-08 7.689 0.026 6.75H19.974C20 7.689 20 8.763 20 10C20 14.714 20 17.071 18.535 18.535C17.072 20 14.714 20 10 20C5.286 20 2.929 20 1.464 18.535C0 17.072 0 14.714 0 10ZM11.014 10.585C12.338 11.44 13 11.867 13 12.5C13 13.133 12.338 13.56 11.014 14.415C9.672 15.281 9.001 15.714 8.5 15.395C8 15.078 8 14.219 8 12.5C8 10.781 8 9.922 8.5 9.604C9 9.286 9.672 9.719 11.014 10.585Z" fill="black"/>
<path d="M19.996 4.946C19.849 3.182 19.493 2.018 18.636 1.16C18.038 0.563 17.292 0.21 16.299 0L13 4.946H19.996Z" fill="black"/>
</svg>
