<svg width="47" height="47" viewBox="0 0 47 47" fill="none" xmlns="http://www.w3.org/2000/svg">
<path d="M15.2748 3.91699H31.7248C37.9915 3.91699 43.0832 9.00866 43.0832 15.2753V31.7253C43.0832 34.7377 41.8865 37.6268 39.7564 39.7569C37.6263 41.887 34.7373 43.0837 31.7248 43.0837H15.2748C9.00817 43.0837 3.9165 37.992 3.9165 31.7253V15.2753C3.9165 12.2629 5.11318 9.37387 7.24328 7.24377C9.37338 5.11367 12.2624 3.91699 15.2748 3.91699ZM14.8832 7.83366C13.0134 7.83366 11.2202 8.57642 9.89807 9.89856C8.57594 11.2207 7.83317 13.0139 7.83317 14.8837V32.117C7.83317 36.0141 10.9861 39.167 14.8832 39.167H32.1165C33.9863 39.167 35.7795 38.4242 37.1016 37.1021C38.4237 35.78 39.1665 33.9868 39.1665 32.117V14.8837C39.1665 10.9866 36.0136 7.83366 32.1165 7.83366H14.8832ZM33.7811 10.7712C34.4303 10.7712 35.053 11.0291 35.512 11.4881C35.9711 11.9472 36.229 12.5698 36.229 13.2191C36.229 13.8683 35.9711 14.4909 35.512 14.95C35.053 15.4091 34.4303 15.667 33.7811 15.667C33.1319 15.667 32.5092 15.4091 32.0501 14.95C31.5911 14.4909 31.3332 13.8683 31.3332 13.2191C31.3332 12.5698 31.5911 11.9472 32.0501 11.4881C32.5092 11.0291 33.1319 10.7712 33.7811 10.7712ZM23.4998 13.7087C26.0967 13.7087 28.5873 14.7403 30.4236 16.5766C32.2599 18.4129 33.2915 20.9034 33.2915 23.5003C33.2915 26.0972 32.2599 28.5878 30.4236 30.4241C28.5873 32.2604 26.0967 33.292 23.4998 33.292C20.9029 33.292 18.4124 32.2604 16.5761 30.4241C14.7398 28.5878 13.7082 26.0972 13.7082 23.5003C13.7082 20.9034 14.7398 18.4129 16.5761 16.5766C18.4124 14.7403 20.9029 13.7087 23.4998 13.7087ZM23.4998 17.6253C21.9417 17.6253 20.4474 18.2443 19.3456 19.3461C18.2438 20.4478 17.6248 21.9422 17.6248 23.5003C17.6248 25.0585 18.2438 26.5528 19.3456 27.6546C20.4474 28.7564 21.9417 29.3753 23.4998 29.3753C25.058 29.3753 26.5523 28.7564 27.6541 27.6546C28.7559 26.5528 29.3748 25.0585 29.3748 23.5003C29.3748 21.9422 28.7559 20.4478 27.6541 19.3461C26.5523 18.2443 25.058 17.6253 23.4998 17.6253Z" fill="white"/>
</svg>
