<svg width="45" height="39" viewBox="0 0 45 39" fill="none" xmlns="http://www.w3.org/2000/svg">
<path d="M44.1681 8.8638C43.9694 13.1702 40.9659 19.0666 35.1578 26.5752C29.151 34.4372 24.0716 38.3019 19.8757 38.3019C17.336 38.3019 15.1497 35.9168 13.3609 31.1245C12.1462 26.7961 11.042 22.4234 9.80532 18.0508C8.48028 13.2806 7.0669 10.8955 5.52101 10.8955C5.21184 10.8955 4.06347 11.6022 2.0759 12.9935L0 10.2993C2.20841 8.37795 4.32848 6.45663 6.44854 4.53532C9.36364 2.01773 11.55 0.692688 12.9854 0.560184C16.4305 0.206839 18.5506 2.59192 19.3456 7.62709C20.2069 13.0819 20.8032 16.4607 21.1344 17.7858C22.0841 22.2909 23.1883 24.4993 24.4029 24.4993C25.3304 24.4993 26.7217 23.0859 28.5768 20.1488C30.4318 17.2337 31.4256 15.0032 31.5581 13.4573C31.8231 10.9397 30.8293 9.68091 28.5768 9.68091C27.5167 9.68091 26.4346 9.92383 25.3083 10.4097C27.4726 3.27652 31.6244 -0.190675 37.7417 0.00808198C42.291 0.140586 44.4331 3.09985 44.1681 8.8638Z" fill="white"/>
</svg>
