<svg width="20" height="20" viewBox="0 0 20 20" fill="none" xmlns="http://www.w3.org/2000/svg">
<path fill-rule="evenodd" clip-rule="evenodd" d="M13.3278 5.54199H6.67184C3.29784 5.54199 1.60984 5.54199 0.661841 6.52899C-0.286159 7.51599 -0.063159 9.03999 0.383841 12.089L0.805841 14.981C1.15584 17.372 1.33084 18.568 2.22784 19.284C3.12584 20 4.44784 20 7.09484 20H12.9048C15.5508 20 16.8748 20 17.7718 19.284C18.6688 18.568 18.8438 17.372 19.1938 14.981L19.6158 12.089C20.0628 9.03999 20.2858 7.51599 19.3378 6.52899C18.3898 5.54199 16.7018 5.54199 13.3278 5.54199ZM12.5808 13.794C13.1398 13.448 13.1398 12.552 12.5808 12.206L9.20984 10.116C8.66684 9.77899 7.99984 10.217 7.99984 10.91V15.09C7.99984 15.783 8.66684 16.22 9.20984 15.884L12.5808 13.794Z" fill="black"/>
<path opacity="0.4" d="M6.50997 0H13.49C13.722 0 13.9 1.05239e-07 14.056 0.0150001C15.164 0.124 16.071 0.79 16.456 1.687H3.54297C3.92697 0.79 4.83397 0.124 5.94197 0.0150001C6.09897 1.05239e-07 6.27697 0 6.50997 0Z" fill="black"/>
<path opacity="0.7" d="M4.30998 2.72266C2.91998 2.72266 1.77998 3.56266 1.39898 4.67566L1.37598 4.74566C1.77398 4.62566 2.18798 4.54666 2.60798 4.49266C3.68798 4.35466 5.05398 4.35466 6.63998 4.35466H13.532C15.118 4.35466 16.483 4.35466 17.564 4.49266C17.9806 4.54453 18.3926 4.62912 18.796 4.74566L18.773 4.67566C18.393 3.56166 17.252 2.72266 15.861 2.72266H4.30998Z" fill="black"/>
</svg>
