<svg width="104" height="122" viewBox="0 0 104 122" fill="none" xmlns="http://www.w3.org/2000/svg">
<path d="M3.27569 117.741H2.88984C2.87529 117.734 2.85922 117.73 2.84292 117.73C2.82662 117.73 2.81054 117.734 2.79599 117.741C2.7891 117.758 2.78556 117.775 2.78556 117.793C2.78556 117.811 2.7891 117.829 2.79599 117.846V119.944H2.44143H1.84702C1.68347 119.944 1.5211 119.916 1.36732 119.86C1.23252 119.793 1.11205 119.701 1.01275 119.587C0.891191 119.432 0.802469 119.254 0.752048 119.063C0.684139 118.813 0.652525 118.555 0.658194 118.297V117.321C0.64914 117.048 0.684361 116.775 0.762476 116.514C0.819332 116.324 0.915278 116.149 1.04404 116C1.1579 115.88 1.2968 115.786 1.45074 115.727C1.60916 115.676 1.77464 115.651 1.94087 115.653H2.9837H3.29655C3.36954 115.653 3.40083 115.653 3.40083 115.58V115.213C3.40657 115.2 3.40953 115.185 3.40953 115.171C3.40953 115.156 3.40657 115.142 3.40083 115.129H3.3174C3.13814 115.094 2.9571 115.07 2.77513 115.056C2.55614 115.056 2.27458 115.056 1.94087 115.056C1.70407 115.055 1.46855 115.091 1.24218 115.16C1.01051 115.231 0.799346 115.357 0.626909 115.528C0.427161 115.725 0.273942 115.965 0.178493 116.23C0.0561762 116.566 -0.00391013 116.922 0.00121287 117.279V118.255C-0.00919103 118.612 0.0474146 118.968 0.168065 119.304C0.260638 119.566 0.406236 119.805 0.595624 120.007C0.765788 120.18 0.972493 120.313 1.20046 120.395C1.41879 120.47 1.64766 120.509 1.8783 120.51C2.22243 120.51 2.49357 120.51 2.71256 120.51L3.3174 120.437C3.35513 120.429 3.38875 120.408 3.41184 120.377C3.43492 120.346 3.44585 120.308 3.44254 120.269V117.825C3.44943 117.808 3.45297 117.79 3.45297 117.772C3.45297 117.754 3.44943 117.737 3.44254 117.72C3.43129 117.708 3.4174 117.699 3.40199 117.693C3.38658 117.688 3.37008 117.686 3.35383 117.688C3.33759 117.69 3.32205 117.696 3.30847 117.705C3.29489 117.714 3.28366 117.727 3.27569 117.741Z" fill="white"/>
<path d="M7.13437 116.965C6.99412 116.815 6.82341 116.697 6.63381 116.619C6.41298 116.539 6.17995 116.5 5.94555 116.503C5.7243 116.488 5.50233 116.521 5.29519 116.601C5.08804 116.68 4.90071 116.805 4.7463 116.965C4.46029 117.311 4.315 117.753 4.3396 118.203V118.863C4.33069 119.15 4.38038 119.436 4.48559 119.703C4.56479 119.907 4.68968 120.09 4.85058 120.238C4.99835 120.374 5.17753 120.471 5.37199 120.521C5.56928 120.574 5.77251 120.603 5.97683 120.605C6.20263 120.617 6.42888 120.617 6.65467 120.605C6.86324 120.605 7.0718 120.573 7.28037 120.51C7.3174 120.524 7.35804 120.524 7.39508 120.51C7.40864 120.473 7.40864 120.432 7.39508 120.395V120.154C7.40082 120.141 7.40378 120.126 7.40378 120.112C7.40378 120.097 7.40082 120.083 7.39508 120.07H7.31165H7.26994L6.65467 120.133H5.97683C5.84001 120.139 5.70327 120.118 5.57444 120.072C5.44561 120.025 5.32721 119.953 5.226 119.86C5.03341 119.597 4.94426 119.272 4.97572 118.947V118.842H7.39508C7.48893 118.842 7.53065 118.842 7.53065 118.685V118.287C7.53587 118.048 7.5006 117.81 7.42636 117.584C7.3789 117.357 7.27884 117.145 7.13437 116.965ZM6.89452 118.266H4.97572V118.203C4.9494 117.894 5.03868 117.588 5.226 117.342C5.31782 117.245 5.42992 117.169 5.5543 117.12C5.67868 117.071 5.81228 117.05 5.94555 117.059C6.07548 117.05 6.20592 117.068 6.32818 117.113C6.45045 117.159 6.56175 117.23 6.65467 117.321C6.8362 117.577 6.92123 117.89 6.89452 118.203V118.266Z" fill="white"/>
<path d="M10.1894 116.503C9.99176 116.502 9.79501 116.531 9.60547 116.587C9.40849 116.648 9.21945 116.733 9.04234 116.839V116.702C9.04922 116.686 9.05277 116.668 9.05277 116.65C9.05277 116.632 9.04922 116.614 9.04234 116.598C9.02758 116.591 9.01159 116.587 8.99541 116.587C8.97924 116.587 8.96324 116.591 8.94848 116.598H8.54178C8.52723 116.59 8.51116 116.586 8.49486 116.586C8.47856 116.586 8.46248 116.59 8.44793 116.598C8.44104 116.614 8.4375 116.632 8.4375 116.65C8.4375 116.668 8.44104 116.686 8.44793 116.702V120.405C8.44104 120.422 8.4375 120.44 8.4375 120.458C8.4375 120.476 8.44104 120.494 8.44793 120.51C8.46248 120.518 8.47856 120.522 8.49486 120.522C8.51116 120.522 8.52723 120.518 8.54178 120.51H8.89634C8.93506 120.51 8.9722 120.495 8.99958 120.467C9.02696 120.44 9.04234 120.402 9.04234 120.364V117.3C9.20356 117.22 9.37097 117.154 9.5429 117.101C9.69738 117.048 9.85929 117.019 10.0226 117.017C10.1401 117 10.2596 117 10.3772 117.017C10.4699 117.047 10.5529 117.101 10.617 117.175C10.692 117.257 10.7425 117.359 10.763 117.468C10.8001 117.619 10.8176 117.774 10.8151 117.93V120.311C10.8151 120.35 10.8305 120.387 10.8579 120.415C10.8853 120.442 10.9224 120.458 10.9611 120.458H11.3053C11.344 120.458 11.3811 120.442 11.4085 120.415C11.4359 120.387 11.4513 120.35 11.4513 120.311V118.014C11.4741 117.617 11.3679 117.223 11.1489 116.891C11.0314 116.754 10.883 116.647 10.7161 116.58C10.5491 116.512 10.3686 116.486 10.1894 116.503Z" fill="white"/>
<path d="M15.0907 116.965C14.9563 116.813 14.7885 116.694 14.6006 116.619C14.3764 116.539 14.1398 116.5 13.9019 116.503C13.6823 116.488 13.4621 116.522 13.2568 116.602C13.0515 116.682 12.8659 116.805 12.7131 116.965C12.4271 117.311 12.2818 117.753 12.3064 118.203V118.863C12.2959 119.149 12.342 119.435 12.442 119.703C12.5248 119.907 12.6533 120.091 12.8174 120.238C12.9652 120.374 13.1443 120.471 13.3388 120.521C13.5359 120.575 13.7392 120.603 13.9436 120.605C14.1694 120.616 14.3957 120.616 14.6215 120.605C14.8281 120.584 15.0335 120.553 15.2367 120.51C15.2993 120.51 15.341 120.51 15.3619 120.51C15.3697 120.472 15.3697 120.433 15.3619 120.395V120.154C15.3676 120.141 15.3706 120.126 15.3706 120.112C15.3706 120.097 15.3676 120.083 15.3619 120.07H15.2784L14.6632 120.133H13.9853C13.8485 120.139 13.7118 120.118 13.583 120.072C13.4541 120.025 13.3357 119.953 13.2345 119.86C13.0419 119.597 12.9528 119.272 12.9842 118.947V118.842H15.4036C15.487 118.842 15.5392 118.842 15.5392 118.685V118.286C15.5383 118.048 15.5032 117.812 15.4349 117.584C15.3774 117.35 15.2585 117.136 15.0907 116.965ZM14.8613 118.266H12.9425V118.203C12.9162 117.894 13.0055 117.588 13.1928 117.342C13.2846 117.245 13.3967 117.169 13.5211 117.12C13.6455 117.071 13.7791 117.05 13.9123 117.059C14.0422 117.051 14.1722 117.07 14.2943 117.115C14.4164 117.16 14.5278 117.231 14.6215 117.321C14.803 117.577 14.888 117.89 14.8613 118.203V118.266Z" fill="white"/>
<path d="M18.0001 116.503C17.8331 116.501 17.667 116.53 17.51 116.587C17.3215 116.646 17.145 116.739 16.9886 116.86V116.702C16.9984 116.668 16.9984 116.632 16.9886 116.598C16.9721 116.591 16.9543 116.587 16.9364 116.587C16.9185 116.587 16.9008 116.591 16.8843 116.598H16.5506C16.5341 116.591 16.5164 116.587 16.4985 116.587C16.4806 116.587 16.4628 116.591 16.4463 116.598C16.4359 116.632 16.4359 116.668 16.4463 116.702V120.405C16.4359 120.44 16.4359 120.476 16.4463 120.51C16.4628 120.517 16.4806 120.521 16.4985 120.521C16.5164 120.521 16.5341 120.517 16.5506 120.51H16.9052C16.9217 120.517 16.9394 120.521 16.9573 120.521C16.9752 120.521 16.9929 120.517 17.0094 120.51C17.0193 120.476 17.0193 120.44 17.0094 120.405V117.363C17.1691 117.264 17.3409 117.187 17.5204 117.133C17.6753 117.082 17.8373 117.057 18.0001 117.059C18.1044 117.059 18.1566 117.017 18.1566 116.933V116.64C18.1566 116.545 18.1044 116.503 18.0001 116.503Z" fill="white"/>
<path d="M20.0132 116.503C19.8013 116.491 19.5889 116.491 19.3771 116.503L18.8869 116.566C18.7826 116.566 18.7305 116.629 18.7305 116.702V116.954C18.7232 116.969 18.7193 116.985 18.7193 117.001C18.7193 117.018 18.7232 117.034 18.7305 117.049C18.761 117.058 18.7938 117.058 18.8244 117.049H19.3145C19.5229 117.037 19.7318 117.037 19.9402 117.049C20.1538 117.028 20.3671 117.092 20.5346 117.227C20.6697 117.411 20.7328 117.639 20.7119 117.867V118.161H20.1696C19.8966 118.154 19.6237 118.179 19.3562 118.234C19.1643 118.276 18.981 118.351 18.8139 118.454C18.6831 118.55 18.5818 118.681 18.5219 118.832C18.457 118.992 18.425 119.163 18.4281 119.336V119.43C18.4192 119.624 18.4549 119.818 18.5324 119.996C18.5885 120.138 18.6779 120.264 18.7931 120.364C18.9042 120.451 19.0319 120.516 19.1685 120.552C19.314 120.568 19.4609 120.568 19.6065 120.552C19.806 120.555 20.0042 120.52 20.1905 120.447C20.3762 120.383 20.5545 120.299 20.7223 120.196V120.353C20.7125 120.387 20.7125 120.424 20.7223 120.458C20.7388 120.465 20.7565 120.468 20.7744 120.468C20.7923 120.468 20.8101 120.465 20.8266 120.458H21.1603C21.1768 120.465 21.1945 120.468 21.2124 120.468C21.2303 120.468 21.248 120.465 21.2646 120.458C21.2744 120.424 21.2744 120.387 21.2646 120.353V117.814C21.2808 117.626 21.2597 117.436 21.2024 117.256C21.1451 117.076 21.0528 116.909 20.9309 116.765C20.6667 116.569 20.3406 116.476 20.0132 116.503ZM20.7849 119.787C20.6312 119.88 20.4666 119.954 20.2947 120.007C20.1363 120.058 19.9708 120.082 19.8046 120.08C19.6305 120.093 19.4575 120.045 19.3145 119.944C19.2471 119.876 19.1961 119.793 19.1654 119.702C19.1347 119.611 19.125 119.515 19.1372 119.419V119.336C19.1363 119.222 19.1539 119.108 19.1893 119C19.2263 118.911 19.2878 118.834 19.3666 118.78C19.4692 118.719 19.5826 118.68 19.7003 118.664C19.8806 118.646 20.0623 118.646 20.2426 118.664H20.8266L20.7849 119.787Z" fill="white"/>
<path d="M22.9856 115.087H22.6101C22.58 115.075 22.5464 115.075 22.5163 115.087C22.5094 115.104 22.5059 115.121 22.5059 115.139C22.5059 115.157 22.5094 115.175 22.5163 115.192V120.374C22.5094 120.391 22.5059 120.408 22.5059 120.426C22.5059 120.444 22.5094 120.462 22.5163 120.479C22.5308 120.486 22.5469 120.49 22.5632 120.49C22.5795 120.49 22.5956 120.486 22.6101 120.479H22.9856C23.0157 120.491 23.0493 120.491 23.0794 120.479C23.0899 120.445 23.0899 120.408 23.0794 120.374V115.192C23.0899 115.158 23.0899 115.121 23.0794 115.087C23.0488 115.078 23.0162 115.078 22.9856 115.087Z" fill="white"/>
<path d="M28.9812 115.139H28.6892H27.5734C27.1631 115.109 26.7547 115.22 26.4158 115.454C26.2748 115.587 26.1666 115.751 26.0996 115.933C26.0326 116.115 26.0088 116.31 26.03 116.503V119.304C26.0088 119.497 26.0326 119.692 26.0996 119.874C26.1666 120.057 26.2748 120.22 26.4158 120.353C26.7547 120.588 27.1631 120.699 27.5734 120.668H28.9812C28.9983 120.672 29.0162 120.672 29.0333 120.668C29.0378 120.647 29.0378 120.626 29.0333 120.605V120.238C29.0333 120.175 29.0333 120.143 28.9499 120.143H27.5734C27.421 120.162 27.2669 120.162 27.1145 120.143C27.0137 120.129 26.9193 120.086 26.8434 120.017C26.7798 119.955 26.7363 119.874 26.7182 119.787C26.706 119.668 26.706 119.548 26.7182 119.43V118.203H28.9395C28.9586 118.203 28.9776 118.199 28.9953 118.191C29.0131 118.184 29.0291 118.173 29.0427 118.16C29.0563 118.146 29.067 118.13 29.0744 118.112C29.0817 118.094 29.0855 118.075 29.0855 118.056V117.783C29.0966 117.753 29.0966 117.719 29.0855 117.689C29.0519 117.676 29.0148 117.676 28.9812 117.689H26.687V116.64C26.6747 116.524 26.6747 116.408 26.687 116.293C26.7023 116.202 26.7461 116.117 26.8121 116.052C26.888 115.984 26.9824 115.94 27.0832 115.926C27.2356 115.907 27.3897 115.907 27.5421 115.926H28.9395C28.9508 115.928 28.9625 115.927 28.9734 115.924C28.9843 115.92 28.9943 115.914 29.0024 115.906C29.0105 115.897 29.0166 115.887 29.0202 115.876C29.0237 115.865 29.0247 115.854 29.0229 115.842V115.475C29.0287 115.455 29.0287 115.433 29.0229 115.412C29.0589 115.407 29.0911 115.387 29.1126 115.357C29.1342 115.328 29.1431 115.291 29.1376 115.255C29.1321 115.219 29.1125 115.186 29.0832 115.165C29.0538 115.143 29.0171 115.134 28.9812 115.139Z" fill="white"/>
<path d="M31.7239 116.503C31.5263 116.503 31.3297 116.531 31.1399 116.587C30.9444 116.652 30.7558 116.736 30.5768 116.839V116.702C30.5837 116.686 30.5872 116.668 30.5872 116.65C30.5872 116.632 30.5837 116.614 30.5768 116.598C30.5622 116.59 30.5462 116.586 30.5299 116.586C30.5136 116.586 30.4975 116.59 30.4829 116.598H30.118C30.1032 116.591 30.0872 116.587 30.071 116.587C30.0549 116.587 30.0389 116.591 30.0241 116.598C30.0172 116.614 30.0137 116.632 30.0137 116.65C30.0137 116.668 30.0172 116.686 30.0241 116.702V120.405C30.0172 120.422 30.0137 120.44 30.0137 120.458C30.0137 120.476 30.0172 120.494 30.0241 120.51C30.0389 120.517 30.0549 120.52 30.071 120.52C30.0872 120.52 30.1032 120.517 30.118 120.51H30.4725C30.5112 120.51 30.5484 120.495 30.5758 120.467C30.6031 120.44 30.6185 120.402 30.6185 120.364V117.3C30.7797 117.22 30.9471 117.154 31.1191 117.101C31.2738 117.049 31.4356 117.02 31.5988 117.017C31.7163 117 31.8358 117 31.9533 117.017C32.0479 117.049 32.1336 117.103 32.2036 117.175C32.2746 117.259 32.3247 117.36 32.3496 117.468C32.3686 117.622 32.3686 117.777 32.3496 117.93V120.311C32.3496 120.35 32.365 120.387 32.3924 120.415C32.4197 120.442 32.4569 120.458 32.4956 120.458H32.8397C32.8785 120.458 32.9156 120.442 32.943 120.415C32.9703 120.387 32.9857 120.35 32.9857 120.311V118.014C33.0141 117.616 32.9075 117.22 32.6833 116.891C32.5658 116.754 32.4174 116.647 32.2505 116.58C32.0836 116.512 31.903 116.486 31.7239 116.503Z" fill="white"/>
<path d="M35.7906 120.08H35.4257C35.3193 120.094 35.2117 120.068 35.1232 120.007C35.045 119.898 35.0114 119.763 35.0294 119.629V117.091H35.8115C35.8502 117.091 35.8874 117.075 35.9147 117.048C35.9421 117.02 35.9575 116.983 35.9575 116.944V116.702C35.9575 116.664 35.9421 116.626 35.9147 116.599C35.8874 116.571 35.8502 116.556 35.8115 116.556H35.0294V115.758C35.0397 115.728 35.0397 115.695 35.0294 115.664C35.0178 115.659 35.0054 115.657 34.9929 115.657C34.9803 115.657 34.9679 115.659 34.9564 115.664L34.581 115.727C34.5622 115.727 34.5437 115.731 34.5266 115.738C34.5094 115.746 34.494 115.757 34.4812 115.77C34.4685 115.784 34.4587 115.801 34.4526 115.818C34.4464 115.836 34.444 115.855 34.4454 115.874V116.587H33.6528C33.559 116.587 33.5173 116.587 33.5173 116.713V116.912C33.5153 116.93 33.5176 116.948 33.5239 116.965C33.5302 116.982 33.5403 116.997 33.5535 117.01C33.5667 117.022 33.5825 117.031 33.5998 117.036C33.6171 117.041 33.6352 117.042 33.6528 117.038L34.3515 117.122V119.587C34.3468 119.754 34.3679 119.92 34.4141 120.08C34.4493 120.191 34.51 120.292 34.5914 120.374C34.6799 120.452 34.7883 120.502 34.9042 120.521C35.0496 120.54 35.1968 120.54 35.3422 120.521H35.5717H35.8115C35.8949 120.521 35.9366 120.479 35.9366 120.395V120.133C35.9366 120.112 35.8845 120.08 35.7906 120.08Z" fill="white"/>
<path d="M39.2742 116.965C39.134 116.815 38.9633 116.697 38.7737 116.619C38.5529 116.539 38.3198 116.5 38.0854 116.503C37.8656 116.486 37.6448 116.519 37.4391 116.599C37.2335 116.679 37.0481 116.804 36.8966 116.965C36.6031 117.307 36.4535 117.751 36.4795 118.203V118.863C36.4706 119.15 36.5203 119.436 36.6255 119.703C36.7086 119.905 36.8329 120.087 36.9905 120.238C37.1397 120.372 37.3183 120.469 37.5119 120.521C37.7125 120.575 37.9193 120.603 38.1271 120.605C38.3495 120.616 38.5722 120.616 38.7945 120.605C39.0031 120.605 39.2117 120.573 39.4202 120.51C39.4573 120.524 39.4979 120.524 39.5349 120.51C39.5485 120.473 39.5485 120.432 39.5349 120.395V120.154C39.5423 120.141 39.5461 120.127 39.5461 120.112C39.5461 120.097 39.5423 120.083 39.5349 120.07H39.4619L38.8467 120.133H38.1793C38.0407 120.141 37.902 120.12 37.7713 120.074C37.6406 120.027 37.5205 119.954 37.418 119.86C37.2254 119.597 37.1363 119.272 37.1677 118.947V118.842H39.5871C39.6809 118.842 39.7227 118.842 39.7227 118.685V118.286C39.7326 118.015 39.6901 117.744 39.5975 117.489C39.5279 117.293 39.4177 117.115 39.2742 116.965ZM39.0344 118.266H37.1156V118.203C37.0893 117.894 37.1786 117.588 37.3659 117.342C37.5593 117.159 37.8147 117.058 38.0802 117.058C38.3457 117.058 38.6011 117.159 38.7945 117.342C38.9804 117.596 39.0659 117.91 39.0344 118.224V118.266Z" fill="white"/>
<path d="M42.1838 116.503C42.0133 116.5 41.8436 116.529 41.6832 116.587C41.4957 116.649 41.3195 116.741 41.1618 116.86V116.702C41.1687 116.686 41.1723 116.668 41.1723 116.65C41.1723 116.632 41.1687 116.614 41.1618 116.598C41.1473 116.59 41.1312 116.586 41.1149 116.586C41.0986 116.586 41.0825 116.59 41.068 116.598H40.6404C40.6259 116.59 40.6098 116.586 40.5935 116.586C40.5772 116.586 40.5611 116.59 40.5466 116.598C40.5397 116.614 40.5361 116.632 40.5361 116.65C40.5361 116.668 40.5397 116.686 40.5466 116.702V120.405C40.5397 120.422 40.5361 120.44 40.5361 120.458C40.5361 120.476 40.5397 120.494 40.5466 120.51C40.5611 120.518 40.5772 120.522 40.5935 120.522C40.6098 120.522 40.6259 120.518 40.6404 120.51H40.995C41.0337 120.51 41.0708 120.495 41.0982 120.467C41.1256 120.44 41.141 120.402 41.141 120.364V117.321C41.3016 117.224 41.4731 117.147 41.652 117.091C41.8104 117.04 41.9759 117.015 42.1421 117.017C42.2464 117.017 42.2881 117.017 42.2881 116.891V116.598C42.3298 116.545 42.2881 116.503 42.1838 116.503Z" fill="white"/>
<path d="M44.9784 120.08H44.5717C44.4656 120.09 44.3591 120.064 44.2692 120.007C44.2006 119.894 44.1713 119.761 44.1858 119.629V117.091H44.9679C44.9845 117.098 45.0022 117.101 45.0201 117.101C45.038 117.101 45.0557 117.098 45.0722 117.091C45.0821 117.056 45.0821 117.02 45.0722 116.986V116.744C45.0821 116.71 45.0821 116.674 45.0722 116.64C45.0557 116.633 45.038 116.629 45.0201 116.629C45.0022 116.629 44.9845 116.633 44.9679 116.64H44.1858V115.842C44.1962 115.812 44.1962 115.778 44.1858 115.748C44.1621 115.74 44.1365 115.74 44.1128 115.748L43.7374 115.811C43.7196 115.812 43.7022 115.817 43.6862 115.825C43.6703 115.833 43.6561 115.844 43.6445 115.858C43.6328 115.872 43.624 115.888 43.6185 115.905C43.613 115.922 43.6108 115.94 43.6123 115.958V116.671H42.9136C42.8197 116.671 42.7676 116.671 42.7676 116.797V116.996C42.7676 117.07 42.8197 117.122 42.9136 117.122L43.6123 117.206V119.587C43.6075 119.754 43.6287 119.92 43.6748 120.08C43.71 120.191 43.7708 120.292 43.8521 120.374C43.9365 120.452 44.0416 120.503 44.1545 120.521C44.3 120.538 44.4471 120.538 44.5925 120.521H44.8115H45.0514C45.1452 120.521 45.1869 120.458 45.1869 120.395V120.133C45.1348 120.112 45.0827 120.08 44.9784 120.08Z" fill="white"/>
<path d="M47.1684 116.503C46.9565 116.491 46.7441 116.491 46.5322 116.503L46.0421 116.566C45.9482 116.566 45.8961 116.629 45.8961 116.702V116.954C45.8961 116.954 45.8961 117.038 45.8961 117.049C45.9267 117.058 45.9594 117.058 45.99 117.049H46.4697C46.6781 117.037 46.8869 117.037 47.0954 117.049C47.309 117.028 47.5223 117.092 47.6898 117.227C47.8248 117.411 47.8879 117.639 47.867 117.867V118.161H47.3352C47.0587 118.155 46.7825 118.179 46.5114 118.234C46.3222 118.274 46.1419 118.349 45.9795 118.454C45.8431 118.547 45.7377 118.678 45.6771 118.832C45.6121 118.992 45.5802 119.163 45.5833 119.336V119.43C45.5797 119.624 45.6151 119.817 45.6875 119.996C45.7437 120.138 45.8331 120.264 45.9482 120.364C46.0594 120.451 46.1871 120.516 46.3237 120.552C46.4727 120.569 46.623 120.569 46.7721 120.552C46.9681 120.554 47.1627 120.519 47.3456 120.447C47.5322 120.385 47.7107 120.301 47.8775 120.196V120.353C47.8785 120.373 47.8837 120.393 47.8927 120.411C47.9017 120.429 47.9142 120.445 47.9296 120.458C47.9444 120.465 47.9604 120.468 47.9765 120.468C47.9927 120.468 48.0087 120.465 48.0235 120.458H48.3572C48.3959 120.458 48.433 120.442 48.4604 120.415C48.4878 120.387 48.5032 120.35 48.5032 120.311V117.772C48.5218 117.584 48.5019 117.394 48.4445 117.213C48.3871 117.033 48.2935 116.866 48.1695 116.723C47.8773 116.521 47.5179 116.442 47.1684 116.503ZM47.94 119.787C47.7874 119.882 47.6225 119.956 47.4499 120.007C47.2917 120.058 47.1261 120.083 46.9598 120.08C46.7857 120.093 46.6127 120.045 46.4697 119.944C46.4041 119.875 46.3551 119.792 46.3262 119.701C46.2973 119.61 46.2893 119.514 46.3028 119.419V119.336C46.2849 119.224 46.2849 119.111 46.3028 119C46.3431 118.913 46.404 118.837 46.4801 118.78C46.5857 118.718 46.7028 118.678 46.8242 118.664C47.0045 118.646 47.1862 118.646 47.3665 118.664H47.94V119.787Z" fill="white"/>
<path d="M50.1298 116.556H49.7856C49.7469 116.556 49.7098 116.571 49.6824 116.599C49.655 116.626 49.6396 116.664 49.6396 116.702V120.406C49.6396 120.444 49.655 120.482 49.6824 120.509C49.7098 120.537 49.7469 120.552 49.7856 120.552H50.1298C50.1685 120.552 50.2056 120.537 50.233 120.509C50.2604 120.482 50.2758 120.444 50.2758 120.406V116.702C50.2758 116.664 50.2604 116.626 50.233 116.599C50.2056 116.571 50.1685 116.556 50.1298 116.556Z" fill="white"/>
<path d="M50.151 115.035H49.7755C49.742 115.022 49.7048 115.022 49.6713 115.035C49.6617 115.065 49.6617 115.098 49.6713 115.129V115.716C49.6713 115.755 49.6866 115.793 49.714 115.82C49.7414 115.848 49.7785 115.863 49.8173 115.863H50.1927C50.2232 115.873 50.256 115.873 50.2865 115.863C50.2934 115.847 50.297 115.829 50.297 115.811C50.297 115.793 50.2934 115.775 50.2865 115.758V115.171C50.2932 115.156 50.2966 115.14 50.2966 115.124C50.2966 115.107 50.2932 115.091 50.2865 115.077C50.2708 115.057 50.2494 115.042 50.2252 115.034C50.201 115.027 50.1751 115.027 50.151 115.035Z" fill="white"/>
<path d="M53.1537 116.503C52.956 116.502 52.7592 116.531 52.5697 116.587C52.3727 116.648 52.1837 116.733 52.0066 116.839V116.702C52.0164 116.668 52.0164 116.632 52.0066 116.598C51.9765 116.585 51.9428 116.585 51.9127 116.598H51.4851C51.4706 116.59 51.4545 116.586 51.4382 116.586C51.4219 116.586 51.4058 116.59 51.3913 116.598C51.3844 116.614 51.3809 116.632 51.3809 116.65C51.3809 116.668 51.3844 116.686 51.3913 116.702V120.406C51.3844 120.422 51.3809 120.44 51.3809 120.458C51.3809 120.476 51.3844 120.494 51.3913 120.51C51.4058 120.518 51.4219 120.522 51.4382 120.522C51.4545 120.522 51.4706 120.518 51.4851 120.51H51.8397C51.8562 120.517 51.8739 120.521 51.8918 120.521C51.9097 120.521 51.9275 120.517 51.944 120.51C51.9538 120.476 51.9538 120.44 51.944 120.406V117.342C52.1052 117.262 52.2726 117.196 52.4445 117.143C52.5957 117.091 52.754 117.062 52.9138 117.059C53.0313 117.041 53.1509 117.041 53.2684 117.059C53.3654 117.086 53.4524 117.14 53.5187 117.217C53.5936 117.299 53.6442 117.401 53.6647 117.51C53.6843 117.663 53.6843 117.819 53.6647 117.972V120.353C53.6647 120.392 53.68 120.429 53.7074 120.457C53.7348 120.484 53.7719 120.5 53.8106 120.5H54.1548C54.1713 120.507 54.189 120.51 54.2069 120.51C54.2248 120.51 54.2425 120.507 54.2591 120.5C54.2689 120.466 54.2689 120.429 54.2591 120.395V118.014C54.2818 117.617 54.1757 117.223 53.9566 116.891C53.8561 116.775 53.733 116.681 53.5949 116.614C53.4569 116.547 53.3067 116.51 53.1537 116.503Z" fill="white"/>
<path d="M59.8281 116.786C59.7207 116.683 59.5927 116.605 59.4527 116.556C59.3035 116.513 59.149 116.492 58.9939 116.493C58.7938 116.498 58.5948 116.523 58.3994 116.566C58.1898 116.62 57.9869 116.697 57.7946 116.797C57.7133 116.693 57.6051 116.613 57.4818 116.566C57.3492 116.513 57.2072 116.488 57.0646 116.493C56.8719 116.49 56.6805 116.526 56.5015 116.598C56.3295 116.659 56.165 116.74 56.0114 116.839V116.702C56.0183 116.686 56.0218 116.668 56.0218 116.65C56.0218 116.632 56.0183 116.614 56.0114 116.598C55.9968 116.59 55.9807 116.586 55.9644 116.586C55.9481 116.586 55.9321 116.59 55.9175 116.598H55.5525C55.5378 116.591 55.5218 116.587 55.5056 116.587C55.4894 116.587 55.4734 116.591 55.4587 116.598C55.4518 116.614 55.4482 116.632 55.4482 116.65C55.4482 116.668 55.4518 116.686 55.4587 116.702V120.405C55.4482 120.44 55.4482 120.476 55.4587 120.51C55.4732 120.518 55.4893 120.522 55.5056 120.522C55.5219 120.522 55.538 120.518 55.5525 120.51H55.9384C55.9685 120.523 56.0021 120.523 56.0322 120.51C56.0427 120.476 56.0427 120.44 56.0322 120.405V117.342C56.1801 117.265 56.3335 117.198 56.4911 117.143C56.6266 117.087 56.772 117.058 56.9186 117.059H57.1585C57.2266 117.081 57.2878 117.121 57.3358 117.175C57.3908 117.24 57.4268 117.32 57.44 117.405C57.4526 117.534 57.4526 117.664 57.44 117.793V120.385C57.4296 120.419 57.4296 120.455 57.44 120.489C57.4546 120.497 57.4707 120.501 57.487 120.501C57.5033 120.501 57.5193 120.497 57.5339 120.489H57.9197C57.9498 120.502 57.9835 120.502 58.0136 120.489C58.0241 120.455 58.0241 120.419 58.0136 120.385V117.793C58.0158 117.603 57.9948 117.413 57.951 117.227L58.3786 117.091C58.517 117.071 58.6573 117.071 58.7957 117.091C58.8823 117.08 58.9699 117.08 59.0564 117.091C59.1376 117.109 59.2108 117.153 59.265 117.216C59.3322 117.282 59.3792 117.366 59.4006 117.458C59.4253 117.582 59.4253 117.711 59.4006 117.835V120.405C59.3907 120.44 59.3907 120.476 59.4006 120.51C59.4171 120.517 59.4348 120.521 59.4527 120.521C59.4706 120.521 59.4883 120.517 59.5048 120.51H59.8594C59.8895 120.523 59.9232 120.523 59.9533 120.51C59.9601 120.494 59.9637 120.476 59.9637 120.458C59.9637 120.44 59.9601 120.422 59.9533 120.405V117.835C59.9561 117.619 59.928 117.404 59.8698 117.196C59.8808 117.058 59.8667 116.919 59.8281 116.786Z" fill="white"/>
<path d="M63.8113 116.965C63.6711 116.815 63.5004 116.697 63.3108 116.619C63.09 116.539 62.8569 116.5 62.6225 116.503C62.4027 116.486 62.1819 116.519 61.9762 116.599C61.7706 116.679 61.5852 116.804 61.4337 116.965C61.1402 117.307 60.9906 117.751 61.0166 118.203V118.863C61.0077 119.15 61.0574 119.436 61.1626 119.703C61.2457 119.905 61.37 120.087 61.5276 120.238C61.6768 120.372 61.8554 120.469 62.049 120.521C62.2496 120.575 62.4564 120.603 62.6642 120.605C62.9041 120.605 63.1335 120.605 63.3421 120.605L63.9573 120.51C63.9944 120.524 64.035 120.524 64.0721 120.51C64.0856 120.473 64.0856 120.432 64.0721 120.395V120.154C64.0794 120.141 64.0832 120.127 64.0832 120.112C64.0832 120.097 64.0794 120.083 64.0721 120.07H63.9991L63.3942 120.133H62.7164C62.5796 120.139 62.4428 120.118 62.314 120.072C62.1852 120.025 62.0668 119.953 61.9655 119.86C61.7645 119.601 61.6711 119.274 61.7048 118.947V118.842H64.1242C64.2181 118.842 64.2598 118.842 64.2598 118.685V118.286C64.265 118.048 64.2297 117.81 64.1555 117.584C64.0928 117.352 63.9746 117.14 63.8113 116.965ZM63.5819 118.266H61.6527V118.203C61.6264 117.894 61.7157 117.588 61.903 117.342C61.9948 117.245 62.1069 117.169 62.2313 117.12C62.3557 117.071 62.4893 117.05 62.6225 117.059C62.754 117.05 62.8859 117.069 63.0097 117.114C63.1336 117.159 63.2468 117.23 63.3421 117.321C63.5199 117.579 63.6012 117.891 63.5715 118.203L63.5819 118.266Z" fill="white"/>
<path d="M66.8675 116.503C66.6698 116.503 66.4732 116.531 66.2835 116.587C66.088 116.652 65.8994 116.737 65.7204 116.839V116.702C65.7272 116.686 65.7308 116.668 65.7308 116.65C65.7308 116.632 65.7272 116.614 65.7204 116.598C65.7058 116.59 65.6897 116.586 65.6734 116.586C65.6571 116.586 65.6411 116.59 65.6265 116.598H65.2615C65.2468 116.591 65.2308 116.587 65.2146 116.587C65.1984 116.587 65.1824 116.591 65.1677 116.598C65.1608 116.614 65.1572 116.632 65.1572 116.65C65.1572 116.668 65.1608 116.686 65.1677 116.702V120.405C65.1608 120.422 65.1572 120.44 65.1572 120.458C65.1572 120.476 65.1608 120.494 65.1677 120.51C65.1824 120.517 65.1984 120.52 65.2146 120.52C65.2308 120.52 65.2468 120.517 65.2615 120.51H65.6161C65.6548 120.51 65.6919 120.495 65.7193 120.467C65.7467 120.44 65.7621 120.402 65.7621 120.364V117.3C65.9233 117.22 66.0907 117.154 66.2626 117.101C66.4174 117.049 66.5791 117.02 66.7423 117.017C66.8599 117 66.9793 117 67.0969 117.017C67.1914 117.049 67.2772 117.103 67.3472 117.175C67.4182 117.259 67.4682 117.36 67.4932 117.468C67.5121 117.622 67.5121 117.777 67.4932 117.93V120.311C67.4932 120.35 67.5085 120.387 67.5359 120.415C67.5633 120.442 67.6004 120.458 67.6392 120.458H67.9833C68.022 120.458 68.0591 120.442 68.0865 120.415C68.1139 120.387 68.1293 120.35 68.1293 120.311V118.014C68.1576 117.616 68.051 117.22 67.8269 116.891C67.7099 116.754 67.5616 116.646 67.3946 116.579C67.2275 116.511 67.0466 116.485 66.8675 116.503Z" fill="white"/>
<path d="M70.9342 120.08H70.5275C70.4212 120.094 70.3136 120.068 70.2251 120.007C70.1468 119.898 70.1132 119.763 70.1312 119.629V117.091H70.8821C70.9208 117.091 70.9579 117.075 70.9853 117.048C71.0127 117.02 71.028 116.983 71.028 116.944V116.702C71.028 116.664 71.0127 116.626 70.9853 116.599C70.9579 116.571 70.9208 116.556 70.8821 116.556H70.0999V115.758C70.1103 115.728 70.1103 115.695 70.0999 115.664C70.0884 115.659 70.076 115.657 70.0634 115.657C70.0509 115.657 70.0385 115.659 70.0269 115.664L69.6515 115.727C69.6328 115.727 69.6143 115.731 69.5971 115.738C69.5799 115.746 69.5645 115.757 69.5518 115.77C69.539 115.784 69.5293 115.801 69.5231 115.818C69.5169 115.836 69.5145 115.855 69.516 115.874V116.587H68.7964C68.7025 116.587 68.6608 116.587 68.6608 116.713V116.912C68.6589 116.93 68.6611 116.948 68.6674 116.965C68.6737 116.982 68.6839 116.997 68.6971 117.01C68.7102 117.022 68.7261 117.031 68.7434 117.036C68.7606 117.041 68.7788 117.042 68.7964 117.038L69.4951 117.122V119.587C69.4904 119.754 69.5115 119.92 69.5577 120.08C69.5925 120.194 69.6574 120.295 69.7454 120.374C69.8286 120.453 69.9343 120.505 70.0478 120.521C70.1932 120.54 70.3404 120.54 70.4858 120.521H70.7152H70.9551C71.0385 120.521 71.0802 120.479 71.0802 120.395V120.133C71.0802 120.112 71.0281 120.08 70.9342 120.08Z" fill="white"/>
<path d="M76.0962 115.643C76.0714 115.545 76.029 115.453 75.9711 115.37C75.9166 115.306 75.8535 115.249 75.7834 115.202C75.7207 115.16 75.6496 115.131 75.5748 115.118H75.3662H75.1472C75.0733 115.139 75.003 115.171 74.9387 115.213C74.8646 115.254 74.8004 115.312 74.751 115.381C74.691 115.462 74.6484 115.555 74.6258 115.653L73.291 120.385C73.291 120.468 73.291 120.5 73.4162 120.5H73.8437C73.8674 120.508 73.893 120.508 73.9167 120.5C73.9425 120.483 73.9611 120.457 73.9689 120.426L74.4381 118.748H76.3048L76.7741 120.426C76.7693 120.451 76.7693 120.476 76.7741 120.5C76.7854 120.505 76.7979 120.508 76.8106 120.508C76.8232 120.508 76.8357 120.505 76.8471 120.5H77.2746C77.358 120.5 77.3998 120.5 77.3998 120.385L76.0962 115.643ZM74.5633 118.203L75.2203 115.8C75.2253 115.765 75.2429 115.733 75.2697 115.71C75.2966 115.687 75.3309 115.674 75.3662 115.674C75.3998 115.677 75.4316 115.69 75.4563 115.713C75.481 115.736 75.4971 115.767 75.5018 115.8L76.1588 118.203H74.5633Z" fill="white"/>
<path d="M80.9559 116.556H80.6013C80.5848 116.549 80.5671 116.545 80.5492 116.545C80.5313 116.545 80.5136 116.549 80.4971 116.556C80.4872 116.59 80.4872 116.626 80.4971 116.661V119.724C80.3358 119.804 80.1684 119.87 79.9965 119.923C79.8454 119.975 79.687 120.004 79.5272 120.007C79.4062 120.025 79.2832 120.025 79.1622 120.007C79.0695 119.977 78.9865 119.923 78.9224 119.85C78.8474 119.767 78.7969 119.665 78.7764 119.556C78.7567 119.403 78.7567 119.247 78.7764 119.094V116.713C78.7764 116.674 78.761 116.637 78.7336 116.609C78.7062 116.582 78.6691 116.566 78.6304 116.566H78.182C78.1655 116.559 78.1477 116.556 78.1298 116.556C78.1119 116.556 78.0942 116.559 78.0777 116.566C78.0679 116.6 78.0679 116.637 78.0777 116.671V119.063C78.0549 119.46 78.1611 119.854 78.3801 120.185C78.4976 120.322 78.646 120.429 78.8129 120.497C78.9798 120.564 79.1604 120.59 79.3395 120.573C79.5372 120.574 79.734 120.546 79.9235 120.489C80.1205 120.428 80.3095 120.344 80.4866 120.238V120.374C80.4768 120.408 80.4768 120.445 80.4866 120.479C80.5167 120.491 80.5504 120.491 80.5805 120.479H80.9455C80.96 120.486 80.9761 120.49 80.9924 120.49C81.0087 120.49 81.0248 120.486 81.0393 120.479C81.0462 120.462 81.0498 120.444 81.0498 120.426C81.0498 120.408 81.0462 120.391 81.0393 120.374V116.671C81.0462 116.654 81.0498 116.637 81.0498 116.619C81.0498 116.601 81.0462 116.583 81.0393 116.566C81.0269 116.559 81.0131 116.554 80.9987 116.552C80.9843 116.55 80.9698 116.551 80.9559 116.556Z" fill="white"/>
<path d="M84.0422 120.08H83.6355C83.5292 120.094 83.4216 120.068 83.3331 120.007C83.2548 119.898 83.2212 119.763 83.2392 119.629V117.091H84.0214C84.0601 117.091 84.0972 117.075 84.1246 117.048C84.152 117.02 84.1674 116.983 84.1674 116.944V116.702C84.1674 116.664 84.152 116.626 84.1246 116.599C84.0972 116.571 84.0601 116.556 84.0214 116.556H83.2392V115.758C83.2496 115.728 83.2496 115.695 83.2392 115.664C83.2277 115.659 83.2153 115.657 83.2027 115.657C83.1902 115.657 83.1778 115.659 83.1662 115.664L82.7908 115.727C82.7721 115.727 82.7536 115.731 82.7364 115.738C82.7193 115.746 82.7038 115.757 82.6911 115.77C82.6783 115.784 82.6686 115.801 82.6624 115.818C82.6563 115.836 82.6538 115.855 82.6553 115.874V116.587H81.9566C81.8627 116.587 81.821 116.587 81.821 116.713V116.912C81.819 116.93 81.8213 116.948 81.8276 116.965C81.8339 116.982 81.844 116.997 81.8572 117.01C81.8704 117.022 81.8863 117.031 81.9035 117.036C81.9208 117.041 81.9389 117.042 81.9566 117.038L82.6553 117.122V119.587C82.6505 119.754 82.6716 119.92 82.7178 120.08C82.7526 120.194 82.8175 120.295 82.9055 120.374C82.9888 120.453 83.0944 120.505 83.208 120.521C83.3534 120.54 83.5005 120.54 83.6459 120.521H83.8754H84.1152C84.1986 120.521 84.2404 120.479 84.2404 120.395V120.133C84.1882 120.112 84.1361 120.08 84.0422 120.08Z" fill="white"/>
<path d="M87.567 116.86C87.4549 116.738 87.3155 116.644 87.1603 116.587C86.9883 116.532 86.809 116.504 86.6285 116.503C86.448 116.49 86.2667 116.49 86.0862 116.503C85.8934 116.54 85.7048 116.596 85.5231 116.671V115.171C85.531 115.14 85.531 115.107 85.5231 115.077C85.493 115.064 85.4593 115.064 85.4292 115.077H85.0642C85.0497 115.069 85.0336 115.065 85.0173 115.065C85.001 115.065 84.9849 115.069 84.9704 115.077C84.9582 115.107 84.9582 115.141 84.9704 115.171V120.353C84.9635 120.37 84.96 120.388 84.96 120.406C84.96 120.424 84.9635 120.441 84.9704 120.458C84.9849 120.465 85.001 120.469 85.0173 120.469C85.0336 120.469 85.0497 120.465 85.0642 120.458H85.4188C85.4353 120.465 85.453 120.468 85.4709 120.468C85.4888 120.468 85.5066 120.465 85.5231 120.458C85.5329 120.424 85.5329 120.387 85.5231 120.353V117.206C85.6033 117.167 85.6871 117.135 85.7734 117.112L86.0549 117.049H86.3156H86.5242C86.7354 117.04 86.9415 117.115 87.0978 117.258C87.2591 117.471 87.3337 117.737 87.3063 118.003V120.395C87.3063 120.434 87.3217 120.471 87.3491 120.499C87.3765 120.526 87.4136 120.542 87.4523 120.542H87.7965C87.813 120.549 87.8307 120.552 87.8486 120.552C87.8665 120.552 87.8842 120.549 87.9007 120.542C87.9106 120.508 87.9106 120.471 87.9007 120.437V118.014C87.9055 117.783 87.8738 117.553 87.8069 117.332C87.7648 117.158 87.6826 116.996 87.567 116.86Z" fill="white"/>
<path d="M91.5719 116.986C91.4341 116.83 91.2629 116.708 91.0714 116.629C90.8487 116.542 90.6115 116.5 90.3727 116.503C90.1338 116.498 89.8961 116.54 89.674 116.629C89.4792 116.708 89.3045 116.83 89.163 116.986C89.0297 117.155 88.9273 117.347 88.8606 117.552C88.7959 117.788 88.7643 118.032 88.7667 118.276V118.832C88.7643 119.076 88.7959 119.32 88.8606 119.556C88.9273 119.761 89.0297 119.953 89.163 120.122C89.3045 120.278 89.4792 120.4 89.674 120.479C89.8961 120.568 90.1338 120.61 90.3727 120.605C90.6115 120.608 90.8487 120.566 91.0714 120.479C91.2629 120.4 91.4341 120.278 91.5719 120.122C91.7125 119.956 91.8188 119.764 91.8848 119.556C91.9495 119.32 91.981 119.076 91.9786 118.832V118.276C91.981 118.032 91.9495 117.788 91.8848 117.552C91.8188 117.344 91.7125 117.152 91.5719 116.986ZM91.3425 118.832C91.3609 119.146 91.2806 119.458 91.1131 119.724C91.0247 119.834 90.9113 119.921 90.7824 119.977C90.6535 120.034 90.513 120.058 90.3727 120.049C90.2311 120.061 90.0887 120.036 89.9591 119.978C89.8296 119.919 89.717 119.828 89.6323 119.713C89.4649 119.451 89.3846 119.143 89.4029 118.832V118.276C89.3845 117.962 89.4647 117.65 89.6323 117.384C89.7292 117.286 89.8446 117.208 89.9716 117.155C90.0987 117.101 90.235 117.074 90.3727 117.074C90.5103 117.074 90.6467 117.101 90.7737 117.155C90.9008 117.208 91.0161 117.286 91.1131 117.384C91.2805 117.646 91.3608 117.955 91.3425 118.266V118.832Z" fill="white"/>
<path d="M94.4705 116.503C94.2999 116.5 94.1303 116.529 93.9699 116.587C93.7824 116.649 93.6062 116.741 93.4485 116.86V116.702C93.4554 116.686 93.4589 116.668 93.4589 116.65C93.4589 116.632 93.4554 116.614 93.4485 116.598C93.434 116.59 93.4179 116.586 93.4016 116.586C93.3853 116.586 93.3692 116.59 93.3547 116.598H93.0105C92.9804 116.585 92.9468 116.585 92.9167 116.598C92.9098 116.614 92.9062 116.632 92.9062 116.65C92.9062 116.668 92.9098 116.686 92.9167 116.702V120.405C92.9098 120.422 92.9062 120.44 92.9062 120.458C92.9062 120.476 92.9098 120.494 92.9167 120.51C92.9468 120.523 92.9804 120.523 93.0105 120.51H93.3651C93.4038 120.51 93.4409 120.495 93.4683 120.467C93.4957 120.44 93.5111 120.402 93.5111 120.364V117.321C93.6717 117.224 93.8432 117.147 94.0221 117.091C94.1805 117.04 94.346 117.015 94.5122 117.017C94.6165 117.017 94.6686 116.975 94.6686 116.891V116.598C94.6269 116.545 94.5748 116.503 94.4705 116.503Z" fill="white"/>
<path d="M95.9101 116.556H95.5659C95.5272 116.556 95.4901 116.571 95.4627 116.599C95.4353 116.626 95.4199 116.664 95.4199 116.702V120.406C95.4199 120.444 95.4353 120.482 95.4627 120.509C95.4901 120.537 95.5272 120.552 95.5659 120.552H95.9101C95.9488 120.552 95.9859 120.537 96.0133 120.509C96.0407 120.482 96.056 120.444 96.056 120.406V116.702C96.056 116.664 96.0407 116.626 96.0133 116.599C95.9859 116.571 95.9488 116.556 95.9101 116.556Z" fill="white"/>
<path d="M95.9101 115.035H95.5347C95.4993 115.043 95.4669 115.061 95.4412 115.087C95.4154 115.113 95.3972 115.146 95.3887 115.181V115.769C95.3897 115.789 95.3949 115.809 95.4039 115.827C95.4129 115.845 95.4254 115.861 95.4408 115.874C95.4714 115.883 95.5041 115.883 95.5347 115.874H95.9101C95.9406 115.883 95.9734 115.883 96.0039 115.874C96.0108 115.857 96.0144 115.839 96.0144 115.821C96.0144 115.803 96.0108 115.785 96.0039 115.769V115.181C96.0106 115.167 96.014 115.15 96.014 115.134C96.014 115.118 96.0106 115.102 96.0039 115.087C95.9931 115.072 95.9791 115.059 95.9629 115.05C95.9467 115.041 95.9286 115.036 95.9101 115.035Z" fill="white"/>
<path d="M99.0383 120.08H98.6316C98.5253 120.094 98.4177 120.068 98.3292 120.007C98.2509 119.898 98.2173 119.763 98.2353 119.629V117.091H99.0383C99.077 117.091 99.1142 117.075 99.1415 117.048C99.1689 117.02 99.1843 116.983 99.1843 116.944V116.702C99.1843 116.664 99.1689 116.626 99.1415 116.599C99.1142 116.571 99.077 116.556 99.0383 116.556H98.2562V115.758C98.2665 115.728 98.2665 115.695 98.2562 115.664C98.2446 115.659 98.2322 115.657 98.2197 115.657C98.2071 115.657 98.1947 115.659 98.1832 115.664L97.8078 115.727C97.7891 115.727 97.7705 115.731 97.7534 115.738C97.7362 115.746 97.7208 115.757 97.708 115.77C97.6953 115.784 97.6855 115.801 97.6794 115.818C97.6732 115.836 97.6708 115.855 97.6722 115.874V116.587H96.9527C96.8588 116.587 96.8171 116.587 96.8171 116.713V116.912C96.8151 116.93 96.8174 116.948 96.8237 116.965C96.83 116.982 96.8401 116.997 96.8533 117.01C96.8665 117.022 96.8824 117.031 96.8996 117.036C96.9169 117.041 96.935 117.042 96.9527 117.038L97.6513 117.122V119.587C97.6466 119.754 97.6677 119.92 97.7139 120.08C97.7487 120.194 97.8136 120.295 97.9016 120.374C97.9849 120.453 98.0905 120.505 98.204 120.521C98.3495 120.538 98.4966 120.538 98.642 120.521H98.8714H99.1113C99.1947 120.521 99.2364 120.479 99.2364 120.395V120.133C99.2052 120.112 99.153 120.08 99.0383 120.08Z" fill="white"/>
<path d="M102.855 116.556H102.448C102.421 116.545 102.392 116.545 102.365 116.556C102.357 116.58 102.357 116.605 102.365 116.629L101.478 119.954H101.364H101.291C101.259 119.914 101.238 119.868 101.228 119.818L100.373 116.671V116.587C100.346 116.577 100.316 116.577 100.29 116.587H99.8932C99.8764 116.585 99.8594 116.588 99.8435 116.593C99.8276 116.599 99.8131 116.608 99.8012 116.62C99.7892 116.632 99.7801 116.647 99.7743 116.663C99.7686 116.679 99.7665 116.696 99.7681 116.713L100.738 120.038C100.759 120.134 100.794 120.226 100.842 120.311C100.876 120.369 100.918 120.423 100.967 120.468C101.012 120.498 101.061 120.52 101.113 120.531H101.374L101.301 120.836C101.279 120.941 101.244 121.043 101.197 121.14C101.162 121.212 101.112 121.277 101.051 121.329C100.996 121.38 100.927 121.413 100.853 121.423C100.763 121.435 100.672 121.435 100.582 121.423H100.258H99.935C99.8515 121.423 99.7994 121.423 99.7994 121.538V121.801C99.793 121.814 99.7896 121.828 99.7896 121.843C99.7896 121.857 99.793 121.872 99.7994 121.885H99.9141C100.008 121.893 100.102 121.893 100.196 121.885H100.519C100.695 121.889 100.87 121.868 101.04 121.822C101.174 121.787 101.299 121.722 101.405 121.633C101.513 121.546 101.599 121.435 101.656 121.308C101.728 121.144 101.791 120.976 101.843 120.804L103.032 116.608C103.032 116.608 102.928 116.556 102.855 116.556Z" fill="white"/>
<path d="M11.9625 111.195H11.5662C11.5049 111.196 11.4459 111.218 11.3993 111.258C11.3755 111.277 11.3565 111.3 11.3438 111.328C11.3311 111.355 11.3251 111.385 11.3263 111.415V111.971C11.3259 112 11.3323 112.028 11.345 112.054C11.3577 112.079 11.3764 112.102 11.3993 112.118C11.4203 112.142 11.446 112.161 11.4748 112.173C11.5036 112.186 11.5348 112.192 11.5662 112.192H11.9625C11.9939 112.192 12.025 112.186 12.0538 112.173C12.0826 112.161 12.1084 112.142 12.1293 112.118C12.1523 112.102 12.1709 112.079 12.1836 112.054C12.1963 112.028 12.2027 112 12.2023 111.971V111.415C12.2035 111.385 12.1976 111.355 12.1849 111.328C12.1722 111.3 12.1531 111.277 12.1293 111.258C12.0828 111.218 12.0237 111.196 11.9625 111.195Z" fill="white"/>
<path d="M10.2935 112.244C10.3249 112.245 10.3561 112.238 10.3849 112.226C10.4137 112.213 10.4394 112.194 10.4604 112.171C10.4997 112.132 10.5221 112.079 10.5229 112.024V111.468C10.524 111.439 10.5189 111.41 10.5081 111.383C10.4974 111.356 10.4811 111.331 10.4604 111.311C10.4426 111.28 10.4185 111.254 10.3896 111.234C10.3608 111.214 10.328 111.201 10.2935 111.195H9.89724C9.86659 111.193 9.8359 111.198 9.80716 111.209C9.77841 111.22 9.75226 111.236 9.73038 111.258C9.70659 111.277 9.68754 111.3 9.67484 111.328C9.66213 111.355 9.65615 111.385 9.65739 111.415V111.971C9.65697 112 9.66338 112.028 9.67608 112.054C9.68879 112.079 9.70741 112.102 9.73038 112.118C9.75033 112.143 9.77589 112.163 9.80493 112.175C9.83396 112.188 9.86561 112.194 9.89724 112.192L10.2935 112.244Z" fill="white"/>
<path d="M15.1429 104.377H15.6122C15.6428 104.378 15.6735 104.374 15.7022 104.363C15.731 104.352 15.7571 104.335 15.779 104.314C15.7998 104.293 15.816 104.269 15.8268 104.242C15.8376 104.215 15.8426 104.185 15.8416 104.156V103.611C15.8434 103.58 15.8388 103.549 15.828 103.52C15.8173 103.491 15.8006 103.465 15.779 103.443C15.7587 103.422 15.7343 103.406 15.7074 103.395C15.6805 103.384 15.6516 103.379 15.6226 103.38H15.1742C15.1164 103.382 15.0611 103.404 15.0178 103.443C14.9931 103.463 14.9737 103.489 14.9609 103.518C14.9482 103.547 14.9427 103.579 14.9448 103.611V104.156C14.9435 104.186 14.9495 104.217 14.9622 104.244C14.9749 104.271 14.994 104.295 15.0178 104.314C15.051 104.349 15.0952 104.371 15.1429 104.377Z" fill="white"/>
<path d="M17.1769 110.031C17.1828 109.919 17.1828 109.807 17.1769 109.695C17.1769 109.569 17.1769 109.443 17.1769 109.307V105.845C17.189 105.804 17.189 105.76 17.1769 105.719C17.1399 105.69 17.0973 105.669 17.0517 105.656C16.8265 105.596 16.596 105.557 16.3635 105.541C16.0923 105.541 15.8108 105.541 15.5292 105.541C14.8997 105.501 14.2793 105.708 13.7981 106.118C13.584 106.328 13.4174 106.582 13.3094 106.862C13.2014 107.143 13.1547 107.444 13.1724 107.744V107.996C13.1645 108.291 13.2068 108.585 13.2976 108.866C13.3706 109.073 13.4801 109.265 13.6208 109.433H12.0879H11.848C11.7751 109.419 11.7047 109.395 11.6395 109.359C11.6094 109.349 11.5819 109.332 11.5585 109.311C11.5352 109.289 11.5166 109.263 11.5039 109.234V106.412C11.5068 106.386 11.5036 106.361 11.4945 106.337C11.4854 106.313 11.4708 106.292 11.4518 106.275C11.4346 106.256 11.4138 106.241 11.3905 106.23C11.3671 106.219 11.3419 106.213 11.3162 106.212H10.8469C10.7959 106.217 10.7482 106.24 10.712 106.276C10.6758 106.312 10.6534 106.36 10.6488 106.412V109.097C10.6534 109.135 10.6492 109.174 10.6365 109.211C10.6239 109.247 10.6031 109.28 10.5758 109.307C10.524 109.361 10.4594 109.401 10.3881 109.422H10.1482H4.93408C4.75197 109.431 4.57126 109.387 4.41267 109.296C4.28753 109.223 4.22496 109.045 4.22496 108.772V105.887C4.23713 105.846 4.23713 105.802 4.22496 105.761C4.22496 105.761 4.22496 105.761 4.09982 105.688H3.83912H3.51584C3.40136 105.678 3.28619 105.678 3.17171 105.688H2.80672C2.45529 105.687 2.10503 105.729 1.76389 105.814C1.46257 105.89 1.17914 106.026 0.929628 106.212C0.693699 106.398 0.507343 106.639 0.387359 106.915C0.243224 107.245 0.175475 107.604 0.189221 107.964V108.048C0.152321 108.603 0.336124 109.15 0.700207 109.569C0.895675 109.751 1.12583 109.892 1.37677 109.982C1.6277 110.072 1.8942 110.11 2.16016 110.094H2.25402C2.52106 110.095 2.78727 110.064 3.04657 109.999C3.25455 109.953 3.44146 109.838 3.57841 109.674C3.67373 109.884 3.84541 110.049 4.05811 110.136C4.30057 110.231 4.5592 110.277 4.81937 110.272H9.80408C10.0182 110.271 10.2315 110.247 10.4402 110.199C10.662 110.162 10.8704 110.068 11.045 109.926C11.2172 110.072 11.4268 110.167 11.6499 110.199C11.8725 110.248 12.0998 110.272 12.3277 110.272H16.134C16.3947 110.272 16.6763 110.272 16.9579 110.272C17.2394 110.272 17.1769 110.146 17.1769 110.031ZM3.32813 108.72C3.33273 108.816 3.3072 108.911 3.25513 108.992C3.19648 109.065 3.12139 109.123 3.03614 109.16C2.94449 109.205 2.84563 109.234 2.74415 109.244H2.42087H2.23316C2.06074 109.264 1.88612 109.243 1.7232 109.183C1.56027 109.122 1.41352 109.025 1.29462 108.898C1.09237 108.619 0.992839 108.278 1.01305 107.933V107.712C1.00414 107.478 1.05059 107.244 1.14862 107.031C1.2231 106.859 1.34192 106.71 1.49275 106.601C1.64967 106.492 1.82717 106.417 2.01417 106.38C2.23746 106.337 2.46454 106.315 2.69201 106.317H2.97357H3.32813V108.72ZM16.3635 109.391H15.8733H15.3624C15.1713 109.414 14.9777 109.391 14.7967 109.326C14.6157 109.26 14.4524 109.153 14.3195 109.013C14.0909 108.714 13.9762 108.341 13.9962 107.964V107.733C13.9719 107.54 13.9922 107.343 14.0558 107.159C14.1193 106.974 14.2242 106.807 14.3624 106.67C14.5006 106.533 14.6684 106.43 14.8527 106.369C15.037 106.308 15.2328 106.29 15.4249 106.317H15.9046H16.3218L16.3635 109.391Z" fill="white"/>
<path d="M23.6739 104.796H24.0701C24.1314 104.796 24.1904 104.773 24.237 104.733C24.2792 104.696 24.3054 104.643 24.31 104.586V104.03C24.3099 103.999 24.3033 103.968 24.2908 103.939C24.2782 103.91 24.2599 103.884 24.237 103.863C24.2151 103.841 24.189 103.824 24.1602 103.813C24.1315 103.802 24.1008 103.798 24.0701 103.8H23.6739C23.6432 103.798 23.6125 103.802 23.5838 103.813C23.555 103.824 23.5289 103.841 23.507 103.863C23.4824 103.883 23.4629 103.908 23.4502 103.938C23.4375 103.967 23.432 103.999 23.434 104.03V104.586C23.4336 104.615 23.44 104.643 23.4527 104.669C23.4654 104.694 23.484 104.716 23.507 104.733C23.5289 104.755 23.555 104.772 23.5838 104.783C23.6125 104.793 23.6432 104.798 23.6739 104.796Z" fill="white"/>
<path d="M25.3418 104.796H25.7485C25.8067 104.796 25.8626 104.773 25.905 104.733C25.9279 104.716 25.9466 104.694 25.9593 104.669C25.972 104.643 25.9784 104.615 25.978 104.586V104.03C25.98 103.999 25.9745 103.967 25.9618 103.938C25.9491 103.908 25.9296 103.883 25.905 103.863C25.8626 103.822 25.8067 103.8 25.7485 103.8H25.3418C25.2806 103.8 25.2215 103.823 25.175 103.863C25.1504 103.883 25.1309 103.908 25.1182 103.938C25.1055 103.967 25.0999 103.999 25.102 104.03V104.586C25.1016 104.615 25.108 104.643 25.1207 104.669C25.1334 104.694 25.152 104.716 25.175 104.733C25.2215 104.773 25.2806 104.796 25.3418 104.796Z" fill="white"/>
<path d="M30.3582 110.251H30.6919H30.9317C30.9974 110.23 31.0531 110.185 31.0881 110.125C31.1214 110.075 31.1428 110.017 31.1507 109.957C31.1507 109.873 31.1507 109.779 31.1507 109.674C31.1507 109.569 31.1507 109.464 31.1507 109.359V102.803C31.1493 102.753 31.1309 102.705 31.0986 102.667C31.0552 102.649 31.0064 102.649 30.963 102.667H30.525C30.4776 102.651 30.4264 102.651 30.379 102.667C30.3467 102.705 30.3283 102.753 30.3269 102.803V109.097C30.3408 109.211 30.315 109.326 30.2539 109.422C30.134 109.467 30.0059 109.485 29.8785 109.475H28.7626H28.5228C28.4499 109.461 28.3795 109.437 28.3142 109.401C28.2842 109.391 28.2566 109.374 28.2333 109.353C28.21 109.331 28.1914 109.305 28.1787 109.275V102.803C28.1937 102.759 28.1937 102.711 28.1787 102.667C28.1346 102.652 28.0871 102.652 28.0431 102.667H27.5008C27.457 102.651 27.409 102.651 27.3652 102.667C27.3461 102.684 27.3307 102.705 27.3199 102.728C27.3091 102.752 27.3033 102.777 27.3027 102.803V109.097C27.3073 109.135 27.3031 109.174 27.2904 109.211C27.2778 109.247 27.257 109.28 27.2297 109.307C27.1779 109.361 27.1133 109.401 27.042 109.422H26.8021H25.7593H25.5194C25.4428 109.411 25.3687 109.386 25.3005 109.349C25.2443 109.325 25.1995 109.28 25.1753 109.223V106.401C25.1706 106.35 25.1483 106.302 25.1121 106.265C25.0759 106.229 25.0281 106.207 24.9772 106.202H24.5079C24.482 106.201 24.4563 106.206 24.4327 106.217C24.4092 106.228 24.3885 106.244 24.3723 106.265C24.3533 106.282 24.3387 106.303 24.3296 106.327C24.3205 106.35 24.3173 106.376 24.3202 106.401V109.087C24.3227 109.126 24.3165 109.165 24.3021 109.201C24.2877 109.237 24.2653 109.27 24.2368 109.296C24.185 109.35 24.1204 109.39 24.0491 109.412H23.8196H20.0446V106.338C20.0615 106.294 20.0615 106.246 20.0446 106.202C20.0291 106.183 20.01 106.168 19.9885 106.157C19.967 106.147 19.9435 106.14 19.9195 106.139H19.4189C19.393 106.138 19.3673 106.143 19.3437 106.154C19.3202 106.165 19.2995 106.182 19.2833 106.202C19.2494 106.239 19.2308 106.288 19.2312 106.338V110.88C19.2394 111.064 19.2219 111.248 19.1791 111.426C19.1551 111.544 19.0927 111.651 19.0018 111.73C18.8947 111.799 18.7734 111.842 18.6472 111.856C18.4667 111.869 18.2855 111.869 18.1049 111.856H17.886C17.7712 111.856 17.7087 111.856 17.7087 112.003V112.444C17.7018 112.46 17.6982 112.478 17.6982 112.496C17.6982 112.514 17.7018 112.532 17.7087 112.548C17.7446 112.585 17.7929 112.608 17.8442 112.611H18.1154H18.3344C18.6603 112.62 18.9852 112.571 19.2938 112.464C19.5373 112.373 19.7381 112.194 19.8569 111.961C19.9354 111.81 19.9882 111.647 20.0133 111.478C20.0245 111.276 20.0245 111.073 20.0133 110.87V110.22H23.4338C23.6479 110.219 23.8613 110.195 24.0699 110.146C24.2943 110.108 24.5057 110.014 24.6852 109.873C24.8547 110.017 25.0603 110.112 25.2796 110.146C25.5023 110.195 25.7295 110.219 25.9574 110.22H26.4684C26.6825 110.219 26.8958 110.194 27.1045 110.146C27.3263 110.11 27.5347 110.016 27.7094 109.873C27.7915 109.945 27.8827 110.005 27.9805 110.052C28.0884 110.094 28.2002 110.126 28.3142 110.146C28.4252 110.157 28.537 110.157 28.6479 110.146H28.9816H29.9515L30.3582 110.251Z" fill="white"/>
<path d="M37.9701 104.398H38.3663C38.4276 104.397 38.4867 104.375 38.5332 104.335C38.5553 104.315 38.5732 104.291 38.5858 104.264C38.5983 104.236 38.6053 104.207 38.6062 104.177V103.632C38.6061 103.6 38.5995 103.569 38.587 103.54C38.5744 103.511 38.5561 103.485 38.5332 103.464C38.4867 103.424 38.4276 103.402 38.3663 103.401H37.9701C37.9088 103.402 37.8498 103.424 37.8032 103.464C37.7767 103.483 37.7552 103.508 37.7406 103.537C37.7261 103.567 37.7189 103.599 37.7198 103.632V104.177C37.7206 104.208 37.7286 104.239 37.743 104.266C37.7575 104.293 37.7781 104.317 37.8032 104.335C37.8498 104.375 37.9088 104.397 37.9701 104.398Z" fill="white"/>
<path d="M36.2913 104.398H36.698C36.7562 104.397 36.8121 104.375 36.8545 104.335C36.8783 104.316 36.8973 104.292 36.91 104.265C36.9227 104.238 36.9287 104.207 36.9275 104.177V103.632C36.9293 103.601 36.9247 103.57 36.9139 103.541C36.9031 103.512 36.8864 103.486 36.8649 103.464C36.8184 103.424 36.7593 103.402 36.698 103.401H36.2913C36.2301 103.402 36.171 103.424 36.1245 103.464C36.1029 103.486 36.0862 103.512 36.0755 103.541C36.0647 103.57 36.0601 103.601 36.0619 103.632V104.177C36.0609 104.206 36.0659 104.236 36.0767 104.263C36.0875 104.29 36.1038 104.314 36.1245 104.335C36.171 104.375 36.2301 104.397 36.2913 104.398Z" fill="white"/>
<path d="M51.4547 109.884C51.8105 109.425 51.9851 108.849 51.9448 108.268V107.744C51.9842 107.155 51.7976 106.573 51.4234 106.118C51.216 105.927 50.9723 105.78 50.7071 105.687C50.4419 105.593 50.1605 105.554 49.88 105.572C49.5953 105.553 49.3096 105.592 49.0406 105.687C48.7715 105.783 48.5248 105.933 48.3158 106.128C48.122 106.35 47.9735 106.607 47.8786 106.886C47.7838 107.165 47.7445 107.46 47.7631 107.754V108.74C47.7751 108.838 47.7751 108.937 47.7631 109.034C47.7508 109.11 47.7096 109.178 47.6484 109.223C47.5901 109.274 47.5229 109.313 47.4502 109.338H47.2312H39.9314C39.7492 109.348 39.568 109.305 39.41 109.213C39.2745 109.139 39.2119 108.961 39.2119 108.688V105.803C39.2187 105.762 39.2187 105.719 39.2119 105.677C39.1791 105.64 39.1352 105.614 39.0867 105.604H38.8156H38.4923C38.3814 105.593 38.2696 105.593 38.1586 105.604H37.8458C37.4943 105.602 37.1441 105.645 36.803 105.73C36.5009 105.804 36.217 105.94 35.9687 106.128C35.7299 106.314 35.54 106.555 35.416 106.831C35.2806 107.164 35.2167 107.521 35.2283 107.88V108.048C35.1914 108.603 35.3752 109.15 35.7393 109.569C35.934 109.752 36.1641 109.893 36.4152 109.984C36.6663 110.074 36.9332 110.111 37.1992 110.094H37.2827C37.5498 110.096 37.8161 110.065 38.0752 109.999C38.285 109.95 38.4745 109.836 38.6175 109.674C38.7085 109.883 38.8768 110.049 39.0867 110.136C39.3331 110.23 39.5949 110.276 39.8584 110.272H46.8975C47.1659 110.274 47.4331 110.235 47.6901 110.157C47.9061 110.098 48.0944 109.964 48.2219 109.779C48.399 110.005 48.6385 110.172 48.9102 110.262C49.2452 110.378 49.5987 110.432 49.953 110.419C50.5042 110.447 51.0442 110.255 51.4547 109.884ZM38.3568 108.72C38.3576 108.817 38.3285 108.912 38.2733 108.992C38.2185 109.065 38.1469 109.122 38.0648 109.16C37.9694 109.205 37.8672 109.234 37.7624 109.244H37.4495H37.2514C37.0791 109.261 36.9052 109.239 36.7426 109.179C36.5801 109.119 36.4332 109.023 36.3128 108.898C36.1188 108.615 36.0234 108.276 36.0417 107.933V107.712C36.0348 107.479 36.0775 107.246 36.1668 107.031C36.2413 106.859 36.3601 106.71 36.511 106.601C36.6707 106.49 36.852 106.415 37.0428 106.38C37.2626 106.336 37.4862 106.315 37.7102 106.317H38.0022H38.3568V108.72ZM48.6599 108.856C48.6477 108.667 48.6477 108.478 48.6599 108.289V107.838C48.6408 107.467 48.7394 107.1 48.9415 106.789C49.0631 106.655 49.214 106.551 49.3823 106.486C49.5505 106.42 49.7316 106.395 49.9113 106.412C50.0851 106.391 50.2612 106.415 50.4233 106.481C50.5855 106.547 50.7286 106.653 50.8394 106.789C51.0364 107.102 51.1312 107.469 51.1105 107.838V108.216C51.1412 108.586 51.0456 108.956 50.8394 109.265C50.7143 109.385 50.5646 109.477 50.4007 109.533C50.2367 109.589 50.0626 109.609 49.8904 109.59C49.6209 109.602 49.3527 109.548 49.1083 109.433C48.9964 109.375 48.8983 109.294 48.8209 109.194C48.7434 109.094 48.6885 108.979 48.6599 108.856Z" fill="white"/>
<path d="M65.3131 110.052C65.3382 109.999 65.3557 109.942 65.3652 109.884C65.3766 109.79 65.3766 109.695 65.3652 109.601C65.3652 109.496 65.3652 109.391 65.3652 109.286V102.803C65.3666 102.779 65.3631 102.754 65.3548 102.732C65.3466 102.709 65.3337 102.688 65.3171 102.67C65.3005 102.652 65.2805 102.638 65.2583 102.629C65.2361 102.619 65.2121 102.614 65.1879 102.614H64.6874C64.6436 102.598 64.5956 102.598 64.5518 102.614C64.5327 102.631 64.5172 102.652 64.5065 102.676C64.4957 102.699 64.4899 102.725 64.4893 102.751V109.045C64.4893 109.223 64.4893 109.328 64.4163 109.37C64.2964 109.415 64.1683 109.433 64.0408 109.422H61.9552C62.0672 109.344 62.1629 109.244 62.2367 109.129C62.33 109 62.4038 108.859 62.4557 108.709C62.5201 108.55 62.569 108.385 62.6017 108.216C62.6345 108.05 62.652 107.882 62.6539 107.712V107.524C62.663 107.211 62.6061 106.9 62.487 106.611C62.3787 106.369 62.2142 106.157 62.0073 105.992C61.7885 105.828 61.5408 105.707 61.2773 105.635C60.9771 105.561 60.6687 105.526 60.3597 105.531C60.1551 105.51 59.949 105.51 59.7444 105.531C59.5431 105.561 59.3444 105.607 59.15 105.667C58.9691 105.718 58.7943 105.788 58.6286 105.877C58.4787 105.954 58.3386 106.049 58.2114 106.16C58.1664 106.191 58.1283 106.232 58.0996 106.279C58.0709 106.326 58.0521 106.378 58.0446 106.433V106.821C58.0341 106.848 58.0341 106.878 58.0446 106.905L59.004 109.37H55.083H54.791C54.7164 109.357 54.6453 109.328 54.5824 109.286C54.5207 109.241 54.4736 109.179 54.4468 109.108C54.41 109.003 54.3923 108.893 54.3947 108.782V102.803C54.4098 102.759 54.4098 102.711 54.3947 102.667C54.3776 102.647 54.3567 102.632 54.3334 102.621C54.3101 102.61 54.2848 102.604 54.2591 102.604H53.7586C53.7327 102.603 53.7069 102.608 53.6834 102.619C53.6599 102.63 53.6392 102.646 53.623 102.667C53.6038 102.684 53.5884 102.705 53.5777 102.728C53.5669 102.752 53.561 102.777 53.5604 102.803V109.024C53.5538 109.241 53.5856 109.458 53.6543 109.664C53.6993 109.82 53.7902 109.959 53.915 110.062C54.0349 110.163 54.1785 110.232 54.3321 110.262C54.5199 110.307 54.7126 110.328 54.9057 110.324H64.2285H64.6144H64.9481C65.0278 110.334 65.1083 110.334 65.1879 110.324C65.2298 110.293 65.2631 110.252 65.285 110.204C65.3068 110.156 65.3165 110.104 65.3131 110.052ZM61.903 107.712C61.9002 108.083 61.7956 108.446 61.6006 108.761C61.5084 108.912 61.3871 109.043 61.2438 109.146C61.1005 109.248 60.9381 109.321 60.7664 109.359H60.0155L58.9727 106.663C59.2095 106.497 59.4803 106.386 59.7652 106.338C59.992 106.293 60.2224 106.269 60.4535 106.265C60.8247 106.25 61.1905 106.357 61.4963 106.569C61.6315 106.69 61.7367 106.842 61.8036 107.011C61.8706 107.18 61.8975 107.363 61.8822 107.545L61.903 107.712Z" fill="white"/>
<path d="M67.3466 110.283H67.8472C67.8731 110.283 67.8988 110.278 67.9224 110.267C67.9459 110.256 67.9666 110.24 67.9828 110.22C67.9973 110.172 67.9973 110.121 67.9828 110.073V102.803C67.9971 102.759 67.9971 102.711 67.9828 102.667C67.9666 102.646 67.9459 102.63 67.9224 102.619C67.8988 102.608 67.8731 102.603 67.8472 102.604H67.3466C67.321 102.604 67.2957 102.61 67.2724 102.621C67.2491 102.632 67.2282 102.647 67.2111 102.667C67.1967 102.711 67.1967 102.759 67.2111 102.803V110.146C67.1966 110.194 67.1966 110.245 67.2111 110.293C67.256 110.307 67.3043 110.303 67.3466 110.283Z" fill="white"/>
<path d="M74.9079 104.398H75.3042C75.3332 104.399 75.3621 104.394 75.389 104.383C75.4159 104.372 75.4403 104.356 75.4606 104.335C75.4844 104.316 75.5035 104.292 75.5162 104.265C75.5289 104.238 75.5349 104.207 75.5336 104.177V103.632C75.5357 103.6 75.5301 103.568 75.5174 103.539C75.5047 103.51 75.4852 103.484 75.4606 103.464C75.4403 103.443 75.4159 103.427 75.389 103.416C75.3621 103.405 75.3332 103.4 75.3042 103.401H74.9079C74.8434 103.401 74.7808 103.423 74.7306 103.464C74.706 103.484 74.6865 103.51 74.6738 103.539C74.6611 103.568 74.6556 103.6 74.6576 103.632V104.177C74.6564 104.207 74.6624 104.238 74.6751 104.265C74.6878 104.292 74.7068 104.316 74.7306 104.335C74.7808 104.375 74.8434 104.398 74.9079 104.398Z" fill="white"/>
<path d="M73.2288 104.398H73.6251C73.6864 104.397 73.7454 104.375 73.792 104.335C73.8141 104.315 73.832 104.291 73.8445 104.264C73.8571 104.236 73.864 104.207 73.865 104.177V103.632C73.867 103.6 73.8615 103.568 73.8488 103.539C73.8361 103.51 73.8166 103.484 73.792 103.464C73.7701 103.442 73.7439 103.426 73.7152 103.415C73.6864 103.404 73.6558 103.399 73.6251 103.401H73.2288C73.1673 103.4 73.1075 103.422 73.062 103.464C73.0404 103.486 73.0237 103.512 73.013 103.541C73.0022 103.57 72.9976 103.601 72.9994 103.632V104.177C72.9984 104.206 73.0034 104.236 73.0142 104.263C73.025 104.29 73.0413 104.314 73.062 104.335C73.1075 104.376 73.1673 104.399 73.2288 104.398Z" fill="white"/>
<path d="M82.2486 104.901H83.6251H83.7502C83.7594 104.885 83.7642 104.867 83.7642 104.849C83.7642 104.83 83.7594 104.812 83.7502 104.796V104.639C83.7502 104.555 83.6877 104.513 83.573 104.513H82.8951C82.8257 104.471 82.771 104.409 82.7387 104.335C82.6845 104.224 82.6594 104.101 82.6657 103.978C82.6657 103.674 82.843 103.516 83.208 103.516H83.5208C83.6147 103.516 83.6564 103.516 83.6564 103.401V103.254C83.6564 103.254 83.6564 103.16 83.5417 103.139C83.476 103.129 83.4092 103.129 83.3435 103.139H83.1558C82.9038 103.122 82.6535 103.192 82.4467 103.338C82.3598 103.417 82.292 103.514 82.2486 103.623C82.2052 103.733 82.1873 103.85 82.1964 103.968C82.1807 104.072 82.1807 104.178 82.1964 104.282C82.2224 104.382 82.2686 104.474 82.332 104.555H82.2486C82.1234 104.555 82.0713 104.555 82.0713 104.66V104.828C82.0713 104.817 82.1234 104.901 82.2486 104.901Z" fill="white"/>
<path d="M87.3592 112.244C87.3907 112.245 87.4218 112.238 87.4506 112.226C87.4794 112.213 87.5051 112.194 87.5261 112.171C87.5491 112.154 87.5677 112.132 87.5804 112.106C87.5931 112.081 87.5995 112.052 87.5991 112.024V111.468C87.6001 111.439 87.5951 111.41 87.5843 111.383C87.5735 111.356 87.5572 111.331 87.5365 111.311C87.4873 111.268 87.424 111.246 87.3592 111.248H86.963C86.9014 111.246 86.8416 111.269 86.7961 111.311C86.7754 111.331 86.7591 111.356 86.7483 111.383C86.7375 111.41 86.7325 111.439 86.7335 111.468V112.024C86.7362 112.083 86.7616 112.139 86.8043 112.18C86.847 112.221 86.9039 112.244 86.963 112.244H87.3592Z" fill="white"/>
<path d="M89.205 112.16C89.2443 112.122 89.2668 112.069 89.2676 112.013V111.457C89.2686 111.428 89.2636 111.399 89.2528 111.372C89.242 111.345 89.2258 111.32 89.205 111.3C89.1585 111.26 89.0994 111.238 89.0382 111.237H88.6106C88.549 111.236 88.4893 111.258 88.4438 111.3C88.4187 111.318 88.3981 111.342 88.3836 111.369C88.3691 111.396 88.3612 111.426 88.3604 111.457V112.013C88.3627 112.043 88.3714 112.071 88.3858 112.096C88.4002 112.122 88.42 112.143 88.4438 112.16C88.4632 112.186 88.4884 112.207 88.5174 112.222C88.5463 112.237 88.5782 112.244 88.6106 112.244H89.0069C89.0443 112.249 89.0822 112.243 89.1169 112.228C89.1516 112.214 89.182 112.19 89.205 112.16Z" fill="white"/>
<path d="M99.7165 109.286C99.7165 109.171 99.7165 109.066 99.7165 108.961V102.803C99.718 102.778 99.7142 102.753 99.7053 102.729C99.6964 102.705 99.6826 102.684 99.6649 102.666C99.6472 102.648 99.6258 102.634 99.6024 102.626C99.5789 102.617 99.5538 102.613 99.5288 102.614H99.0387C98.9949 102.598 98.9469 102.598 98.9031 102.614C98.8839 102.631 98.8685 102.652 98.8577 102.676C98.847 102.699 98.8411 102.725 98.8405 102.751V109.045C98.8405 109.223 98.8405 109.328 98.7675 109.37C98.6477 109.415 98.5195 109.433 98.3921 109.422H97.2137C97.0714 109.411 96.9285 109.411 96.7862 109.422C96.6677 109.432 96.5516 109.46 96.442 109.506C96.3421 109.557 96.2546 109.629 96.1861 109.718C96.1175 109.807 96.0696 109.91 96.0457 110.02C96.0481 110.059 96.0481 110.097 96.0457 110.136C96.0457 110.188 96.0457 110.251 96.0457 110.304V110.471C96.0417 110.513 96.0417 110.555 96.0457 110.597C96.066 110.984 95.9793 111.369 95.7955 111.709C95.5481 111.942 95.2219 112.072 94.883 112.072C94.5441 112.072 94.2179 111.942 93.9705 111.709C93.7809 111.36 93.6941 110.963 93.7202 110.566V110.314H94.1478H94.6066H95.0446C95.1721 110.304 95.298 110.279 95.42 110.241C95.6527 110.18 95.8711 110.074 96.0627 109.928C96.2542 109.782 96.4151 109.6 96.5359 109.391C96.7863 108.917 96.912 108.386 96.9009 107.849V107.691C96.9261 107.4 96.8815 107.107 96.7708 106.837C96.6601 106.567 96.4866 106.328 96.2647 106.139C95.7647 105.789 95.1623 105.62 94.5545 105.656H93.7932C93.5569 105.676 93.323 105.718 93.0946 105.782C93.0311 105.768 92.9645 105.777 92.9071 105.808C92.8496 105.838 92.8051 105.889 92.7817 105.95V109.38H89.1318H88.892C88.8153 109.369 88.7412 109.344 88.673 109.307C88.6168 109.283 88.5721 109.238 88.5478 109.181V106.359C88.5432 106.308 88.5208 106.26 88.4846 106.224C88.4484 106.187 88.4007 106.165 88.3497 106.16H87.8804C87.8547 106.161 87.8295 106.166 87.8061 106.177C87.7828 106.188 87.762 106.204 87.7448 106.223C87.7347 106.244 87.7294 106.267 87.7294 106.291C87.7294 106.315 87.7347 106.338 87.7448 106.359V109.045C87.7474 109.084 87.7412 109.123 87.7268 109.159C87.7123 109.195 87.69 109.228 87.6614 109.255C87.6096 109.308 87.545 109.348 87.4737 109.37H87.2443H84.1158H83.876C83.803 109.357 83.7327 109.332 83.6674 109.296C83.6113 109.272 83.5665 109.227 83.5423 109.171V106.349C83.5376 106.297 83.5152 106.249 83.479 106.213C83.4428 106.177 83.3951 106.154 83.3441 106.149H82.8748C82.8239 106.154 82.7761 106.177 82.7399 106.213C82.7037 106.249 82.6814 106.297 82.6767 106.349V109.034C82.6813 109.072 82.6771 109.111 82.6645 109.148C82.6518 109.184 82.631 109.217 82.6037 109.244C82.5519 109.298 82.4873 109.338 82.416 109.359H82.1762H76.962C76.7832 109.368 76.6057 109.324 76.451 109.234C76.3155 109.16 76.2529 108.982 76.2529 108.709V105.824C76.2651 105.783 76.2651 105.739 76.2529 105.698C76.2529 105.698 76.2529 105.698 76.1278 105.625H75.867H75.5438C75.4293 105.615 75.3141 105.615 75.1996 105.625H74.8972C74.5458 105.623 74.1955 105.666 73.8544 105.751C73.5499 105.828 73.263 105.963 73.0097 106.149C72.7738 106.335 72.5874 106.576 72.4674 106.852C72.3285 107.184 72.261 107.541 72.2693 107.901V108.048C72.2324 108.603 72.4162 109.15 72.7803 109.569C72.9761 109.751 73.2063 109.891 73.4572 109.981C73.708 110.071 73.9743 110.109 74.2402 110.094H74.3341C74.6012 110.096 74.8676 110.065 75.1266 109.999C75.3346 109.953 75.5215 109.838 75.6585 109.674C75.7564 109.882 75.9272 110.047 76.1382 110.136C76.3845 110.23 76.6464 110.276 76.9099 110.272H81.9154C82.1295 110.271 82.3429 110.247 82.5516 110.199C82.7759 110.16 82.9873 110.067 83.1668 109.926C83.3364 110.07 83.542 110.164 83.7612 110.199C83.984 110.247 84.2112 110.272 84.4391 110.272H87.0253C87.2428 110.271 87.4596 110.247 87.6718 110.199C87.8931 110.16 88.1011 110.066 88.2767 109.926C88.4462 110.07 88.6518 110.164 88.8711 110.199C89.0938 110.247 89.321 110.272 89.5489 110.272H92.7817V110.608C92.7788 110.925 92.8102 111.241 92.8756 111.552C92.9329 111.808 93.047 112.049 93.2093 112.255C93.3743 112.458 93.5903 112.614 93.835 112.706C94.1545 112.811 94.4895 112.861 94.8256 112.853C95.0983 112.881 95.3738 112.845 95.6306 112.749C95.8874 112.652 96.1187 112.498 96.3065 112.297C96.6341 111.82 96.8021 111.25 96.7862 110.671V110.293H97.0364H98.4547H98.8301H99.1742C99.2505 110.302 99.3274 110.302 99.4036 110.293C99.4719 110.271 99.5308 110.227 99.5705 110.167C99.5948 110.113 99.6157 110.056 99.6331 109.999C99.6331 109.915 99.6331 109.821 99.6331 109.716C99.7061 109.496 99.7165 109.391 99.7165 109.286ZM93.6681 106.412H94.0539H94.5128C94.7196 106.41 94.9259 106.431 95.1281 106.475C95.2958 106.506 95.4533 106.578 95.5869 106.684C95.7161 106.764 95.8265 106.872 95.9102 106.999C95.9862 107.196 96.0217 107.407 96.0145 107.618V107.807C96.0415 108.224 95.9194 108.637 95.6703 108.971C95.5193 109.121 95.3372 109.235 95.1371 109.306C94.937 109.377 94.7238 109.402 94.5128 109.38H93.6994L93.6681 106.412ZM75.2935 108.72C75.2943 108.817 75.2652 108.912 75.2101 108.992C75.1537 109.067 75.078 109.125 74.9911 109.16C74.8994 109.205 74.8006 109.234 74.6991 109.244H74.3862H74.1881C74.0158 109.261 73.8419 109.239 73.6794 109.179C73.5168 109.119 73.3699 109.023 73.2496 108.898C73.051 108.617 72.9552 108.276 72.9784 107.933V107.712C72.9716 107.479 73.0142 107.246 73.1036 107.031C73.178 106.859 73.2969 106.71 73.4477 106.601C73.6046 106.492 73.7821 106.417 73.9691 106.38C74.1925 106.337 74.4195 106.316 74.6469 106.317H74.9285H75.2935V108.72Z" fill="white"/>
<path d="M101.646 110.283H102.167C102.193 110.284 102.219 110.279 102.243 110.268C102.267 110.257 102.287 110.241 102.303 110.22C102.317 110.172 102.317 110.121 102.303 110.073V102.803C102.317 102.759 102.317 102.711 102.303 102.667C102.287 102.646 102.267 102.629 102.243 102.618C102.219 102.607 102.193 102.602 102.167 102.604H101.646C101.62 102.604 101.595 102.61 101.571 102.621C101.548 102.632 101.527 102.647 101.51 102.667C101.478 102.705 101.459 102.753 101.458 102.803V110.146C101.459 110.199 101.478 110.251 101.51 110.293C101.555 110.307 101.603 110.303 101.646 110.283Z" fill="white"/>
<path d="M58.2222 58.4404L55.1667 57.0033L55.3544 56.6256L54.979 56.4368L54.7496 56.8039L52.6952 55.8284L51.642 55.3353L51.3187 55.178L50.9954 55.0206L50.9641 55.0101L49.8691 54.4961L49.7753 54.4542L49.5354 54.3388L49.2122 54.1814L48.9515 54.0555L48.5552 53.8772L46.3653 52.8387L45.7917 52.5659L45.4788 52.4191L42.8196 51.1603L42.0688 50.8141L40.9217 50.2686L39.8997 49.7861L39.7016 49.6917L38.5441 49.7861L38.1582 49.8175L39.9727 50.7092L41.4223 51.4225L42.4234 51.9156L44.436 52.9016L45.0826 53.2268L46.3653 53.8562L48.0963 54.7059L48.1068 54.7164L48.4196 54.8633L48.7429 55.0206L49.8691 55.5766L50.182 55.734L50.4948 55.8913H50.5053L52.8725 57.0662L52.9142 57.0767L53.3626 57.1711L53.9779 57.2865L54.2595 57.5697L53.9466 58.0523L54.4993 58.3355L54.6766 57.9893L57.7321 59.4999L58.2222 58.4404Z" fill="white"/>
<path d="M50.9333 36.9881L52.2056 35.8133L52.6957 34.6384L52.8417 34.2817L52.6957 34.2607L52.4037 34.2188L51.8614 34.1453L50.5996 36.9881L50.6413 37.2504L50.9333 36.9881Z" fill="white"/>
<path d="M50.213 53.7094L50.7865 53.4366V51.454V49.9539V49.7861V49.7021V48.6951V46.7125V45.7683V44.3522V43.6598V42.999L49.9523 42.2646H49.8063L48.9512 43.0829V43.4395V45.3802V45.7683V47.5726V49.5972V49.7861V50.5413V50.8141V51.4959V53.1429V53.4366L49.8689 53.8667L50.213 53.7094Z" fill="white"/>
<path d="M45.1449 45.9047L45.3014 45.7684L46.3651 44.7508L47.2202 43.9431L48.1587 43.0514L48.9513 42.3066V42.2751L48.1066 42.2961L46.6675 42.3171H46.3651L46.0001 42.3276L44.1021 44.0899L43.2679 44.8662L43.0593 45.7684L42.4545 48.3699L42.4336 48.4853L42.517 48.4014L45.1449 45.9047Z" fill="white"/>
<path d="M52.6642 36.1384L52.1741 36.6L51.6735 37.0616L50.7559 37.9217L50.808 38.226L51.2668 38.0266L51.6318 37.8798L52.0073 37.7224L52.6955 37.4287L55.1983 36.3902L57.5342 34.1768L55.3652 33.6313L52.6955 36.1174L52.6642 36.1384Z" fill="white"/>
<path d="M54.7704 37.1665L54.0405 37.4812L52.6952 38.0372L51.6941 38.4568L51.3187 38.6141L50.9537 38.7715L50.7451 38.8554L50.8703 38.9603L50.9954 39.0652H51.131L51.4438 39.0547L52.3928 39.0442H52.6952H52.7995L53.2166 39.0337L55.7403 38.9918H56.1053L57.2941 38.5302L60.2974 37.3553L58.5976 36.3168L58.5038 36.2643L57.8676 35.8762L55.5004 36.8623L54.7704 37.1665Z" fill="white"/>
<path d="M49.0449 37.3868L49.1179 36.9776L47.9708 34.4181L47.001 34.5544L47.6997 36.2224L49.0449 37.3868Z" fill="white"/>
<path d="M59.2445 39.5058L56.7521 39.5477H56.2098L55.4069 39.5687H55.1357L54.6143 39.5792L52.6955 39.6002H52.6121L52.2054 39.6107L51.7883 39.6212H51.6318L51.7153 39.6841L51.9238 39.8729L52.1428 40.0513L52.5287 40.3869L52.6955 40.5338L52.7685 40.5967L53.0084 40.8065L53.4359 41.1737L53.9782 41.6458L55.6467 41.6143L58.5875 41.5723L61.3406 41.5304L60.0057 40.2401L59.2445 39.5058Z" fill="white"/>
<path d="M45.5628 41.7716L45.7818 41.7611H46.1989H46.3658L46.6161 41.7506L48.3889 41.7297L47.1583 41.2576L46.8663 41.1422L46.5743 41.0373L46.3658 40.9534L43.1539 39.7365L41.6209 39.7575H41.4958L40.9222 39.768L38.5654 41.8765L42.7993 41.8136L45.5628 41.7716Z" fill="white"/>
<path d="M43.2469 39.1701L43.9664 39.4428L44.6756 39.7156L46.3649 40.3555L47.0323 40.6072L47.3243 40.7226L47.6163 40.8275L48.6696 41.2261L48.8573 41.2996L48.7009 41.1632L47.9605 40.5128L47.7519 40.324L47.5329 40.1352L47.0219 39.6841L46.7091 39.4009L46.3962 39.1281L46.3649 39.1071L44.3627 37.3448L40.8588 35.8762L39.7743 36.5371L38.4395 37.3448L40.7337 38.226L43.2469 39.1701Z" fill="white"/>
<path d="M49.7962 38.0372L49.817 38.0476L49.9422 38.163L50.0152 38.226L50.0256 38.2365H50.0465H50.2342L50.2133 38.0791L50.2029 38.0476L50.182 37.9218L50.1507 37.712L50.109 37.4182L50.0256 36.9147L49.9526 36.4846H49.7545L49.6919 36.9042L49.6085 37.4078L49.5459 37.8169L49.598 37.8588L49.7962 38.0372Z" fill="white"/>
<path d="M45.3223 37.4392L45.9793 38.0162L46.3652 38.3519L47.2307 39.1176L47.5435 39.3904L47.8564 39.6736L47.9503 39.7575L48.1588 39.9359L48.3778 40.1247L48.9409 40.6282L49.3059 40.9429L49.4415 41.0583L49.5353 41.1527L49.7752 41.352L49.8795 41.4464L49.9629 41.5199H50.0255L50.1506 41.6353L50.2966 41.7507L50.6095 42.0234L51.3812 42.7053L52.5178 43.7543L53.6858 44.8033L53.9257 45.0131L54.2594 45.3173L54.5931 45.611L56.0426 46.8803L57.0854 47.8139L57.3774 48.0657L57.2836 47.7195L57.221 47.4678L56.7204 45.611L56.418 44.4886L55.9383 44.0795L55.9279 44.0585L54.8851 43.1144L53.8422 42.1912L53.4564 41.9605L53.154 41.6562L53.0392 41.5513L52.716 41.2681L52.4344 41.0373L52.1946 40.8275L51.9547 40.6177L51.7461 40.4394L51.5376 40.2611L51.329 40.0722L51.0683 39.8624L50.8493 39.6631L50.7659 39.6002L50.6199 39.4743L50.453 39.317L50.3383 39.2225L50.161 39.0757L49.9525 38.8973L49.8273 38.8134L49.7022 38.7085L49.6083 38.6246L49.5041 38.5407L49.3998 38.4463L49.2329 38.3099L48.9827 38.0372L48.211 37.3868L47.7417 36.9672L47.262 36.558L47.0534 36.3797L46.3964 35.8133L44.1335 33.8621L42.0479 34.481L44.7488 36.8623L45.3223 37.4392Z" fill="white"/>
<path d="M48.0861 55.3353L47.6794 55.5241L46.3654 56.1431L44.9785 56.8039L44.749 56.4368L44.3736 56.6256L44.5613 57.0033L41.5059 58.4404L41.996 59.4999L45.0515 57.9893L45.2288 58.3355L45.7919 58.0523L45.479 57.5697L45.7502 57.2865L46.3654 57.1711L46.8138 57.0767L46.8556 57.0662L49.2332 55.8913L48.0861 55.3353Z" fill="white"/>
<path d="M51.6318 54.7059L52.6954 54.1919L54.51 53.2898L56.6999 52.2093L61.5699 49.8175L61.1841 49.7861L60.0265 49.6917L59.8284 49.7861L56.2723 51.4645L53.4776 52.7862L52.6954 53.1534L50.7871 54.0555L50.5264 54.1814L50.7871 54.3073L51.6318 54.7059Z" fill="white"/>
<path d="M31.6402 44.8767H25.6231C25.6231 45.4432 25.5605 46.0201 25.5605 46.5971C25.5607 47.9468 25.6723 49.2942 25.8943 50.6253H32.0052C31.7068 49.3036 31.5564 47.9524 31.5568 46.5971C31.5568 46.0201 31.5881 45.4432 31.6402 44.8767Z" fill="white"/>
<path d="M75.2513 46.5971C75.2473 47.9458 75.1427 49.2923 74.9385 50.6253H82.9891C83.1777 49.1644 83.2717 47.6926 83.2707 46.2194C83.2707 45.7684 83.2707 45.3278 83.2707 44.8767H75.1888C75.2305 45.4432 75.2513 46.0201 75.2513 46.5971Z" fill="white"/>
<path d="M15.8106 44.8767C15.8106 45.3278 15.8106 45.7684 15.8106 46.2194C15.8095 47.6926 15.9036 49.1644 16.0921 50.6253H24.6746C24.4704 49.2923 24.3658 47.9458 24.3617 46.5971C24.3617 46.0201 24.3617 45.4432 24.4243 44.8767H15.8106Z" fill="white"/>
<path d="M67.7539 50.6253H73.6459C73.8783 49.2951 74.0004 47.9477 74.0109 46.5971C74.0109 46.0201 74.0109 45.4432 73.9483 44.8767H68.1606C68.1606 45.4432 68.2336 46.0201 68.2336 46.5971C68.2186 47.9533 68.0577 49.3039 67.7539 50.6253Z" fill="white"/>
<path d="M96.0036 50.6253V44.8767H86.6181C86.6181 45.3278 86.6181 45.7684 86.6181 46.2194C86.6157 47.6919 86.5286 49.163 86.3574 50.6253H96.0036Z" fill="white"/>
<path d="M12.4009 46.2194C12.4009 45.7684 12.4009 45.3278 12.4009 44.8767H2.61914V50.6253H12.6616C12.4904 49.163 12.4033 47.6919 12.4009 46.2194Z" fill="white"/>
<path d="M25.2064 39.9149C25.928 37.2176 27.0872 34.6586 28.6373 32.341L20.7639 28.4492C19.3102 30.8197 18.1576 33.3642 17.333 36.023L25.2064 39.9149Z" fill="white"/>
<path d="M29.7535 32.8865C28.186 35.1967 27.0287 37.7628 26.333 40.4709L31.8704 43.2088C32.381 40.443 33.5194 37.8331 35.197 35.5825L29.7535 32.8865Z" fill="white"/>
<path d="M73.9477 54.7269C73.0681 57.374 71.7571 59.8555 70.0684 62.07L77.2222 65.6051C78.8092 63.3281 80.1088 60.8615 81.091 58.2621L73.9477 54.7269Z" fill="white"/>
<path d="M83.7298 60.7587C82.7848 62.993 81.6252 65.1291 80.2676 67.1367L96.4835 75.1617L100.133 67.6927L84.126 59.7936C84.0009 60.0979 83.8653 60.423 83.7298 60.7587Z" fill="white"/>
<path d="M15.3203 31.6906C15.9978 30.0544 16.7925 28.4697 17.6979 26.9491L7.57208 21.9348L3.93262 29.3723L14.267 34.481C14.5695 33.5683 14.9344 32.6137 15.3203 31.6906Z" fill="white"/>
<path d="M68.9533 61.5245C70.6566 59.3195 71.969 56.8354 72.8326 54.1814L67.5559 51.5694C66.8071 54.2927 65.4439 56.8056 63.5723 58.9125L68.9533 61.5245Z" fill="white"/>
<path d="M59.5781 70.2837L63.3949 76.5778L69.5684 72.7594L65.8038 66.5912C63.9156 68.1164 61.8188 69.36 59.5781 70.2837Z" fill="white"/>
<path d="M58.9312 69.1718C61.1941 68.2554 63.3042 66.996 65.1882 65.4373L62.0597 60.3811C60.238 62.012 58.1107 63.2603 55.8027 64.0526L58.9312 69.1718Z" fill="white"/>
<path d="M39.3781 23.2041L35.2068 16.3226L29.002 20.141L33.2567 27.1169C35.1003 25.5244 37.1618 24.2066 39.3781 23.2041Z" fill="white"/>
<path d="M40.0247 24.2636C37.8004 25.2556 35.7369 26.5781 33.9033 28.1869L37.0944 33.432C38.8428 31.7169 40.913 30.369 43.1845 29.4667L40.0247 24.2636Z" fill="white"/>
<path d="M45.6982 83.3649V92.5123H52.9146V83.4069C51.7988 83.5118 50.6621 83.5642 49.5254 83.5642C48.2471 83.5664 46.9695 83.4999 45.6982 83.3649Z" fill="white"/>
<path d="M52.9143 28.3967V22.4279C51.877 22.2921 50.8319 22.2255 49.7858 22.2286C48.4124 22.2274 47.0414 22.3432 45.6875 22.5747V28.638C47.055 28.3159 48.4543 28.1505 49.8588 28.145C50.8824 28.1466 51.9041 28.2308 52.9143 28.3967Z" fill="white"/>
<path d="M45.6982 71.8782V79.9556C46.9693 80.0941 48.2469 80.1641 49.5254 80.1654C50.6573 80.1676 51.7885 80.1116 52.9146 79.9976V72.0146C50.5145 72.3059 48.0858 72.26 45.6982 71.8782Z" fill="white"/>
<path d="M45.6982 64.5562V70.6299C47.0528 70.8563 48.4234 70.972 49.7966 70.9761C50.8428 70.9756 51.8879 70.9055 52.925 70.7663V64.7869C51.9295 64.9593 50.9214 65.047 49.9113 65.0492C48.4928 65.0468 47.0793 64.8814 45.6982 64.5562Z" fill="white"/>
<path d="M52.9146 21.1796V12.4518C51.7885 12.3378 50.6573 12.2818 49.5254 12.2839C48.2469 12.2853 46.9693 12.3553 45.6982 12.4937V21.3159C47.0537 21.0983 48.4239 20.9861 49.7966 20.9802C50.839 20.9829 51.8802 21.0495 52.9146 21.1796Z" fill="white"/>
<path d="M52.9146 9.04248V0H45.6982V9.07395C46.9601 8.94806 48.2427 8.88512 49.5254 8.88512C50.8081 8.88512 51.7988 8.93757 52.9146 9.04248Z" fill="white"/>
<path d="M64.3747 27.1799C62.4475 25.7073 60.3098 24.5366 58.0343 23.7076L54.9893 28.8793C57.3263 29.5536 59.5041 30.6953 61.3922 32.2361L64.3747 27.1799Z" fill="white"/>
<path d="M36.8756 59.5733L33.7471 64.9023C35.5601 66.5161 37.6022 67.849 39.8059 68.8571L42.9344 63.612C40.6681 62.684 38.6084 61.3111 36.8756 59.5733Z" fill="white"/>
<path d="M28.8877 73.1161C30.7924 74.6018 32.8519 75.8751 35.0299 76.9135L39.2013 69.9271C37.0023 68.9088 34.9587 67.5807 33.132 65.9828L28.8877 73.1161Z" fill="white"/>
<path d="M71.0695 15.8401L75.5119 8.29767L69.3175 4.59467L64.8125 12.221L65.4382 12.5042C67.4113 13.4434 69.296 14.5599 71.0695 15.8401Z" fill="white"/>
<path d="M22.3701 84.1517L28.5749 87.8547L33.3407 79.8402C31.173 78.7867 29.1154 77.5181 27.1984 76.0533L22.3701 84.1517Z" fill="white"/>
<path d="M69.339 18.7668C67.3911 17.334 65.293 16.1204 63.0821 15.1477L58.6709 22.6272C60.9389 23.4775 63.074 24.6503 65.0113 26.1099L69.339 18.7668Z" fill="white"/>
<path d="M65.4074 36.7154L69.8394 32.9599C69.2937 32.1894 68.7053 31.4504 68.077 30.7465C67.7329 30.3689 67.3783 30.0017 67.0342 29.6975L62.6543 33.3586C63.6987 34.3659 64.6226 35.4925 65.4074 36.7154Z" fill="white"/>
<path d="M67.9932 28.8478C68.3477 29.1905 68.6953 29.5402 69.036 29.8968C69.6721 30.6206 70.2769 31.3759 70.8296 32.1417L76.4192 27.4212L73.6036 24.1273L67.9932 28.8478Z" fill="white"/>
<path d="M74.4275 39.8624L81.9672 36.537C81.4315 34.9 80.8012 33.2957 80.0796 31.7326L72.5713 35.037C73.3145 36.5942 73.9351 38.2076 74.4275 39.8624Z" fill="white"/>
<path d="M27.083 55.0206C27.7509 56.6202 28.5315 58.1696 29.4189 59.6573L34.8834 57.255C33.8816 55.8307 33.088 54.2693 32.5266 52.6184L27.083 55.0206Z" fill="white"/>
<path d="M73.2809 40.345C72.8074 38.6867 72.1933 37.0723 71.4455 35.5195L66.0332 37.9008C66.8465 39.4297 67.4465 41.064 67.8164 42.7577L73.2809 40.345Z" fill="white"/>
<path d="M3.35938 65.4793L5.3616 70.2837L17.4793 64.9338C16.7284 63.4966 16.0506 62.1854 15.2059 60.2552L3.35938 65.4793Z" fill="white"/>
<path d="M85.0542 35.1733L99.9666 28.638L97.7871 23.907L83.1875 30.3479C83.3068 30.5643 83.4113 30.7886 83.5003 31.0192C83.9383 32.0892 84.4389 33.3795 85.0542 35.1733Z" fill="white"/>
<path d="M25.9672 55.5137L18.292 58.902C19.1263 60.8112 19.8145 62.1224 20.5862 63.5596L28.2823 60.1608C27.4128 58.663 26.6395 57.1108 25.9672 55.5137Z" fill="white"/>
</svg>
