<svg width="122" height="77" viewBox="0 0 122 77" fill="none" xmlns="http://www.w3.org/2000/svg">
<path d="M25.3257 49.2936C24.8545 48.3664 24.1705 47.8952 23.2585 47.8952C22.8785 47.8952 22.5289 47.9864 22.2097 48.1536C21.8753 48.3208 21.6017 48.5488 21.3585 48.8528C21.1153 49.1568 20.9329 49.5064 20.7961 49.9016C20.6593 50.312 20.5833 50.7376 20.5833 51.1936C20.5833 51.9992 20.7961 52.6224 21.2369 53.0784C21.6777 53.5344 22.2705 53.7472 23.0457 53.7472C23.3953 53.7472 23.7297 53.7016 24.0337 53.5952C24.3377 53.4888 24.6113 53.3368 24.8545 53.1544V54.3856C24.8545 54.6136 24.4745 54.796 23.6993 54.9176C22.9241 55.0392 9.77615 55.1 8.25615 55.1H7.84575C7.26815 55.1 6.85775 54.9936 6.59935 54.7808C6.34095 54.568 6.21935 54.2032 6.23455 53.7016L6.31055 47.7736L4.92735 48.0168V49.0808C3.51376 49.3696 2.41936 49.8408 1.62896 50.464C0.838559 51.0872 0.443359 51.8624 0.443359 52.7592C0.443359 53.1392 0.519359 53.4736 0.671359 53.7624C0.823359 54.0664 1.02096 54.3096 1.27936 54.5072C1.53776 54.7048 1.84176 54.8568 2.17616 54.9632C2.52576 55.0696 2.89056 55.1152 3.28576 55.1152C3.95456 55.1152 4.53215 54.9784 5.01855 54.6896C5.21615 56.012 6.15855 56.6656 7.83055 56.6656H8.24095C8.86415 56.6656 21.4041 56.6504 21.8753 56.6352C22.3465 56.62 22.7569 56.5895 23.1217 56.5439C23.4865 56.4983 23.7905 56.4376 24.0641 56.3768C24.3225 56.316 24.5657 56.2248 24.7937 56.1184C25.2497 55.9056 25.5689 55.6016 25.7513 55.2064C25.9337 54.8112 26.0249 54.2184 26.0249 53.4432C26.0249 51.604 25.7969 50.2208 25.3257 49.2936ZM24.0793 52.288C23.7905 52.364 23.5017 52.4096 23.1977 52.4096C22.7113 52.4096 22.3313 52.3032 22.0729 52.0752C21.8145 51.8624 21.6777 51.528 21.6777 51.1024C21.6777 50.616 21.8297 50.2056 22.1185 49.8712C22.4073 49.5368 22.7721 49.3696 23.1977 49.3696C23.6689 49.3696 24.0185 49.5672 24.2769 49.9776C24.5353 50.388 24.6873 51.0416 24.7785 51.9536C24.5961 52.0904 24.3681 52.1968 24.0793 52.288ZM3.49855 53.5648C3.25536 53.5648 3.01216 53.5496 2.78416 53.504C2.55616 53.4584 2.35856 53.3976 2.17616 53.3064C1.99376 53.2152 1.85696 53.1088 1.76576 52.9568C1.65936 52.82 1.61376 52.6376 1.61376 52.4248C1.61376 52.1664 1.70496 51.9384 1.88736 51.7104C2.06976 51.4976 2.31296 51.3 2.61696 51.1328C2.92096 50.9656 3.28576 50.8288 3.68096 50.7072C4.07615 50.6008 4.48655 50.5096 4.92735 50.464L4.95775 53.276C4.54735 53.4736 4.06095 53.5648 3.49855 53.5648Z" fill="white"/>
<path d="M46.6814 47.2416L45.6022 46.1472L44.5078 47.2416L45.6022 48.3512L46.6814 47.2416Z" fill="white"/>
<path d="M49.2351 47.2416L48.1559 46.1472L47.0615 47.2416L48.1559 48.3512L49.2351 47.2416Z" fill="white"/>
<path d="M67.1101 46.968L66.0157 45.8584L64.9365 46.968L66.0157 48.0624L67.1101 46.968Z" fill="white"/>
<path d="M67.2931 50.3273L68.3875 49.2177L67.2931 48.1233L66.2139 49.2177L67.2931 50.3273Z" fill="white"/>
<path d="M65.8338 49.2177L64.7394 48.1233L63.6602 49.2177L64.7394 50.3273L65.8338 49.2177Z" fill="white"/>
<path d="M82.3708 45.5999L82.4164 54.1727C82.4164 54.3399 82.3556 54.4767 82.234 54.5983C82.1124 54.7199 81.9604 54.8111 81.7628 54.8719C81.5652 54.9479 81.3524 54.9935 81.1092 55.0239C80.866 55.0543 68.63 55.0695 68.3716 55.0695C66.9884 55.0695 66.2892 54.7047 66.2892 53.9903C66.2892 53.8991 66.3196 53.6407 66.3652 53.2303C66.4108 52.8199 66.4716 52.3791 66.5172 51.8775L65.3316 51.7407C65.3012 51.8927 65.286 52.0751 65.2556 52.2727C65.2252 52.4703 65.21 52.6679 65.1644 52.8655C65.134 53.0631 65.0884 53.2607 65.058 53.4583C65.0276 53.6559 64.9972 53.8079 64.9668 53.9447C64.8756 54.3551 64.6476 54.6439 64.2828 54.8263C63.918 55.0087 51.3629 55.0847 50.5877 55.0847C50.2381 55.0847 49.9037 55.0847 49.5845 55.0695C49.2653 55.0543 48.9765 55.0391 48.7029 55.0239C49.3109 54.4463 49.6149 53.7471 49.6149 52.8807C49.6149 52.4551 49.5389 52.0447 49.4021 51.6647C49.2501 51.2847 49.0525 50.9503 48.8093 50.6767C48.5661 50.4031 48.2621 50.1751 47.9277 50.0079C47.5933 49.8407 47.2437 49.7647 46.8637 49.7647C46.4837 49.7647 46.1341 49.8407 45.7997 50.0079C45.4653 50.1751 45.1765 50.3879 44.9181 50.6767C44.6597 50.9503 44.4621 51.2847 44.3253 51.6647C44.1733 52.0447 44.1125 52.4551 44.1125 52.8807C44.1125 53.7471 44.4165 54.4615 45.0245 55.0239C44.7357 55.0543 44.4469 55.0695 44.1277 55.0695C43.8085 55.0847 31.4813 55.0847 31.1469 55.0847C30.5693 55.0847 30.1589 54.9783 29.9157 54.7655C29.6573 54.5527 29.5357 54.1879 29.5357 53.6863L29.6117 45.3719L28.2285 45.6152L28.3045 54.2031C28.3349 55.8295 29.2773 56.6503 31.1621 56.6503C31.8157 56.6503 44.4621 56.6047 45.1005 56.4983C45.7237 56.3919 46.3317 56.2399 46.8789 56.0423C47.4413 56.2399 48.0341 56.3919 48.6573 56.4983C49.2957 56.6047 49.9341 56.6503 50.5877 56.6503C51.3173 56.6503 63.9636 56.5439 64.4956 56.3463C65.0276 56.1487 65.4076 55.8599 65.6356 55.4799C66.0916 56.2551 67.0036 56.6503 68.3716 56.6503C68.8124 56.6503 81.2004 56.6047 81.5956 56.5135C81.9908 56.4223 82.3404 56.2855 82.6444 56.0727C82.9484 55.8751 83.2068 55.6015 83.3892 55.2671C83.5868 54.9327 83.678 54.5223 83.678 54.0359L83.754 45.3568L82.3708 45.5999ZM46.8789 54.6439C45.7997 54.2943 45.2677 53.7167 45.2677 52.9111C45.2677 52.6831 45.3133 52.4551 45.3893 52.2575C45.4653 52.0599 45.5869 51.8775 45.7237 51.7255C45.8757 51.5735 46.0429 51.4519 46.2405 51.3759C46.4381 51.2999 46.6509 51.2543 46.8789 51.2543C47.1069 51.2543 47.3045 51.2999 47.5021 51.3759C47.6997 51.4519 47.8669 51.5735 48.0189 51.7255C48.1709 51.8775 48.2773 52.0599 48.3685 52.2575C48.4445 52.4551 48.4901 52.6679 48.4901 52.9111C48.4901 53.7167 47.9429 54.2943 46.8789 54.6439Z" fill="white"/>
<path d="M86.0502 56.6352L85.959 45.5999L87.3422 45.3568L87.251 56.6352H86.0502Z" fill="white"/>
<path d="M98.4676 54.0209C98.4676 54.8569 98.194 55.5257 97.662 56.0273C97.13 56.5289 96.3852 56.7721 95.458 56.7721C94.47 56.7721 93.71 56.5289 93.1932 56.0425C92.6764 55.5561 92.418 54.8569 92.418 53.9449C92.418 53.3673 92.494 52.8353 92.6612 52.3337C92.8284 51.8321 93.0412 51.3761 93.3148 50.9961C93.5884 50.6161 93.9076 50.3121 94.2724 50.0841C94.6372 49.8561 95.0324 49.7497 95.4428 49.7497C95.8684 49.7497 96.2484 49.8561 96.6284 50.0841C96.9932 50.3121 97.3124 50.6161 97.586 50.9961C97.8596 51.3761 98.0724 51.8321 98.2244 52.3489C98.3916 52.8657 98.4676 53.4281 98.4676 54.0209ZM94.166 48.3513L93.0868 47.2417L94.166 46.1321L95.2452 47.2417L94.166 48.3513ZM97.282 54.1729C97.282 53.7625 97.2364 53.3825 97.1452 53.0481C97.054 52.6985 96.9324 52.4097 96.7652 52.1513C96.598 51.9081 96.4156 51.7105 96.1876 51.5585C95.9596 51.4217 95.7164 51.3457 95.458 51.3457C95.2148 51.3457 94.9716 51.4065 94.7436 51.5281C94.5156 51.6497 94.318 51.8169 94.1508 52.0297C93.9836 52.2425 93.862 52.4857 93.7556 52.7593C93.6644 53.0329 93.6036 53.3369 93.6036 53.6561C93.6036 54.1577 93.7556 54.5377 94.0748 54.7961C94.394 55.0545 94.85 55.1913 95.4428 55.1913C95.686 55.1913 95.914 55.1609 96.142 55.1153C96.37 55.0697 96.5524 54.9937 96.7196 54.8873C96.8868 54.7961 97.0084 54.6745 97.1148 54.5529C97.2364 54.4465 97.282 54.3097 97.282 54.1729ZM96.7196 48.3513L95.6404 47.2417L96.7196 46.1321L97.7988 47.2417L96.7196 48.3513Z" fill="white"/>
<path d="M97.9824 58.7633C98.6208 58.5353 99.1984 58.2617 99.7304 57.9577C100.262 57.6537 100.734 57.3345 101.129 57.0001C101.524 56.6657 101.828 56.3313 102.041 55.9969C102.269 55.6625 102.375 55.3433 102.375 55.0393C102.375 54.8569 102.33 54.6137 102.254 54.3249C102.178 54.0361 102.056 53.7169 101.919 53.3673C101.767 53.0177 101.6 52.6681 101.402 52.2881C101.205 51.9081 100.992 51.5585 100.764 51.2089L102.026 50.5097C102.512 51.1633 102.907 51.8929 103.181 52.6833C103.454 53.4737 103.606 54.2185 103.606 54.9025C103.606 55.9969 103.181 57.0001 102.345 57.9273C101.509 58.8393 100.323 59.5841 98.788 60.1465L97.9824 58.7633Z" fill="white"/>
<path d="M106.023 56.6352L105.932 45.5999L107.315 45.3568L107.224 56.6352H106.023Z" fill="white"/>
<path d="M108.181 58.7631C108.804 58.5351 109.397 58.2615 109.929 57.9575C110.461 57.6535 110.932 57.3343 111.327 56.9999C111.722 56.6655 112.026 56.3311 112.239 55.9967C112.467 55.6623 112.573 55.3431 112.573 55.0391C112.573 54.8567 112.528 54.6134 112.452 54.3246C112.376 54.0358 112.254 53.7166 112.117 53.367C111.965 53.0174 111.798 52.6678 111.601 52.2878C111.403 51.9078 111.19 51.5582 110.962 51.2086L112.224 50.5094C112.71 51.163 113.105 51.8926 113.379 52.683C113.653 53.4734 113.805 54.2182 113.805 54.9022C113.805 55.9967 113.379 56.9999 112.543 57.9271C111.707 58.8391 110.521 59.5839 108.986 60.1463L108.181 58.7631ZM111.388 49.0958L110.309 47.9862L111.388 46.8766L112.467 47.9862L111.388 49.0958Z" fill="white"/>
<path d="M116.101 58.7024C118.624 58.3528 120.068 57.4408 120.463 55.9512C120.235 56.1336 119.961 56.2552 119.642 56.3616C119.338 56.4528 119.004 56.4984 118.654 56.4984C117.879 56.4984 117.271 56.2248 116.8 55.6928C116.329 55.1608 116.101 54.4463 116.101 53.5799C116.101 53.0935 116.177 52.6375 116.313 52.2271C116.45 51.8167 116.648 51.4519 116.891 51.1479C117.134 50.8439 117.423 50.6007 117.773 50.4335C118.107 50.2663 118.472 50.1751 118.867 50.1751C119.779 50.1751 120.493 50.5855 120.995 51.4063C121.497 52.2271 121.755 53.3823 121.755 54.8872C121.755 55.5864 121.633 56.24 121.39 56.8328C121.147 57.4256 120.813 57.9576 120.372 58.4136C119.931 58.8696 119.399 59.2496 118.791 59.5384C118.168 59.8424 117.484 60.04 116.724 60.1464L116.101 58.7024ZM118.882 55.0848C119.201 55.0848 119.521 55.0391 119.84 54.9479C120.144 54.8567 120.387 54.7351 120.569 54.5983C120.524 53.6711 120.357 52.9567 120.053 52.4551C119.749 51.9535 119.338 51.6951 118.821 51.6951C118.365 51.6951 118.001 51.8623 117.712 52.1967C117.423 52.5311 117.286 52.9719 117.286 53.5191C117.286 54.0056 117.423 54.3856 117.712 54.6592C117.985 54.948 118.381 55.0848 118.882 55.0848Z" fill="white"/>
<path d="M0.914559 62.8673H2.34336L5.47456 68.2177L8.60576 62.8673H9.98896L10.4754 73.1577H9.01616L8.68176 65.2537L5.77856 70.1177H5.03376L2.17616 65.3145L1.82656 73.1577H0.443359L0.914559 62.8673Z" fill="white"/>
<path d="M12.9983 62.8216L14.0927 63.916L12.9983 65.0256L11.8887 63.916L12.9983 62.8216ZM12.3143 65.9832H13.6975V73.1576H12.3143V65.9832Z" fill="white"/>
<path d="M15.6734 73.1577V66.7281V66.4393C15.6734 66.3481 15.6734 66.1961 15.6582 65.9833H16.9806L17.0262 67.0625C17.1174 66.9409 17.239 66.8041 17.3606 66.6521C17.4974 66.5001 17.6646 66.3633 17.847 66.2417C18.0446 66.1201 18.2726 66.0137 18.531 65.9377C18.7894 65.8617 19.0934 65.8161 19.4126 65.8161C20.355 65.8161 21.039 66.0897 21.495 66.6369C21.951 67.1841 22.179 67.9289 22.179 68.8561V73.1577H20.7958V68.9625C20.7958 68.2937 20.659 67.8073 20.3702 67.4881C20.0814 67.1689 19.671 67.0169 19.1542 67.0169C18.759 67.0169 18.4246 67.0929 18.151 67.2601C17.8774 67.4273 17.6646 67.6401 17.5126 67.8985C17.3454 68.1569 17.239 68.4609 17.163 68.7953C17.087 69.1297 17.0566 69.4793 17.0566 69.8289V73.1577H15.6734Z" fill="white"/>
<path d="M24.5813 62.8216L25.6757 63.916L24.5813 65.0256L23.4717 63.916L24.5813 62.8216ZM23.8821 65.9832H25.2653V73.1576H23.8821V65.9832Z" fill="white"/>
<path d="M27.5905 71.3488C27.8489 71.6072 28.1529 71.8048 28.5177 71.972C28.8825 72.124 29.2929 72.2 29.7641 72.2C30.2201 72.2 30.6153 72.124 30.9193 71.972C31.2233 71.82 31.3753 71.592 31.3753 71.2728C31.3753 71.1056 31.3449 70.9688 31.2689 70.8472C31.1929 70.7256 31.0865 70.6192 30.9345 70.528C30.7825 70.4368 30.5697 70.3456 30.2961 70.2696C30.0377 70.1936 29.7033 70.1024 29.3233 70.0112C29.0497 69.9504 28.7761 69.8744 28.5025 69.768C28.2289 69.6616 27.9857 69.5248 27.7729 69.3576C27.5601 69.1904 27.3777 68.9776 27.2409 68.7344C27.1041 68.4912 27.0433 68.2024 27.0433 67.868C27.0433 67.5184 27.1193 67.2144 27.2865 66.956C27.4385 66.6976 27.6513 66.4696 27.9249 66.2872C28.1985 66.1048 28.4873 65.968 28.8217 65.8768C29.1561 65.7856 29.5057 65.74 29.8553 65.74C30.4633 65.74 30.9801 65.816 31.4209 65.9832C31.8617 66.1504 32.2417 66.3632 32.5761 66.652L31.8161 67.6096C31.6033 67.412 31.3297 67.2448 31.0105 67.108C30.6913 66.9712 30.3113 66.9104 29.8705 66.9104C29.4297 66.9104 29.0649 66.9864 28.8065 67.1232C28.5329 67.26 28.4113 67.5032 28.4113 67.8376C28.4113 68.1416 28.5937 68.3696 28.9433 68.5216C29.2929 68.6736 29.7641 68.8104 30.3417 68.9472C30.6761 69.0232 30.9953 69.1296 31.2841 69.236C31.5729 69.3424 31.8313 69.4792 32.0593 69.6464C32.2873 69.8136 32.4545 70.0264 32.5913 70.2696C32.7129 70.5128 32.7889 70.8168 32.7889 71.1664C32.7889 71.5312 32.7129 71.8352 32.5457 72.1088C32.3785 72.3824 32.1657 72.6104 31.8769 72.7928C31.6033 72.9752 31.2841 73.112 30.9193 73.2032C30.5545 73.2944 30.1745 73.34 29.7945 73.34C28.4417 73.34 27.4233 72.9752 26.7393 72.2456L27.5905 71.3488Z" fill="white"/>
<path d="M35.0381 67.1383H33.7461V65.9831H35.0381V63.6423H36.4213V65.9831H38.5189V67.1383H36.4213V70.6799C36.4213 71.2575 36.5125 71.6528 36.6949 71.8656C36.8773 72.0784 37.1357 72.1848 37.4549 72.1848C37.7285 72.1848 37.9413 72.1392 38.1237 72.0632C38.2909 71.9872 38.4733 71.8504 38.6557 71.6984L39.2941 72.5496C38.9901 72.8384 38.6861 73.0512 38.3669 73.1728C38.0477 73.2944 37.6829 73.3704 37.2421 73.3704C36.4821 73.3704 35.9197 73.1576 35.5701 72.7472C35.2053 72.3368 35.0381 71.6984 35.0381 70.8168V67.1383Z" fill="white"/>
<path d="M40.4654 73.1576V66.6824V66.4392C40.4654 66.348 40.4654 66.196 40.4502 65.9984H41.7726L41.8182 67.1536C41.8942 67.032 42.0158 66.8952 42.1374 66.7432C42.2742 66.5912 42.4414 66.4544 42.6238 66.3328C42.8214 66.2112 43.0342 66.1048 43.2926 66.0136C43.551 65.9224 43.8398 65.8768 44.159 65.8768C44.311 65.8768 44.463 65.892 44.5846 65.9072C44.7062 65.9224 44.8278 65.9528 44.9494 65.9984L44.6454 67.2904C44.463 67.2144 44.2198 67.184 43.931 67.184C43.627 67.184 43.3534 67.2448 43.1102 67.3512C42.8518 67.4728 42.639 67.6248 42.4566 67.8224C42.2742 68.02 42.1222 68.2632 42.0158 68.5216C41.9094 68.7952 41.8486 69.0688 41.8486 69.3728V73.1576H40.4654Z" fill="white"/>
<path d="M46.3629 74.9208C46.4693 75.012 46.5909 75.088 46.7125 75.164C46.8493 75.24 47.0165 75.2704 47.2141 75.2704C47.3813 75.2704 47.5181 75.24 47.6397 75.164C47.7613 75.088 47.8677 74.9816 47.9589 74.8296C48.0501 74.6776 48.1565 74.4952 48.2325 74.2976C48.3237 74.0848 48.4149 73.8416 48.5365 73.568L48.7189 73.112L45.5117 65.9984H47.1077L49.4181 71.4096L51.4549 65.9984H52.9597L50.0869 72.9904C49.9501 73.3248 49.8133 73.6896 49.6765 74.0848C49.5397 74.48 49.3573 74.86 49.1597 75.2096C48.9469 75.5592 48.7037 75.8632 48.3997 76.0912C48.0957 76.3344 47.7309 76.4408 47.2749 76.4408C46.9101 76.4408 46.6061 76.3952 46.3629 76.2888C46.1197 76.1976 45.9069 76.0608 45.7093 75.8936L46.3629 74.9208Z" fill="white"/>
<path d="M59.7996 73.3704C59.2524 73.3704 58.7356 73.264 58.2644 73.0664C57.8084 72.8688 57.398 72.5952 57.0636 72.2456C56.7292 71.896 56.4708 71.4856 56.2732 71.0296C56.0756 70.5736 55.9844 70.0872 55.9844 69.5552C55.9844 69.0232 56.0756 68.5368 56.2732 68.0808C56.4556 67.6248 56.7292 67.2144 57.0636 66.8648C57.398 66.5152 57.7932 66.2416 58.2644 66.044C58.7204 65.8464 59.2372 65.74 59.7996 65.74C60.3468 65.74 60.8484 65.8464 61.3196 66.044C61.7756 66.2416 62.186 66.5152 62.5204 66.8648C62.8548 67.2144 63.1284 67.6248 63.3108 68.0808C63.5084 68.5368 63.5996 69.0232 63.5996 69.5552C63.5996 70.0872 63.5084 70.5736 63.3108 71.0296C63.1132 71.4856 62.8548 71.896 62.5204 72.2456C62.186 72.5952 61.7756 72.8688 61.3196 73.0664C60.8636 73.2792 60.3468 73.3704 59.7996 73.3704ZM59.7996 72.1696C60.1644 72.1696 60.4988 72.0936 60.8028 71.9416C61.1068 71.7896 61.35 71.592 61.5628 71.3488C61.7756 71.1056 61.9276 70.832 62.034 70.5128C62.1404 70.1936 62.2012 69.8744 62.2012 69.5552C62.2012 69.236 62.1404 68.9168 62.034 68.5976C61.9276 68.2784 61.7604 68.0048 61.5628 67.7616C61.35 67.5184 61.1068 67.3208 60.8028 67.1688C60.514 67.0168 60.1796 66.9408 59.7996 66.9408C59.4348 66.9408 59.1004 67.0168 58.7964 67.1688C58.4924 67.3208 58.2492 67.5184 58.0364 67.7616C57.8236 68.0048 57.6716 68.2784 57.5652 68.5976C57.4588 68.9168 57.398 69.236 57.398 69.5704C57.398 69.9048 57.4588 70.224 57.5652 70.528C57.6716 70.832 57.8388 71.1208 58.0364 71.364C58.2492 71.6072 58.4924 71.8048 58.7964 71.9568C59.1004 72.0936 59.4348 72.1696 59.7996 72.1696Z" fill="white"/>
<path d="M65.7119 67.1384H64.4199V65.9832H65.7119V65.3904C65.7119 64.904 65.7879 64.4936 65.9247 64.1288C66.0615 63.7792 66.2439 63.4904 66.4719 63.2624C66.6999 63.0344 66.9735 62.8672 67.2623 62.7608C67.5663 62.6544 67.8703 62.5936 68.2047 62.5936C68.5847 62.5936 68.9647 62.6544 69.3295 62.776C69.6943 62.8976 70.0287 63.0952 70.3327 63.384L69.6335 64.2808C69.2535 63.9616 68.8431 63.8096 68.4175 63.8096C68.0223 63.8096 67.6879 63.9464 67.4599 64.1896C67.2167 64.448 67.0951 64.8888 67.0951 65.512V65.968H69.1471V67.1232H67.0951V73.1424H65.7119V67.1384Z" fill="white"/>
<path d="M82.5236 71.3488C82.4172 71.5312 82.2348 71.744 81.9916 71.9872C81.7484 72.2304 81.4596 72.4432 81.1252 72.656C80.7908 72.8688 80.3956 73.0512 79.9548 73.188C79.514 73.3248 79.0276 73.4008 78.4956 73.4008C77.7356 73.4008 77.0364 73.264 76.4132 73.0056C75.79 72.732 75.2428 72.3672 74.7868 71.8808C74.3308 71.4096 73.9812 70.832 73.7228 70.1784C73.4644 69.5248 73.3428 68.8104 73.3428 68.0352C73.3428 67.2904 73.4644 66.576 73.7228 65.9224C73.9812 65.2688 74.3308 64.6912 74.7868 64.1896C75.2428 63.688 75.79 63.308 76.4132 63.0192C77.0516 62.7304 77.7508 62.5936 78.526 62.5936C79.0732 62.5936 79.5596 62.6544 80.0004 62.7912C80.426 62.928 80.806 63.0952 81.1404 63.2928C81.4596 63.4904 81.7484 63.7184 81.9764 63.9464C82.2044 64.1896 82.402 64.4024 82.5388 64.6304L81.49 65.5272C81.3684 65.36 81.2164 65.1776 81.0492 64.98C80.882 64.7824 80.6692 64.6152 80.4412 64.4632C80.198 64.3112 79.9244 64.1744 79.6204 64.0832C79.3164 63.9768 78.9516 63.9312 78.5564 63.9312C77.994 63.9312 77.4772 64.0376 77.0364 64.2504C76.5956 64.4632 76.2156 64.752 75.8964 65.132C75.5772 65.4968 75.3492 65.9376 75.182 66.424C75.0148 66.9256 74.9388 67.4424 74.9388 68.0048C74.9388 68.5672 75.03 69.084 75.1972 69.5704C75.3644 70.0568 75.6076 70.4824 75.9116 70.8472C76.2156 71.212 76.5956 71.4856 77.0364 71.6984C77.4772 71.896 77.9788 72.0024 78.526 72.0024C78.982 72.0024 79.3924 71.9416 79.7268 71.82C80.0612 71.6984 80.35 71.5616 80.578 71.3944C80.806 71.2272 81.0036 71.06 81.1556 70.8928C81.3076 70.7256 81.4292 70.5888 81.5356 70.4672L82.5236 71.3488Z" fill="white"/>
<path d="M83.9673 65.9833H85.3506V70.1937C85.3506 70.8777 85.4874 71.3641 85.761 71.6681C86.0346 71.9721 86.4449 72.1241 86.9617 72.1241C87.3569 72.1241 87.6914 72.0481 87.965 71.8809C88.2234 71.7137 88.4361 71.5009 88.6033 71.2425C88.7705 70.9841 88.877 70.6801 88.953 70.3457C89.0138 70.0113 89.0593 69.6617 89.0593 69.3121V65.9833H90.4426V72.4281V72.7169C90.4426 72.8689 90.4425 73.0209 90.4577 73.1577H89.1353L89.0897 72.0937C88.9985 72.2153 88.8769 72.3521 88.7553 72.4889C88.6185 72.6257 88.4513 72.7625 88.2537 72.8841C88.0561 73.0057 87.8281 73.0969 87.5697 73.1881C87.3113 73.2641 87.0225 73.3097 86.6881 73.3097C85.7457 73.3097 85.0618 73.0361 84.621 72.5041C84.1802 71.9721 83.9521 71.2273 83.9521 70.2849V65.9833H83.9673Z" fill="white"/>
<path d="M93.7562 62.8673H92.373V73.1577H93.7562V62.8673Z" fill="white"/>
<path d="M96.2793 67.1383H94.9873V65.9831H96.2793V63.6423H97.6625V65.9831H99.7601V67.1383H97.6625V70.6799C97.6625 71.2575 97.7537 71.6528 97.9361 71.8656C98.1185 72.0784 98.3769 72.1848 98.6961 72.1848C98.9697 72.1848 99.1825 72.1392 99.3649 72.0632C99.5321 71.9872 99.7145 71.8504 99.8969 71.6984L100.535 72.5496C100.231 72.8384 99.9273 73.0512 99.6233 73.1728C99.3041 73.2944 98.9393 73.3704 98.4985 73.3704C97.7385 73.3704 97.1761 73.1576 96.8265 72.7472C96.4617 72.3368 96.2945 71.6984 96.2945 70.8168V67.1383H96.2793Z" fill="white"/>
<path d="M101.386 65.9833H102.769V70.1937C102.769 70.8777 102.906 71.3641 103.18 71.6681C103.453 71.9721 103.864 72.1241 104.381 72.1241C104.776 72.1241 105.11 72.0481 105.384 71.8809C105.642 71.7137 105.855 71.5009 106.022 71.2425C106.19 70.9841 106.296 70.6801 106.372 70.3457C106.433 70.0113 106.478 69.6617 106.478 69.3121V65.9833H107.862V72.4281V72.7169C107.862 72.8689 107.862 73.0209 107.877 73.1577H106.554L106.509 72.0937C106.418 72.2153 106.296 72.3521 106.174 72.4889C106.038 72.6257 105.87 72.7625 105.673 72.8841C105.475 73.0057 105.247 73.0969 104.989 73.1881C104.73 73.2641 104.441 73.3097 104.107 73.3097C103.165 73.3097 102.481 73.0361 102.04 72.5041C101.599 71.9721 101.371 71.2273 101.371 70.2849V65.9833H101.386Z" fill="white"/>
<path d="M109.793 73.1576V66.6824V66.4392C109.793 66.348 109.793 66.196 109.777 65.9984H111.1L111.145 67.1536C111.221 67.032 111.343 66.8952 111.465 66.7432C111.601 66.5912 111.769 66.4544 111.951 66.3328C112.149 66.2112 112.361 66.1048 112.62 66.0136C112.878 65.9224 113.167 65.8768 113.486 65.8768C113.638 65.8768 113.79 65.892 113.912 65.9072C114.033 65.9224 114.155 65.9528 114.277 65.9984L113.973 67.2904C113.79 67.2144 113.547 67.184 113.258 67.184C112.954 67.184 112.681 67.2448 112.437 67.3512C112.179 67.4728 111.966 67.6248 111.784 67.8224C111.601 68.02 111.449 68.2632 111.343 68.5216C111.237 68.7952 111.176 69.0688 111.176 69.3728V73.1576H109.793Z" fill="white"/>
<path d="M121.573 72.1089C121.497 72.2001 121.36 72.3217 121.208 72.4585C121.041 72.5953 120.828 72.7473 120.569 72.8689C120.311 73.0057 119.992 73.1121 119.642 73.2185C119.293 73.3097 118.882 73.3705 118.426 73.3705C117.864 73.3705 117.362 73.2793 116.891 73.0969C116.42 72.9145 116.025 72.6561 115.705 72.3065C115.371 71.9721 115.128 71.5617 114.945 71.0905C114.763 70.6193 114.672 70.0873 114.672 69.5097C114.672 68.9777 114.763 68.4913 114.93 68.0353C115.097 67.5793 115.356 67.1841 115.675 66.8497C115.994 66.5153 116.374 66.2569 116.815 66.0593C117.256 65.8617 117.727 65.7705 118.259 65.7705C118.882 65.7705 119.399 65.8921 119.855 66.1201C120.296 66.3633 120.661 66.6673 120.949 67.0625C121.238 67.4577 121.436 67.8985 121.573 68.4001C121.709 68.9017 121.77 69.4337 121.77 69.9809H116.101C116.116 70.3001 116.177 70.5889 116.313 70.8625C116.45 71.1361 116.617 71.3641 116.83 71.5617C117.043 71.7593 117.286 71.9113 117.575 72.0177C117.849 72.1241 118.153 72.1849 118.457 72.1849C119.065 72.1849 119.566 72.0785 119.946 71.8809C120.341 71.6681 120.615 71.4705 120.797 71.2729L121.573 72.1089ZM120.326 68.9473C120.281 68.3849 120.083 67.9137 119.733 67.5337C119.384 67.1385 118.897 66.9409 118.259 66.9409C117.925 66.9409 117.636 67.0017 117.377 67.1081C117.119 67.2145 116.891 67.3665 116.709 67.5489C116.526 67.7313 116.374 67.9441 116.283 68.1873C116.177 68.4305 116.116 68.6737 116.116 68.9321H120.326V68.9473Z" fill="white"/>
<path d="M96.5376 4.72719C95.7776 15.0024 96.7048 25.232 96.4616 35.5985C96.416 37.4985 96.6592 39.5353 96.5072 41.4505C96.492 41.6785 96.4312 41.8457 96.0816 41.8609C95.6104 41.8153 95.1392 41.7697 94.668 41.8609C94.516 40.4929 94.5768 39.4289 94.4552 38.2433C94.1816 35.6593 94.3336 33.5617 94.3184 30.7496C94.288 25.9312 93.8776 21.0368 94.2272 16.2336C94.3488 14.516 94.364 11.7192 94.2728 10.0016C94.1816 8.25359 94.0904 6.96159 94.1968 4.74238C95.0328 4.63598 95.808 4.63599 96.5376 4.72719Z" fill="white"/>
<path d="M11.2504 1.82399C12.0864 1.89999 12.4664 2.15839 12.5272 3.10079C12.6184 4.51439 12.4208 5.2744 12.5728 6.6576C13.0744 11.248 11.9952 15.9144 12.4816 20.52C12.74 22.952 12.4968 25.1408 12.5728 27.5728C12.6944 31.2057 12.5424 35.3249 12.4512 39.5809H1.12719C0.731989 39.0185 0.807989 36.1913 0.929589 35.4465C1.03599 34.8081 1.03599 34.1393 1.02079 33.4857C0.990389 30.8105 1.15759 28.4241 1.14239 25.7488C1.12719 24.1832 1.11199 22.6024 0.853589 21.052C0.625589 19.684 0.975189 17.2824 0.777589 15.8992C0.51919 14.1664 0.38239 3.86079 0.47359 1.88479C0.47359 1.88479 9.91278 1.70239 11.2504 1.82399Z" fill="white"/>
<path d="M31.9987 4.24079C31.3451 3.99759 31.4515 4.77279 31.4515 5.16799C31.4515 5.54799 31.4515 5.77598 31.4363 6.27758C31.4211 7.26558 31.5123 9.98637 31.5123 10.9592C31.5275 12.6008 31.6339 14.0448 31.6035 15.3368C31.5427 17.7687 31.5427 20.2159 31.6339 22.6631C31.8771 28.7279 31.5883 34.8231 31.7707 40.8575C31.7859 41.3743 32.1203 41.5263 32.5915 41.6479L33.2907 41.7695C33.2603 36.6015 33.6707 31.1751 33.3515 26.0223C33.2147 23.8639 33.2907 21.7207 33.2907 19.5623C33.2907 17.4951 33.2755 15.428 33.3059 13.3608C33.3363 12.0992 33.3211 10.8528 33.2755 9.59117C33.2299 8.04078 33.3059 5.04639 32.8955 4.63599C32.6827 4.37759 32.4243 4.39279 31.9987 4.24079Z" fill="white"/>
<path d="M20.8263 37.5136C21.5103 37.4984 21.3735 36.9816 21.3735 36.5712C21.3735 36.1912 21.4647 35.9632 21.4647 35.4616C21.4799 34.4584 21.4191 31.7224 21.4039 30.7344C21.3887 29.0776 21.2975 27.6336 21.3279 26.3264C21.3887 23.864 21.4191 21.4016 21.3279 18.9392C21.1151 12.8136 21.4343 6.67279 21.2823 0.592784C21.2671 0.060783 20.9175 0.0455825 20.3247 0.0151825L19.5039 0.0455821C19.5039 5.25919 19.5647 10.8072 19.6255 16.3552C19.6559 18.5288 19.6255 20.216 19.6255 22.3896C19.6255 24.472 19.6711 26.144 19.6559 28.2264C19.6559 29.336 19.6103 30.552 19.5951 32.0872C19.5799 33.6528 19.5039 36.6168 19.8687 37.088C20.1423 37.4224 20.4007 37.5136 20.8263 37.5136Z" fill="white"/>
<path d="M35.7076 40.7055C35.0844 40.6295 34.9932 40.3407 35.0084 39.6263C35.0692 37.4983 34.9324 32.9383 34.7044 30.1567C34.5068 27.6335 34.5524 25.0495 34.8716 22.5567C35.0844 20.8239 34.7804 19.5471 34.7804 17.404C34.7652 14.592 34.9324 12.388 34.9324 10.488C34.9172 9.31757 34.8868 8.14717 34.826 6.97678C34.7804 5.88238 34.7956 3.46559 34.7956 3.20719C34.978 3.14639 35.6316 3.16159 35.7988 3.17679C36.4068 3.23759 36.6956 3.31359 37.1212 3.52638C37.3796 4.63598 37.3036 6.99198 37.3036 8.31437C37.3036 9.08957 37.258 12.2816 37.3036 13.0416C37.3948 14.3184 37.3492 15.6104 37.3492 16.8872C37.3644 18.5135 37.4556 20.1551 37.4556 21.7815C37.4556 23.8487 37.2884 25.9159 37.2276 27.9831C37.1364 31.7983 37.6228 36.7231 37.5772 39.9151C37.562 40.5535 37.638 40.8879 36.9692 40.8879C36.9844 40.8575 36.346 40.7815 35.7076 40.7055Z" fill="white"/>
<path d="M93.042 38.9576C93.1636 37.3768 92.8292 34.9296 92.8292 33.6528C92.8292 32.908 92.738 29.8224 92.7836 29.0776C92.8596 27.8464 92.7988 26.6 92.7988 25.3536C92.7988 23.7728 92.89 22.192 92.8748 20.6112C92.8596 18.6048 92.662 16.6136 92.586 14.6072C92.434 10.4424 93.0572 4.89438 92.7988 1.94558C91.75 1.71758 90.458 1.65678 89.0444 1.68718C88.6948 4.01279 88.786 6.33839 88.8316 9.16559C88.862 11.0048 88.6948 13.1328 88.7404 15.8688C88.7708 17.936 89.3028 20.4136 89.09 22.1008C88.786 24.5176 88.7404 27.0104 88.9684 29.4576C89.3028 32.9536 89.1812 38.684 89.2268 38.76L93.042 38.9576Z" fill="white"/>
<path d="M104.062 39.0488C104.23 34.732 104.199 32.1328 104.275 28.4088C104.321 25.7792 103.91 22.4504 103.956 19.684C104.047 14.6072 104.108 12.8744 103.698 8.14718C103.606 7.08318 103.758 5.09198 103.713 4.02798C103.682 3.31358 103.652 2.40158 103.637 1.68718C103.637 1.68718 107.118 2.43198 109.823 1.86958C114.125 0.957576 121.238 1.89998 121.238 1.89998C121.664 2.62958 121.725 4.30158 121.71 4.71198C121.634 7.82798 121.573 6.73357 121.679 9.83437C121.786 12.768 121.238 15.3672 121.238 19.5016C121.238 22.2224 121.649 24.016 121.74 25.8248C121.831 27.6944 121.512 29.26 121.634 32.2088C121.71 34.0328 121.664 38.8208 121.694 39.2616C121.694 39.2616 108.881 39.3376 106.145 39.0032C104.701 38.8208 104.062 39.0488 104.062 39.0488Z" fill="white"/>
<path d="M80.6239 0.106384C80.6999 6.55119 80.7455 13.6952 81.0647 19.5016C81.1711 21.4472 81.1103 23.8792 81.1863 26.0832C81.2167 27.0712 81.0495 29.032 80.9735 30.3392C80.9127 31.4032 80.9431 32.4672 80.9583 33.516C80.9887 34.6408 81.0039 36.9968 80.9127 37.0424C80.2591 36.936 79.5599 36.936 78.8303 37.0424C78.5871 36.176 78.7543 35.3704 78.7695 34.4736C78.9063 26.7368 78.3591 21.0976 78.4959 13.984C78.5415 11.6736 78.4655 8.51199 78.2831 6.21679C78.1311 4.22559 78.1919 1.97599 78.4351 -1.52588e-05C79.1951 -1.52588e-05 79.9247 0.0303843 80.6239 0.106384Z" fill="white"/>
<path d="M102.132 0.455987C102.329 3.7848 102.177 5.9736 102.238 8.83121C102.299 11.3392 102.573 13.4824 102.421 16.3552C102.284 18.8328 102.542 21.3256 102.603 23.8184C102.649 26.2353 102.694 28.6673 102.725 31.0841C102.77 32.9537 102.816 34.6561 102.816 36.5409C102.816 36.8601 102.785 37.5289 102.785 37.8481C102.785 37.8481 102.132 37.7265 101.478 37.7873C99.8518 37.9393 98.5902 37.7417 98.119 37.6505C97.7238 37.5593 98.0582 31.0081 98.0734 30.4001C98.119 27.9377 98.119 25.4753 98.119 23.0128C98.1038 20.52 97.8758 17.8752 97.8302 15.3976C97.7846 12.8744 97.9214 10.5184 97.8606 8.0104C97.7998 5.472 97.7238 3.31359 97.6478 0.775186C97.6326 0.258385 98.119 -0.0152155 98.9398 0.212785C100.004 0.486386 101.144 0.136786 102.132 0.455987Z" fill="white"/>
<path d="M16.8139 3.57198C17.5739 3.67838 18.1363 4.39278 18.1515 5.24398C18.1667 6.45998 18.1515 7.53917 18.1211 8.60317C18.0907 9.78877 18.0451 10.944 18.0755 12.236C18.1363 17.4952 18.3643 22.5111 18.1363 27.9527C17.9387 32.5583 18.3643 37.0575 18.3187 41.2831C16.9203 41.2071 15.2483 41.0703 13.8955 41.0095C14.2755 33.2119 14.0323 25.8247 13.9411 17.708C13.8955 13.148 14.6403 9.57597 14.0019 3.49598C14.9747 3.38958 15.9171 3.45038 16.8139 3.57198Z" fill="white"/>
<path d="M77.0967 20.9C77.0055 18.1184 77.0207 12.8744 77.2335 10.0776C77.4615 6.9768 76.7015 2.27999 74.9839 2.37119C73.4943 2.29519 71.8527 2.46239 70.3479 2.53839C69.1471 2.59919 67.6119 2.59919 66.4111 2.70559C64.3591 2.88799 64.1311 2.61439 62.0639 2.61439C59.4799 2.61439 57.2607 2.82719 54.6767 2.82719C52.1839 2.82719 49.4023 2.76639 46.9095 2.56879C44.4623 2.38639 41.8631 2.03679 39.4311 2.11279C39.0815 2.12799 38.8839 3.69359 38.8079 5.6392C38.7471 7.5088 38.6255 11.5368 38.7775 13.4672C39.9175 12.0688 41.3463 11.5368 42.7447 11.4C43.8695 11.2936 45.1767 11.2328 46.3927 11.4152C46.5143 11.4304 45.6023 10.564 44.8423 9.9712C44.4167 9.6368 43.9455 9.2872 43.4135 9.2112C42.7599 9.12 42.0759 9.1808 41.4071 9.1352C41.8935 8.7096 42.7447 7.6456 44.8271 7.9192C45.9519 8.0712 47.8367 10.032 48.5207 9.5C49.2807 8.9072 48.9767 6.5816 49.9799 6.3232C50.8007 6.1104 51.3327 9.2264 51.7279 9.9104C52.6399 8.74 54.0079 7.904 55.4823 7.7368C56.2575 7.6456 58.6287 7.9344 58.9479 9.0592C58.9479 9.044 55.9231 8.512 54.0535 11.2176C56.7135 10.1688 59.4039 10.5184 61.6687 12.2512C62.2919 12.7376 62.7023 13.2392 63.1279 13.8168C63.7359 14.6376 63.6599 15.0024 63.6447 15.4736C62.6567 15.276 61.7447 13.5736 60.0423 13.0568C58.6135 12.616 57.0783 12.7072 55.6495 13.1328C58.8871 13.6648 63.3711 17.9664 61.8207 21.508C61.3191 22.648 61.1823 21.888 60.9999 20.9304C60.7871 19.7904 60.4679 19.1368 59.9207 18.392C59.4495 17.7384 58.9479 17.176 58.3551 16.6136C57.8383 16.112 56.2423 15.4128 55.4975 15.4584C57.5799 16.0512 58.9327 20.2008 59.0999 20.6416C59.5407 21.7208 59.5255 22.952 59.5559 24.092C59.5711 24.7456 59.6319 27.0408 58.7959 27.2536C58.8111 27.2536 58.9327 21.7056 55.0111 18.5288C56.0295 20.3224 56.1207 22.5264 55.9991 24.5328C55.9383 25.6576 55.7559 26.5696 55.2543 27.588C55.1479 27.816 54.7375 28.8344 54.5703 28.8648C54.0535 28.9864 54.3271 25.764 54.2511 25.1864C54.1599 24.4872 52.8831 19.7144 51.5455 20.8848C50.8615 21.4776 51.2111 24.1528 51.3023 25.3536C51.4087 26.8128 51.5759 28.956 51.6063 30.4152C51.6671 33.4552 51.7431 35.5984 52.1383 38.6537C55.6343 36.7689 70.9863 28.9104 73.1751 35.4008C73.1903 35.6136 73.0535 35.4616 73.0535 35.4616C71.5487 33.212 67.4599 34.3672 65.4079 35.0056C61.7599 36.1304 58.2639 37.9089 54.9655 39.7937C60.3919 39.8089 68.7671 39.7937 74.9687 39.7937C76.3975 39.7937 77.5375 38.6081 77.4919 37.1793C77.4615 36.1305 77.4311 34.8688 77.4311 33.516C77.4311 31.9808 77.5071 30.324 77.5527 28.7888C77.6135 25.764 77.2031 23.9552 77.0967 20.9ZM46.6207 24.092C46.4079 24.8824 46.1343 26.22 46.1039 26.5696C46.0583 26.9192 45.7847 28.804 45.7847 28.804C45.6631 28.728 45.5871 28.5912 45.5263 28.4544C44.7511 26.7064 44.9031 23.94 44.9031 23.9248C45.1767 19.5776 46.7271 18.4072 46.7271 18.4224C46.0279 18.0272 44.6295 19.6688 43.8847 20.7024C42.8967 22.0856 43.0639 23.028 42.9423 25.1864C42.4103 25.08 41.8935 24.1984 41.8631 23.5448C41.6807 20.1552 43.1855 17.0544 44.8119 15.7776C44.9943 15.6104 42.9423 16.0208 42.5775 16.1576C41.2399 16.7048 40.2823 17.6624 39.6287 18.9392C38.2455 21.6144 39.1271 24.8064 38.9447 27.74C38.8383 29.4272 39.0815 31.0992 39.0663 32.7864C39.0511 34.0632 38.7319 34.3064 40.0087 34.4128C40.5103 34.4584 41.0119 34.5344 41.5135 34.6408C44.5231 35.2944 46.9247 36.6776 49.0375 38.8665C49.3719 34.96 49.4175 31.3576 49.4175 27.436C49.4175 25.8856 49.6759 22.5568 48.6423 21.2344C47.5935 19.912 46.8639 23.2104 46.6207 24.092ZM39.2639 35.5073C39.1879 37.0273 39.2943 38.2433 39.3095 40.0217C40.7991 39.9153 41.6959 40.0521 43.1855 40.1433C44.6143 40.2345 46.1343 40.0825 47.5631 40.2649C45.3743 37.8937 42.5775 35.7961 39.2639 35.5073ZM41.7111 14.5616C42.2431 14.1968 44.4471 13.0872 44.7055 13.1024C43.1247 12.4944 41.2247 12.6464 39.8415 13.528C38.4887 14.3792 38.9447 16.7504 38.7623 18.2704C39.4311 16.9176 40.4343 15.4128 41.7111 14.5616Z" fill="white"/>
<path d="M86.5362 3.07038C86.7338 3.10078 86.8858 3.26798 86.901 3.46558C87.0074 7.69118 87.0986 11.4912 87.3722 15.8688C87.4786 17.6016 87.5698 20.1552 87.3114 22.192C86.977 24.8672 87.661 27.0408 87.4786 29.7312C87.2354 33.288 87.7522 36.1912 87.5546 39.748L83.1466 39.8392C82.7818 39.8544 82.4474 39.5048 82.5082 38.6536C82.5538 37.8024 82.493 34.1544 82.493 31.4032C82.493 28.652 82.8578 26.1136 82.5538 23.0432C82.4018 21.5384 82.7666 19.9272 82.6754 18.4224C82.5234 15.6864 82.4322 13.2848 82.3714 10.5488C82.341 8.92239 82.3714 6.44478 82.3258 4.84878C82.2954 3.73918 82.5386 2.91838 83.1466 2.64478C83.8154 2.34078 85.7458 2.96398 86.5362 3.07038Z" fill="white"/>
<path d="M22.8788 35.4615C22.8332 36.4799 22.818 36.8447 22.818 37.2247C22.818 37.4831 23.046 37.5287 23.2588 37.6351C23.3956 37.7111 24.5812 37.9543 24.9764 38.0455C25.3108 38.1215 25.7972 38.1671 26.1316 38.1671C27.2716 38.1519 28.4116 38.5471 29.5516 38.4407C29.582 38.4407 29.6276 38.4255 29.658 38.4103C29.7492 38.3495 30.0684 38.1975 30.1596 37.5591C30.2964 36.5863 30.0228 35.7351 30.1748 33.972C30.3268 32.2088 30.19 27.4208 30.2052 26.2656C30.2812 17.5408 29.7796 17.404 30.0076 10.6704C30.0836 8.29918 30.0228 7.50878 29.7644 5.01598C29.7036 4.36238 29.3996 2.69038 29.5516 1.53519C29.6124 1.10959 29.354 0.759985 28.9436 0.744785C27.0588 0.653585 23.0916 0.942385 23.0916 0.942385C22.8788 1.82398 22.8332 2.65998 22.894 3.83038C22.9244 4.65118 22.7724 6.00398 22.7724 6.82478C22.7724 7.75198 22.7116 8.67918 22.7572 9.60637C22.8636 12.0992 22.9396 14.592 22.8636 17.0696C22.666 23.3776 23.2284 27.0408 22.9852 33.2272L22.8788 35.4615Z" fill="white"/>
</svg>
