<svg width="24" height="22" viewBox="0 0 24 22" fill="none" xmlns="http://www.w3.org/2000/svg">
<path d="M11.9475 0C9.36112 0 7.3507 9.93072e-08 5.78567 0.16661C4.20279 0.336552 2.94921 0.688654 1.94902 1.48394C0.922047 2.30144 0.442046 3.36441 0.215442 4.70506C-4.99016e-08 5.98463 0 7.61296 0 9.64338V9.84664C0 11.826 4.99016e-08 13.1955 0.223256 14.2163C0.343814 14.7661 0.533581 15.2437 0.831628 15.6858C1.12633 16.1212 1.5014 16.4877 1.94902 16.8431C2.6534 17.4041 3.48391 17.7428 4.46512 17.9539V20.8262C4.46525 20.9722 4.50391 21.1155 4.57724 21.2419C4.65057 21.3683 4.75598 21.4734 4.88293 21.5465C5.00988 21.6196 5.1539 21.6582 5.30058 21.6585C5.44726 21.6588 5.59145 21.6208 5.7187 21.5482C6.37284 21.1761 6.95219 20.7707 7.48242 20.3886L7.82177 20.1431C8.19935 19.8619 8.585 19.5915 8.97823 19.3323C9.92037 18.7236 10.8201 18.3271 12 18.3271H12.0525C14.6389 18.3271 16.6493 18.3271 18.2143 18.1605C19.7972 17.9905 21.0508 17.6384 22.051 16.8431C22.4975 16.4877 22.8737 16.1212 23.1673 15.6858C23.4664 15.2437 23.6562 14.7661 23.7767 14.2163C24 13.1955 24 11.826 24 9.84664V9.64338C24 7.61296 24 5.98463 23.7846 4.70617C23.558 3.36441 23.078 2.30144 22.051 1.48394C21.0508 0.687543 19.7972 0.336552 18.2143 0.167721C16.6493 3.31024e-08 14.6389 0 12.0525 0H11.9475Z" fill="white"/>
</svg>
