<?xml version="1.0" encoding="utf-8"?>
<!-- Generator: Adobe Illustrator 27.6.1, SVG Export Plug-In . SVG Version: 6.00 Build 0)  -->
<svg version="1.0" id="Layer_1" xmlns="http://www.w3.org/2000/svg" xmlns:xlink="http://www.w3.org/1999/xlink" x="0px" y="0px"
	 viewBox="0 0 153 153" style="enable-background:new 0 0 153 153;" xml:space="preserve">
<style type="text/css">
	.st0{fill:#A8A9CF;}
	.st1{fill:#6B47F5;}
	.st2{fill:#312E52;}
</style>
<path class="st0" d="M28.28,63.49c0,0-12.85-7.45-19.63-1.29c-0.21,0.26-0.24,0.64-0.05,0.93c0.07,0.11,1.75,2.73,5.78,2.73
	c2.01,0,3.61-0.97,5.15-1.91c1.49-0.91,2.9-1.77,4.65-1.77C25.7,62.17,26.98,62.77,28.28,63.49"/>
<path class="st1" d="M8.65,62.2c3.82-4.75,9.48-7.47,15.52-7.47c6.04,0,11.69,2.72,15.52,7.47c0.23,0.28,0.23,0.69,0.01,0.98
	c-0.07,0.1-1.87,2.42-5.73,2.42c-1.93,0-3.51-0.89-5.04-1.76c-0.22-0.12-0.43-0.24-0.64-0.36C28.28,63.48,15.43,56.03,8.65,62.2"/>
<path class="st0" d="M42.89,67.63c-0.12-0.31-0.43-0.52-0.77-0.51c-0.13,0-3.21,0.17-5.23,3.68c-1,1.76-0.97,3.64-0.94,5.46
	c0.03,1.76,0.07,3.42-0.81,4.94c-0.76,1.33-1.92,2.15-3.18,2.93C31.98,84.14,44.78,76.64,42.89,67.63"/>
<path class="st1" d="M42.89,67.63c2.16,5.72,1.67,12.02-1.35,17.3c-3.02,5.27-8.18,8.86-14.17,9.82c-0.36,0.06-0.71-0.14-0.85-0.48
	c-0.04-0.11-1.15-2.84,0.79-6.22c0.96-1.68,2.52-2.62,4.03-3.53c0.21-0.13,0.42-0.26,0.63-0.38C31.97,84.14,44.79,76.64,42.89,67.63
	"/>
<path class="st0" d="M21.25,87.98c-1.01-1.76-2.64-2.67-4.22-3.55c-1.53-0.85-2.97-1.65-3.84-3.18c-0.76-1.33-0.89-2.75-0.92-4.25
	c0,0,0.03,14.96,8.71,17.8c0.33,0.05,0.67-0.11,0.82-0.42C21.86,94.27,23.26,91.5,21.25,87.98"/>
<path class="st1" d="M20.98,94.81c-5.99-0.97-11.15-4.55-14.17-9.83C3.79,79.7,3.29,73.4,5.46,67.68c0.13-0.34,0.47-0.55,0.83-0.5
	c0.12,0.02,3.01,0.42,4.95,3.8c0.96,1.68,0.99,3.52,1.01,5.29c0,0.25,0.01,0.5,0.01,0.74C12.27,77.01,12.3,91.96,20.98,94.81"/>
<path class="st2" d="M92.55,68.31h-2.43c-0.58,0-2.99-0.04-2.99-2.69c0-1.77,1.09-2.86,2.65-2.86c1.79,0,2.77,1.31,2.77,3.93V68.31
	L92.55,68.31z M95.11,66.5c0-3.48-1.58-5.88-5.11-5.88c-2.77,0-5.46,1.56-5.46,5.09c0,3.54,2.96,4.77,5.64,4.77h2.38v0.35
	c0,1.4-0.87,2.84-2.86,2.84c-1.12,0-1.89-0.3-3.51-1.12c-0.88,1.08-0.34,1.97,0.51,2.39c1.03,0.51,2.18,0.77,3.33,0.78
	c3.71,0.05,5.09-2.16,5.09-5.87V66.5z"/>
<path class="st2" d="M62.94,65.42c0,0.9-0.23,1.61-0.69,2.12c-0.46,0.51-1.1,0.77-1.91,0.77s-1.41-0.23-1.86-0.68
	c-0.45-0.45-0.68-1.06-0.68-1.81c0-0.95,0.36-1.67,1.07-2.16c0.71-0.5,1.76-0.74,3.13-0.74h0.94L62.94,65.42L62.94,65.42z
	 M67.88,70.49c0.32,0,0.76,0,1.07,0c1.11,0.01,2.27,0.05,3.32-0.35c0.58-0.22,1.03-0.61,1.36-1.16c0.52,0.99,1.42,1.49,2.69,1.49
	h6.87v-9.49c-0.13-0.07-0.39-0.13-0.61-0.18c-0.22-0.04-0.43-0.07-0.63-0.07c-0.39,0-0.71,0.1-0.95,0.3
	c-0.24,0.2-0.36,0.48-0.36,0.86v6.4h-2.68c-1.03,0-2.38,0.05-2.81-1.14c-0.15-0.42-0.23-1.01-0.23-1.77v-4.42
	c-0.13-0.07-0.39-0.13-0.61-0.18c-0.22-0.04-0.43-0.07-0.63-0.07c-0.39,0-0.71,0.1-0.95,0.3c-0.24,0.2-0.36,0.48-0.36,0.86v3.5
	c0,0.74-0.07,1.33-0.22,1.75c-0.34,0.99-1.42,1.15-2.35,1.17c-0.7,0.01-1.55,0.02-2.25-0.01c-0.54-0.03-1.16-0.14-1.54-0.55
	c-0.34-0.36-0.51-1-0.51-1.9v-5.11h-3.54c-2.08,0-3.73,0.45-4.93,1.34c-1.2,0.9-1.8,2.13-1.8,3.7c0,0.93,0.21,1.75,0.62,2.45
	c0.41,0.7,1,1.25,1.76,1.64c0.76,0.39,1.72,0.59,2.71,0.59c1.66,0,2.96-0.52,3.91-1.55c0.31,0.5,0.73,0.88,1.28,1.15
	C66.25,70.43,67.07,70.48,67.88,70.49"/>
<path class="st2" d="M59.6,59.48c0.4,0,0.73-0.14,1.01-0.42c0.27-0.28,0.41-0.62,0.41-1c0-0.38-0.14-0.73-0.41-1.01
	c-0.28-0.28-0.61-0.41-1.01-0.41s-0.71,0.14-0.99,0.41c-0.27,0.28-0.41,0.61-0.41,1.01c0,0.4,0.14,0.72,0.41,1
	C58.89,59.34,59.21,59.48,59.6,59.48z"/>
<path class="st2" d="M63.42,59.48c0.4,0,0.74-0.14,1.02-0.42c0.28-0.28,0.42-0.62,0.42-1c0-0.38-0.14-0.73-0.42-1.01
	c-0.28-0.28-0.62-0.41-1.02-0.41s-0.71,0.14-0.99,0.41c-0.28,0.28-0.41,0.61-0.41,1.01c0,0.4,0.14,0.72,0.41,1
	C62.71,59.34,63.04,59.48,63.42,59.48z"/>
<path class="st2" d="M81.91,59.44c0.4,0,0.73-0.14,1.01-0.42c0.27-0.28,0.41-0.62,0.41-1s-0.14-0.72-0.41-1
	c-0.28-0.28-0.61-0.42-1.01-0.42c-0.4,0-0.74,0.14-1.03,0.42c-0.29,0.28-0.44,0.62-0.44,1s0.15,0.72,0.44,1
	C81.17,59.29,81.51,59.44,81.91,59.44z"/>
<path class="st2" d="M147.52,54.73c-0.75,0-1.31,0.37-1.31,1.16v14.59h2.56v-15.5C148.38,54.8,147.87,54.73,147.52,54.73z"/>
<path class="st2" d="M135.11,59.48c0.4,0,0.74-0.14,1.02-0.42c0.28-0.28,0.42-0.62,0.42-1c0-0.38-0.14-0.73-0.42-1.01
	c-0.28-0.28-0.62-0.41-1.02-0.41c-0.4,0-0.71,0.14-0.99,0.41c-0.28,0.28-0.41,0.61-0.41,1.01c0,0.4,0.14,0.72,0.41,1
	C134.39,59.34,134.72,59.48,135.11,59.48z"/>
<path class="st2" d="M131.28,59.48c0.4,0,0.73-0.14,1.01-0.42c0.27-0.28,0.41-0.62,0.41-1c0-0.38-0.14-0.73-0.41-1.01
	c-0.27-0.28-0.61-0.41-1.01-0.41s-0.71,0.14-0.99,0.41c-0.27,0.28-0.41,0.61-0.41,1.01c0,0.4,0.14,0.72,0.41,1
	C130.57,59.34,130.9,59.48,131.28,59.48z"/>
<path class="st2" d="M144.5,70.47v-15.5c-0.13-0.07-0.39-0.13-0.61-0.18c-0.22-0.04-0.43-0.07-0.63-0.07c-0.39,0-0.71,0.1-0.95,0.3
	c-0.24,0.2-0.36,0.48-0.36,0.86v12.42h-7.33v-7.29c-0.2-0.08-0.41-0.16-0.62-0.21c-0.21-0.05-0.42-0.06-0.64-0.06
	c-0.41,0-0.73,0.1-0.95,0.29c-0.23,0.2-0.34,0.5-0.34,0.91v6.36h-8.85c-4.76,0-7.1-2.75-8.44-4.43c1.26-1.06,2.7-1.15,3.52-1.1
	c1.14,0.08,2.2,0.5,2.88,1.14c-0.44,0.59-1.36,1.61-2.4,2.43c0.67,0.37,1.42,0.7,2.33,0.87c1.44-1.36,2.46-2.8,2.81-3.36
	c-0.25-0.4-1.64-2.99-5.48-3.24c-4.14-0.27-6.24,2.72-6.59,3.15c1.23,1.57,2.32,2.94,3.87,4.17c-0.75,0.23-1.57,0.37-2.45,0.37
	H98.93V54.97c-0.13-0.07-0.31-0.13-0.52-0.18c-0.22-0.04-0.52-0.07-0.72-0.07c-0.39,0-0.71,0.1-0.95,0.3
	c-0.24,0.2-0.36,0.48-0.36,0.86v14.59h16.9c1.72,0,3.3-0.43,4.71-1.12c1.58,0.74,3.33,1.12,5.23,1.12H144.5z"/>
<path class="st2" d="M71.59,74.67c0.4,0,0.73-0.14,1.01-0.42c0.27-0.28,0.41-0.62,0.41-1c0-0.38-0.14-0.73-0.41-1.01
	s-0.61-0.41-1.01-0.41s-0.71,0.14-0.99,0.41c-0.27,0.28-0.41,0.61-0.41,1.01s0.14,0.72,0.41,1C70.87,74.53,71.2,74.67,71.59,74.67z"
	/>
<path class="st2" d="M75.41,74.67c0.4,0,0.74-0.14,1.02-0.42c0.28-0.28,0.42-0.62,0.42-1c0-0.38-0.14-0.73-0.42-1.01
	c-0.28-0.28-0.62-0.41-1.02-0.41c-0.4,0-0.71,0.14-0.99,0.41c-0.28,0.28-0.41,0.61-0.41,1.01s0.14,0.72,0.41,1
	C74.7,74.53,75.03,74.67,75.41,74.67z"/>
<path class="st2" d="M92.55,68.31h-2.43c-0.58,0-2.99-0.04-2.99-2.69c0-1.77,1.09-2.86,2.65-2.86c1.79,0,2.77,1.31,2.77,3.93V68.31
	L92.55,68.31z M95.11,66.5c0-3.48-1.58-5.88-5.11-5.88c-2.77,0-5.46,1.56-5.46,5.09c0,3.54,2.96,4.77,5.64,4.77h2.38v0.35
	c0,1.4-0.87,2.84-2.86,2.84c-1.12,0-1.89-0.3-3.51-1.12c-0.88,1.08-0.34,1.97,0.51,2.39c1.03,0.51,2.18,0.77,3.33,0.78
	c3.71,0.05,5.09-2.16,5.09-5.87V66.5z"/>
<path class="st2" d="M62.94,65.42c0,0.9-0.23,1.61-0.69,2.12c-0.46,0.51-1.1,0.77-1.91,0.77s-1.41-0.23-1.86-0.68
	c-0.45-0.45-0.68-1.06-0.68-1.81c0-0.95,0.36-1.67,1.07-2.16c0.71-0.5,1.76-0.74,3.13-0.74h0.94L62.94,65.42L62.94,65.42z
	 M67.88,70.49c0.32,0,0.76,0,1.07,0c1.11,0.01,2.27,0.05,3.32-0.35c0.58-0.22,1.03-0.61,1.36-1.16c0.52,0.99,1.42,1.49,2.69,1.49
	h6.87v-9.49c-0.13-0.07-0.39-0.13-0.61-0.18c-0.22-0.04-0.43-0.07-0.63-0.07c-0.39,0-0.71,0.1-0.95,0.3
	c-0.24,0.2-0.36,0.48-0.36,0.86v6.4h-2.68c-1.03,0-2.38,0.05-2.81-1.14c-0.15-0.42-0.23-1.01-0.23-1.77v-4.42
	c-0.13-0.07-0.39-0.13-0.61-0.18c-0.22-0.04-0.43-0.07-0.63-0.07c-0.39,0-0.71,0.1-0.95,0.3c-0.24,0.2-0.36,0.48-0.36,0.86v3.5
	c0,0.74-0.07,1.33-0.22,1.75c-0.34,0.99-1.42,1.15-2.35,1.17c-0.7,0.01-1.55,0.02-2.25-0.01c-0.54-0.03-1.16-0.14-1.54-0.55
	c-0.34-0.36-0.51-1-0.51-1.9v-5.11h-3.54c-2.08,0-3.73,0.45-4.93,1.34c-1.2,0.9-1.8,2.13-1.8,3.7c0,0.93,0.21,1.75,0.62,2.45
	c0.41,0.7,1,1.25,1.76,1.64c0.76,0.39,1.72,0.59,2.71,0.59c1.66,0,2.96-0.52,3.91-1.55c0.31,0.5,0.73,0.88,1.28,1.15
	C66.25,70.43,67.07,70.48,67.88,70.49"/>
<path class="st2" d="M59.6,59.48c0.4,0,0.73-0.14,1.01-0.42c0.27-0.28,0.41-0.62,0.41-1c0-0.38-0.14-0.73-0.41-1.01
	c-0.28-0.28-0.61-0.41-1.01-0.41s-0.71,0.14-0.99,0.41c-0.27,0.28-0.41,0.61-0.41,1.01c0,0.4,0.14,0.72,0.41,1
	C58.89,59.34,59.21,59.48,59.6,59.48z"/>
<path class="st2" d="M63.42,59.48c0.4,0,0.74-0.14,1.02-0.42c0.28-0.28,0.42-0.62,0.42-1c0-0.38-0.14-0.73-0.42-1.01
	c-0.28-0.28-0.62-0.41-1.02-0.41s-0.71,0.14-0.99,0.41c-0.28,0.28-0.41,0.61-0.41,1.01c0,0.4,0.14,0.72,0.41,1
	C62.71,59.34,63.04,59.48,63.42,59.48z"/>
<path class="st2" d="M81.91,59.44c0.4,0,0.73-0.14,1.01-0.42c0.27-0.28,0.41-0.62,0.41-1s-0.14-0.72-0.41-1
	c-0.28-0.28-0.61-0.42-1.01-0.42c-0.4,0-0.74,0.14-1.03,0.42c-0.29,0.28-0.44,0.62-0.44,1s0.15,0.72,0.44,1
	C81.17,59.29,81.51,59.44,81.91,59.44z"/>
<path class="st2" d="M147.52,54.73c-0.75,0-1.31,0.37-1.31,1.16v14.59h2.56v-15.5C148.38,54.8,147.87,54.73,147.52,54.73z"/>
<path class="st2" d="M135.11,59.48c0.4,0,0.74-0.14,1.02-0.42c0.28-0.28,0.42-0.62,0.42-1c0-0.38-0.14-0.73-0.42-1.01
	c-0.28-0.28-0.62-0.41-1.02-0.41c-0.4,0-0.71,0.14-0.99,0.41c-0.28,0.28-0.41,0.61-0.41,1.01c0,0.4,0.14,0.72,0.41,1
	C134.39,59.34,134.72,59.48,135.11,59.48z"/>
<path class="st2" d="M131.28,59.48c0.4,0,0.73-0.14,1.01-0.42c0.27-0.28,0.41-0.62,0.41-1c0-0.38-0.14-0.73-0.41-1.01
	c-0.27-0.28-0.61-0.41-1.01-0.41s-0.71,0.14-0.99,0.41c-0.27,0.28-0.41,0.61-0.41,1.01c0,0.4,0.14,0.72,0.41,1
	C130.57,59.34,130.9,59.48,131.28,59.48z"/>
<path class="st2" d="M144.5,70.47v-15.5c-0.13-0.07-0.39-0.13-0.61-0.18c-0.22-0.04-0.43-0.07-0.63-0.07c-0.39,0-0.71,0.1-0.95,0.3
	c-0.24,0.2-0.36,0.48-0.36,0.86v12.42h-7.33v-7.29c-0.2-0.08-0.41-0.16-0.62-0.21c-0.21-0.05-0.42-0.06-0.64-0.06
	c-0.41,0-0.73,0.1-0.95,0.29c-0.23,0.2-0.34,0.5-0.34,0.91v6.36h-8.85c-4.76,0-7.1-2.75-8.44-4.43c1.26-1.06,2.7-1.15,3.52-1.1
	c1.14,0.08,2.2,0.5,2.88,1.14c-0.44,0.59-1.36,1.61-2.4,2.43c0.67,0.37,1.42,0.7,2.33,0.87c1.44-1.36,2.46-2.8,2.81-3.36
	c-0.25-0.4-1.64-2.99-5.48-3.24c-4.14-0.27-6.24,2.72-6.59,3.15c1.23,1.57,2.32,2.94,3.87,4.17c-0.75,0.23-1.57,0.37-2.45,0.37
	H98.93V54.97c-0.13-0.07-0.31-0.13-0.52-0.18c-0.22-0.04-0.52-0.07-0.72-0.07c-0.39,0-0.71,0.1-0.95,0.3
	c-0.24,0.2-0.36,0.48-0.36,0.86v14.59h16.9c1.72,0,3.3-0.43,4.71-1.12c1.58,0.74,3.33,1.12,5.23,1.12H144.5z"/>
<path class="st2" d="M71.59,74.67c0.4,0,0.73-0.14,1.01-0.42c0.27-0.28,0.41-0.62,0.41-1c0-0.38-0.14-0.73-0.41-1.01
	s-0.61-0.41-1.01-0.41s-0.71,0.14-0.99,0.41c-0.27,0.28-0.41,0.61-0.41,1.01s0.14,0.72,0.41,1C70.87,74.53,71.2,74.67,71.59,74.67z"
	/>
<path class="st2" d="M75.41,74.67c0.4,0,0.74-0.14,1.02-0.42c0.28-0.28,0.42-0.62,0.42-1c0-0.38-0.14-0.73-0.42-1.01
	c-0.28-0.28-0.62-0.41-1.02-0.41c-0.4,0-0.71,0.14-0.99,0.41c-0.28,0.28-0.41,0.61-0.41,1.01s0.14,0.72,0.41,1
	C74.7,74.53,75.03,74.67,75.41,74.67z"/>
<path class="st2" d="M64.43,89.43c-0.16,0.12-0.41,0.3-0.78,0.44c-0.37,0.13-0.78,0.2-1.21,0.2c-0.27,0-0.53-0.03-0.77-0.09
	c-0.25-0.06-0.46-0.16-0.65-0.31c-0.19-0.15-0.33-0.35-0.44-0.59c-0.1-0.25-0.16-0.56-0.16-0.95v-5h4.3
	c0.04-0.09,0.1-0.24,0.18-0.46c0.07-0.22,0.11-0.45,0.11-0.71c0-0.39-0.1-0.68-0.3-0.89c-0.2-0.2-0.55-0.3-1.04-0.3h-3.25v-2.94
	c-0.07-0.03-0.23-0.08-0.46-0.15c-0.23-0.07-0.48-0.1-0.75-0.1c-0.42,0-0.75,0.09-0.99,0.28c-0.24,0.19-0.36,0.49-0.36,0.91v1.99
	h-1.29c-0.49,0-0.84,0.1-1.04,0.3c-0.2,0.2-0.3,0.5-0.3,0.89c0,0.25,0.04,0.49,0.11,0.71c0.07,0.22,0.13,0.37,0.18,0.46h2.34v5.51
	c0,1.11,0.34,2,1.01,2.68c0.67,0.68,1.67,1.02,2.98,1.02c0.46,0,0.89-0.04,1.28-0.12c0.39-0.08,0.74-0.18,1.05-0.3
	c0.31-0.12,0.58-0.25,0.8-0.38c0.22-0.13,0.38-0.25,0.5-0.34c0,0-0.1-0.46-0.39-0.93C64.82,89.79,64.43,89.43,64.43,89.43"/>
<path class="st2" d="M122.72,80.77c-0.43,0-0.77,0.09-1.01,0.28c-0.24,0.19-0.36,0.49-0.36,0.91v10.06h2.56V81.01
	c-0.07-0.03-0.22-0.08-0.45-0.15C123.23,80.8,122.99,80.77,122.72,80.77"/>
<path class="st2" d="M122.63,75.72c-0.43,0-0.8,0.15-1.1,0.45c-0.3,0.3-0.45,0.67-0.45,1.1c0,0.43,0.15,0.8,0.45,1.1
	c0.3,0.3,0.67,0.45,1.1,0.45c0.43,0,0.8-0.15,1.1-0.45c0.3-0.3,0.45-0.67,0.45-1.1c0-0.43-0.15-0.8-0.45-1.1
	C123.43,75.87,123.06,75.72,122.63,75.72z"/>
<path class="st2" d="M146.21,90.21c-0.56,0.06-2.01,0.12-2.17,0.13c-0.79,0.01-1.64-0.02-2.39-0.3c-0.66-0.25-1.28-0.79-1.41-1.49
	c-0.02-0.1-0.03-0.21-0.03-0.32c0.02-0.71,0.48-1.39,1.1-1.71c0.72-0.38,1.65-0.33,2.44-0.28c0.72,0.04,1.67,0.13,2.45,0.22
	c0,0.31,0.01,0.55,0.01,0.55L146.21,90.21L146.21,90.21z M147.09,81.54c-0.53-0.37-1.15-0.65-1.87-0.82
	c-0.73-0.17-1.53-0.26-2.41-0.26c-0.73,0-1.34,0.04-1.82,0.13c-0.48,0.09-0.86,0.21-1.14,0.37c-0.28,0.16-0.48,0.34-0.6,0.54
	c-0.11,0.2-0.17,0.41-0.17,0.62c0,0.3,0.08,0.55,0.24,0.76c0.16,0.21,0.28,0.35,0.37,0.43c0.16-0.13,0.5-0.3,1.02-0.49
	c0.52-0.19,1.2-0.29,2.05-0.29c0.51,0,0.97,0.04,1.39,0.11c0.42,0.08,0.77,0.21,1.08,0.4c0.3,0.19,0.53,0.46,0.71,0.81
	c0.07,0.15,0.13,0.32,0.17,0.5c-1.32-0.16-2.85-0.29-3.72-0.21c-0.94,0.09-1.89,0.27-2.69,0.77c-1.71,1.09-2.3,3.4-1.3,5.16
	c0.48,0.85,1.34,1.44,2.26,1.77c0.92,0.33,1.91,0.42,2.88,0.46c1.5,0.06,3.02-0.04,4.51-0.21c0.32-0.04,0.56-0.07,0.71-0.1v-6.75
	c0-0.86-0.14-1.6-0.44-2.22C148.01,82.41,147.61,81.92,147.09,81.54"/>
<path class="st2" d="M74.25,90.21c-0.56,0.06-2.01,0.12-2.16,0.13c-0.79,0.01-1.64-0.02-2.39-0.3c-0.66-0.25-1.28-0.79-1.41-1.49
	c-0.02-0.1-0.03-0.21-0.03-0.32c0.02-0.71,0.48-1.39,1.1-1.71c0.72-0.38,1.65-0.33,2.44-0.28c0.72,0.04,1.67,0.13,2.45,0.22
	c0,0.31,0.01,0.55,0.01,0.55V90.21z M94.16,80.75c-0.4-0.03-0.83,0.07-1.11,0.37c-0.2,0.21-0.3,0.49-0.39,0.76
	c-0.8,2.25-1.6,4.51-2.4,6.76c-0.84-2.41-1.68-4.82-2.52-7.24c-0.05-0.14-0.1-0.28-0.21-0.38c-0.12-0.11-0.29-0.14-0.46-0.17
	c-0.62-0.11-1.35-0.18-1.8,0.26c-0.2,0.2-0.3,0.47-0.4,0.74c-0.79,2.15-1.57,4.31-2.32,6.47c-0.39-1-0.35-0.99-0.74-1.99
	c-0.05-0.12-0.1-0.24-0.2-0.31c-0.09-0.06-0.26-0.12-0.36-0.15c-1.17-0.33-3.1-0.88-4.52-1.24c-0.05-0.61-0.19-1.15-0.41-1.62
	c-0.29-0.61-0.7-1.11-1.22-1.48c-0.52-0.37-1.15-0.65-1.87-0.82c-0.73-0.17-1.53-0.26-2.41-0.26c-0.73,0-1.34,0.04-1.82,0.13
	c-0.48,0.09-0.86,0.21-1.14,0.37c-0.28,0.16-0.48,0.34-0.59,0.54c-0.11,0.2-0.17,0.41-0.17,0.62c0,0.3,0.08,0.55,0.24,0.76
	c0.16,0.21,0.28,0.35,0.37,0.43c0.16-0.13,0.5-0.3,1.02-0.49c0.52-0.19,1.2-0.29,2.05-0.29c0.51,0,0.97,0.04,1.39,0.11
	c0.42,0.08,0.78,0.21,1.08,0.4c0.3,0.19,0.53,0.46,0.71,0.81c0.07,0.15,0.13,0.32,0.17,0.5c-1.32-0.16-2.84-0.29-3.72-0.21
	c-0.94,0.09-1.89,0.27-2.69,0.77c-1.71,1.09-2.3,3.4-1.3,5.16c0.48,0.85,1.34,1.44,2.26,1.77s1.91,0.42,2.88,0.46
	c1.5,0.06,3.02-0.04,4.51-0.21c0.32-0.04,0.56-0.07,0.71-0.1v-5.13c1.24,0.28,2.7,0.69,2.74,0.72c0.33,0.3,1.69,4.44,1.72,4.44
	c0.88,0,1.76,0,2.64,0c0.86-2.53,1.67-5.08,2.44-7.64c0.77,2.56,1.6,5.11,2.49,7.64c0.88,0,1.77,0,2.65,0
	c1.28-3.64,2.57-7.27,3.85-10.91c0,0-0.01,0-0.01,0C94.94,80.94,94.56,80.79,94.16,80.75"/>
<path class="st2" d="M78.88,80.77c-0.43,0-0.75,0.12-0.96,0.36c-0.21,0.24-0.24,0.39-0.24,0.71c0,0.06,0.3,1.04,0.74,2.29l2.92,0.83
	c-0.55-1.55-1.23-3.66-1.31-3.97c-0.06-0.03-0.18-0.08-0.37-0.13C79.47,80.8,79.22,80.77,78.88,80.77z"/>
<path class="st2" d="M106.1,80.75c-0.42,0-0.75,0.09-0.99,0.28c-0.22,0.17-0.34,0.44-0.36,0.79v5.4c0,1.02-0.24,1.79-0.73,2.32
	c-0.49,0.53-1.21,0.8-2.19,0.8s-1.68-0.27-2.17-0.8c-0.49-0.53-0.74-1.3-0.74-2.32v-6.23c-0.07-0.03-0.23-0.08-0.46-0.15
	c-0.23-0.07-0.48-0.1-0.75-0.1c-0.42,0-0.75,0.09-0.99,0.28c-0.24,0.19-0.36,0.49-0.36,0.9v5.94c0,0.75,0.13,1.42,0.4,2.01
	c0.27,0.59,0.65,1.09,1.13,1.5c0.49,0.41,1.07,0.72,1.74,0.94c0.67,0.22,1.4,0.33,2.2,0.33c0.79,0,1.52-0.11,2.19-0.33
	c0.67-0.22,1.24-0.53,1.73-0.94c0.49-0.41,0.87-0.91,1.14-1.5c0.28-0.59,0.41-1.26,0.41-2.01v-6.88c-0.07-0.03-0.23-0.08-0.46-0.15
	C106.62,80.78,106.36,80.75,106.1,80.75z"/>
<path class="st2" d="M118.24,81.7c-0.49-0.41-1.06-0.72-1.73-0.94c-0.67-0.22-1.39-0.32-2.19-0.32c-0.79,0-1.52,0.11-2.2,0.32
	c-0.67,0.22-1.25,0.53-1.74,0.94c-0.49,0.41-0.86,0.91-1.13,1.5c-0.27,0.59-0.4,1.26-0.4,2.01v5.94c0,0.41,0.12,0.71,0.36,0.9
	c0.24,0.19,0.57,0.28,0.99,0.28c0.27,0,0.52-0.03,0.75-0.1c0.23-0.07,0.38-0.12,0.46-0.15v-6.22c0-1.02,0.25-1.79,0.74-2.32
	c0.49-0.53,1.22-0.8,2.17-0.8c0.96,0,1.7,0.27,2.19,0.8c0.49,0.53,0.73,1.3,0.73,2.32v5.4c0.01,0.36,0.14,0.62,0.36,0.79
	c0.24,0.19,0.57,0.28,0.99,0.28c0.27,0,0.52-0.03,0.75-0.1c0.23-0.07,0.38-0.12,0.46-0.15v-6.88c0-0.75-0.14-1.42-0.41-2.01
	C119.11,82.62,118.72,82.12,118.24,81.7"/>
<path class="st2" d="M135.46,80.77c-0.42,0-0.75,0.1-0.99,0.29c-0.24,0.19-0.36,0.49-0.36,0.9v4.8c0,1.03-0.26,1.81-0.79,2.34
	c-0.52,0.53-1.24,0.8-2.15,0.8c-0.99,0-1.72-0.26-2.19-0.78c-0.47-0.52-0.71-1.23-0.71-2.11v-5.99c-0.07-0.03-0.23-0.08-0.46-0.15
	c-0.23-0.07-0.48-0.1-0.75-0.1c-0.42,0-0.75,0.1-0.99,0.29c-0.24,0.19-0.36,0.49-0.36,0.9v5.56c0,0.73,0.12,1.38,0.37,1.95
	c0.25,0.57,0.59,1.04,1.02,1.42c0.43,0.38,0.96,0.67,1.57,0.87c0.61,0.2,1.28,0.3,2,0.3c0.76,0,1.46-0.13,2.1-0.39
	c0.63-0.26,1.1-0.61,1.4-1.04c0,3.17-0.42,5.01-3.74,5.01c-1.84,0-3.12-0.41-3.63-0.63c-0.08,0.18-0.47,0.93-0.26,1.57
	c0.14,0.42,0.53,0.63,0.93,0.74c1.17,0.35,3.56,0.5,5.07,0.25c3.14-0.51,4.12-2.66,4.12-6.75v-9.82c-0.07-0.03-0.23-0.08-0.46-0.15
	C135.97,80.8,135.72,80.76,135.46,80.77"/>
<path class="st2" d="M64.43,89.43c-0.16,0.12-0.41,0.3-0.78,0.44c-0.37,0.13-0.78,0.2-1.21,0.2c-0.27,0-0.53-0.03-0.77-0.09
	c-0.25-0.06-0.46-0.16-0.65-0.31c-0.19-0.15-0.33-0.35-0.44-0.59c-0.1-0.25-0.16-0.56-0.16-0.95v-5h4.3
	c0.04-0.09,0.1-0.24,0.18-0.46c0.07-0.22,0.11-0.45,0.11-0.71c0-0.39-0.1-0.68-0.3-0.89c-0.2-0.2-0.55-0.3-1.04-0.3h-3.25v-2.94
	c-0.07-0.03-0.23-0.08-0.46-0.15c-0.23-0.07-0.48-0.1-0.75-0.1c-0.42,0-0.75,0.09-0.99,0.28c-0.24,0.19-0.36,0.49-0.36,0.91v1.99
	h-1.29c-0.49,0-0.84,0.1-1.04,0.3c-0.2,0.2-0.3,0.5-0.3,0.89c0,0.25,0.04,0.49,0.11,0.71c0.07,0.22,0.13,0.37,0.18,0.46h2.34v5.51
	c0,1.11,0.34,2,1.01,2.68c0.67,0.68,1.67,1.02,2.98,1.02c0.46,0,0.89-0.04,1.28-0.12c0.39-0.08,0.74-0.18,1.05-0.3
	c0.31-0.12,0.58-0.25,0.8-0.38c0.22-0.13,0.38-0.25,0.5-0.34c0,0-0.1-0.46-0.39-0.93C64.82,89.79,64.43,89.43,64.43,89.43"/>
<path class="st2" d="M122.72,80.77c-0.43,0-0.77,0.09-1.01,0.28c-0.24,0.19-0.36,0.49-0.36,0.91v10.06h2.56V81.01
	c-0.07-0.03-0.22-0.08-0.45-0.15C123.23,80.8,122.99,80.77,122.72,80.77"/>
<path class="st2" d="M122.63,75.72c-0.43,0-0.8,0.15-1.1,0.45c-0.3,0.3-0.45,0.67-0.45,1.1c0,0.43,0.15,0.8,0.45,1.1
	c0.3,0.3,0.67,0.45,1.1,0.45c0.43,0,0.8-0.15,1.1-0.45c0.3-0.3,0.45-0.67,0.45-1.1c0-0.43-0.15-0.8-0.45-1.1
	C123.43,75.87,123.06,75.72,122.63,75.72z"/>
<path class="st2" d="M146.21,90.21c-0.56,0.06-2.01,0.12-2.17,0.13c-0.79,0.01-1.64-0.02-2.39-0.3c-0.66-0.25-1.28-0.79-1.41-1.49
	c-0.02-0.1-0.03-0.21-0.03-0.32c0.02-0.71,0.48-1.39,1.1-1.71c0.72-0.38,1.65-0.33,2.44-0.28c0.72,0.04,1.67,0.13,2.45,0.22
	c0,0.31,0.01,0.55,0.01,0.55L146.21,90.21L146.21,90.21z M147.09,81.54c-0.53-0.37-1.15-0.65-1.87-0.82
	c-0.73-0.17-1.53-0.26-2.41-0.26c-0.73,0-1.34,0.04-1.82,0.13c-0.48,0.09-0.86,0.21-1.14,0.37c-0.28,0.16-0.48,0.34-0.6,0.54
	c-0.11,0.2-0.17,0.41-0.17,0.62c0,0.3,0.08,0.55,0.24,0.76c0.16,0.21,0.28,0.35,0.37,0.43c0.16-0.13,0.5-0.3,1.02-0.49
	c0.52-0.19,1.2-0.29,2.05-0.29c0.51,0,0.97,0.04,1.39,0.11c0.42,0.08,0.77,0.21,1.08,0.4c0.3,0.19,0.53,0.46,0.71,0.81
	c0.07,0.15,0.13,0.32,0.17,0.5c-1.32-0.16-2.85-0.29-3.72-0.21c-0.94,0.09-1.89,0.27-2.69,0.77c-1.71,1.09-2.3,3.4-1.3,5.16
	c0.48,0.85,1.34,1.44,2.26,1.77c0.92,0.33,1.91,0.42,2.88,0.46c1.5,0.06,3.02-0.04,4.51-0.21c0.32-0.04,0.56-0.07,0.71-0.1v-6.75
	c0-0.86-0.14-1.6-0.44-2.22C148.01,82.41,147.61,81.92,147.09,81.54"/>
<path class="st2" d="M74.25,90.21c-0.56,0.06-2.01,0.12-2.16,0.13c-0.79,0.01-1.64-0.02-2.39-0.3c-0.66-0.25-1.28-0.79-1.41-1.49
	c-0.02-0.1-0.03-0.21-0.03-0.32c0.02-0.71,0.48-1.39,1.1-1.71c0.72-0.38,1.65-0.33,2.44-0.28c0.72,0.04,1.67,0.13,2.45,0.22
	c0,0.31,0.01,0.55,0.01,0.55V90.21z M94.16,80.75c-0.4-0.03-0.83,0.07-1.11,0.37c-0.2,0.21-0.3,0.49-0.39,0.76
	c-0.8,2.25-1.6,4.51-2.4,6.76c-0.84-2.41-1.68-4.82-2.52-7.24c-0.05-0.14-0.1-0.28-0.21-0.38c-0.12-0.11-0.29-0.14-0.46-0.17
	c-0.62-0.11-1.35-0.18-1.8,0.26c-0.2,0.2-0.3,0.47-0.4,0.74c-0.79,2.15-1.57,4.31-2.32,6.47c-0.39-1-0.35-0.99-0.74-1.99
	c-0.05-0.12-0.1-0.24-0.2-0.31c-0.09-0.06-0.26-0.12-0.36-0.15c-1.17-0.33-3.1-0.88-4.52-1.24c-0.05-0.61-0.19-1.15-0.41-1.62
	c-0.29-0.61-0.7-1.11-1.22-1.48c-0.52-0.37-1.15-0.65-1.87-0.82c-0.73-0.17-1.53-0.26-2.41-0.26c-0.73,0-1.34,0.04-1.82,0.13
	c-0.48,0.09-0.86,0.21-1.14,0.37c-0.28,0.16-0.48,0.34-0.59,0.54c-0.11,0.2-0.17,0.41-0.17,0.62c0,0.3,0.08,0.55,0.24,0.76
	c0.16,0.21,0.28,0.35,0.37,0.43c0.16-0.13,0.5-0.3,1.02-0.49c0.52-0.19,1.2-0.29,2.05-0.29c0.51,0,0.97,0.04,1.39,0.11
	c0.42,0.08,0.78,0.21,1.08,0.4c0.3,0.19,0.53,0.46,0.71,0.81c0.07,0.15,0.13,0.32,0.17,0.5c-1.32-0.16-2.84-0.29-3.72-0.21
	c-0.94,0.09-1.89,0.27-2.69,0.77c-1.71,1.09-2.3,3.4-1.3,5.16c0.48,0.85,1.34,1.44,2.26,1.77s1.91,0.42,2.88,0.46
	c1.5,0.06,3.02-0.04,4.51-0.21c0.32-0.04,0.56-0.07,0.71-0.1v-5.13c1.24,0.28,2.7,0.69,2.74,0.72c0.33,0.3,1.69,4.44,1.72,4.44
	c0.88,0,1.76,0,2.64,0c0.86-2.53,1.67-5.08,2.44-7.64c0.77,2.56,1.6,5.11,2.49,7.64c0.88,0,1.77,0,2.65,0
	c1.28-3.64,2.57-7.27,3.85-10.91c0,0-0.01,0-0.01,0C94.94,80.94,94.56,80.79,94.16,80.75"/>
<path class="st2" d="M78.88,80.77c-0.43,0-0.75,0.12-0.96,0.36c-0.21,0.24-0.24,0.39-0.24,0.71c0,0.06,0.3,1.04,0.74,2.29l2.92,0.83
	c-0.55-1.55-1.23-3.66-1.31-3.97c-0.06-0.03-0.18-0.08-0.37-0.13C79.47,80.8,79.22,80.77,78.88,80.77z"/>
<path class="st2" d="M106.1,80.75c-0.42,0-0.75,0.09-0.99,0.28c-0.22,0.17-0.34,0.44-0.36,0.79v5.4c0,1.02-0.24,1.79-0.73,2.32
	c-0.49,0.53-1.21,0.8-2.19,0.8s-1.68-0.27-2.17-0.8c-0.49-0.53-0.74-1.3-0.74-2.32v-6.23c-0.07-0.03-0.23-0.08-0.46-0.15
	c-0.23-0.07-0.48-0.1-0.75-0.1c-0.42,0-0.75,0.09-0.99,0.28c-0.24,0.19-0.36,0.49-0.36,0.9v5.94c0,0.75,0.13,1.42,0.4,2.01
	c0.27,0.59,0.65,1.09,1.13,1.5c0.49,0.41,1.07,0.72,1.74,0.94c0.67,0.22,1.4,0.33,2.2,0.33c0.79,0,1.52-0.11,2.19-0.33
	c0.67-0.22,1.24-0.53,1.73-0.94c0.49-0.41,0.87-0.91,1.14-1.5c0.28-0.59,0.41-1.26,0.41-2.01v-6.88c-0.07-0.03-0.23-0.08-0.46-0.15
	C106.62,80.78,106.36,80.75,106.1,80.75z"/>
<path class="st2" d="M118.24,81.7c-0.49-0.41-1.06-0.72-1.73-0.94c-0.67-0.22-1.39-0.32-2.19-0.32c-0.79,0-1.52,0.11-2.2,0.32
	c-0.67,0.22-1.25,0.53-1.74,0.94c-0.49,0.41-0.86,0.91-1.13,1.5c-0.27,0.59-0.4,1.26-0.4,2.01v5.94c0,0.41,0.12,0.71,0.36,0.9
	c0.24,0.19,0.57,0.28,0.99,0.28c0.27,0,0.52-0.03,0.75-0.1c0.23-0.07,0.38-0.12,0.46-0.15v-6.22c0-1.02,0.25-1.79,0.74-2.32
	c0.49-0.53,1.22-0.8,2.17-0.8c0.96,0,1.7,0.27,2.19,0.8c0.49,0.53,0.73,1.3,0.73,2.32v5.4c0.01,0.36,0.14,0.62,0.36,0.79
	c0.24,0.19,0.57,0.28,0.99,0.28c0.27,0,0.52-0.03,0.75-0.1c0.23-0.07,0.38-0.12,0.46-0.15v-6.88c0-0.75-0.14-1.42-0.41-2.01
	C119.11,82.62,118.72,82.12,118.24,81.7"/>
<path class="st2" d="M135.46,80.77c-0.42,0-0.75,0.1-0.99,0.29c-0.24,0.19-0.36,0.49-0.36,0.9v4.8c0,1.03-0.26,1.81-0.79,2.34
	c-0.52,0.53-1.24,0.8-2.15,0.8c-0.99,0-1.72-0.26-2.19-0.78c-0.47-0.52-0.71-1.23-0.71-2.11v-5.99c-0.07-0.03-0.23-0.08-0.46-0.15
	c-0.23-0.07-0.48-0.1-0.75-0.1c-0.42,0-0.75,0.1-0.99,0.29c-0.24,0.19-0.36,0.49-0.36,0.9v5.56c0,0.73,0.12,1.38,0.37,1.95
	c0.25,0.57,0.59,1.04,1.02,1.42c0.43,0.38,0.96,0.67,1.57,0.87c0.61,0.2,1.28,0.3,2,0.3c0.76,0,1.46-0.13,2.1-0.39
	c0.63-0.26,1.1-0.61,1.4-1.04c0,3.17-0.42,5.01-3.74,5.01c-1.84,0-3.12-0.41-3.63-0.63c-0.08,0.18-0.47,0.93-0.26,1.57
	c0.14,0.42,0.53,0.63,0.93,0.74c1.17,0.35,3.56,0.5,5.07,0.25c3.14-0.51,4.12-2.66,4.12-6.75v-9.82c-0.07-0.03-0.23-0.08-0.46-0.15
	C135.97,80.8,135.72,80.76,135.46,80.77"/>
</svg>
