<svg xmlns="http://www.w3.org/2000/svg" height="800" width="1200" version="1.0" viewBox="-25.557525 -19.935 221.49855 119.61"><path d="M96.0223 0l-2.5675 5.1963h-26.39l-8.9525 15.1624-.6613-7.1787L65.2135.075z" fill="#ccdbf3"/><path d="M69.1035 8.2475H91.076l-2.3775 5.195H71.331l-13.0725 22.08-.7075-8.0688z" fill="#5493d5"/><path d="M76.8448 53.0225l-3.3625-28.1288-5.7663 9.715 6.8825-.0025-2.6987 4.56h-6.9775l-8.2038 13.8975H46.186c-.2625 0-.415-.19-.415-.19l-3.36-27.905-5.6625 9.6488 6.8238-.0063-2.8675 4.6988-6.715-.0138c-3.7375 5.1975-7.5875 12.5238-15.365 13.9925-4.2275.9788-9.5138.64-12.835-1.8837-4.72-3.5775-7.6063-13.2888-4.4938-21.6925 2.1713-5.8587 5.5113-9.9412 10.535-12.0887 1.1313-.4138 1.7675-.64 2.9438-.8663 8.995-1.7263 17.7462.0625 17.7462.0625l-2.57 4.3825c-6.82-.075-14.7-.9513-18.5487 8.51-2.0388 4.935-1.725 10.695.2775 15.4037 1.0562 1.8075 3.0587 2.9763 4.945 3.2013 4.3425-.49 7.1362-2.5225 9.5137-5.4988 2.945-4.2937 5.5813-8.7462 8.1925-13.1062 2.5675-4.2838 5.1175-8.6675 7.6425-12.9913l13.3125.0363-2.0012 4.595.8675 8.36 1.6237 15.4037c0 .2625-.075.49.34.2625l9.23-15.6662 7.6913-12.9912 13.1312.0362-2.2262 4.595.9412 8.36 2.6825 23.3312z" fill="#1476c6"/><path d="M34.0735 61.5262L23.3648 79.74h-4.8913l10.765-18.2138z" fill="#d3d3d3"/><path d="M38.121 61.5262h5.3125L32.6123 79.74H27.131z" fill="#a7a6a6"/><path d="M39.1635 76.8087c0 .5488.115 1.4725.8275 2.06.7225.6063 1.7138.7025 2.2525.7025 2.6463 0 4.1575-2.1662 4.1575-4.0812 0-1.7125-1.1937-2.7913-3.06-2.7913-2.2912 0-4.1775 1.6075-4.1775 4.11m.8275.115c0-1.9825 1.2513-3.9162 3.2538-3.9162 1.2312 0 2.3287.7412 2.3287 2.435 0 1.5687-1.0587 3.82-3.33 3.82-1.2037 0-2.2525-.6638-2.2525-2.3388m9.5088-.7987c.4525 0 .905.01 1.3575.0575 0-.1913.0187-.2975.0862-.49-.2212.0187-.7412.0575-1.1162.0575H48.691c.145-.6738.3175-1.4625.5775-2.4925.5675 0 1.6363.0187 2.185.115-.01-.23.0188-.3175.0863-.5388-.2688.02-.8275.0388-1.3088.0388-.4525 0-1.0587-.0188-1.7125-.0388-.27 1.6938-.915 4.735-1.405 6.5925.125-.0187.25-.0387.4425-.0387.1825 0 .2975.02.4138.0387.2212-1.3087.3562-1.9925.645-3.3012zm6.5825-3.3775c-.1438.8562-1.0875 5.36-1.53 6.6787.0962-.0187.2312-.0387.3375-.0387.125 0 .23.02.3262.0387.0675-.885.7325-4.1187 1.0113-5.255.3937.5013 3.3775 4.8313 3.6762 5.3613h.135c.105-.895 1.0963-5.4663 1.4525-6.6988-.0962.02-.1637.0388-.2887.0388-.115 0-.25-.0188-.3363-.0388-.1825 1.6075-.8275 4.7063-.9912 5.3125-.4713-.5487-3.1188-4.3975-3.6763-5.3987zm8.3825 3.3775c.4525 0 .905.01 1.3575.0575-.01-.1913.0187-.2975.0862-.49-.2212.0187-.7787.0575-1.1162.0575h-1.145c.1537-.6738.3175-1.4625.5775-2.5025.5775 0 1.645.02 2.1937.1162-.0087-.2212.01-.3087.0875-.53-.2987.02-.8862.0388-1.3287.0388-.4325 0-1.0775-.0188-1.6938-.0388-.2787 1.6938-.9137 4.735-1.405 6.5925.27-.01.7025-.0387 1.4825-.0387.5188 0 1.3088.02 1.9625.0387-.0088-.2212 0-.2987.0588-.52-.8475.1063-1.7138.1163-2.58.1163.1737-.9625.3662-1.935.5675-2.8975zm4.235 2.175c-.2025-1.4438-.4713-4.1663-.5288-5.4663-.135.02-.28.0388-.4237.0388-.1638 0-.2788-.0188-.385-.0388.1925 1.1738.6537 5.3125.7412 6.5925.0763-.0187.1725-.0387.2888-.0387.115 0 .1825.02.25.0387.1437-.3175.3275-.7212.51-1.0875.1537-.2987.9425-1.7412 1.1162-2.0787.655-1.26.7313-1.405 1.1263-2.0888h.0862c.02.125.5975 4.4763.645 5.255.0963-.0187.1638-.0387.27-.0387.0963 0 .1825.01.2688.0387.635-1.2512 1.27-2.4925 1.925-3.7237.0862-.1638 1.2612-2.3488 1.5787-2.8688-.1062.02-.2312.0388-.3562.0388-.135 0-.2313-.0188-.3175-.0388-.7313 1.7713-2.3963 4.9763-2.7238 5.505h-.0675c-.26-1.6162-.6062-4.85-.635-5.505-.0675.02-.135.0388-.2412.0388-.0963 0-.1725-.0188-.24-.0388-.385.8563-2.5413 4.985-2.83 5.4663zm9.5087 1.1262c.75-.0187 1.6363-.0387 2.3863-.0387.645 0 2.0412.01 2.6375.0387 0-.26.01-.3462.0862-.5675-.9337.0863-1.8762.1063-2.82.135-.3562.0088-.7212.0188-1.0775.0188l-.0575-.0575c.7988-1.0488 4.5225-5.6588 4.7538-5.9188l.02-.2025c-.6263.0288-1.7713.0388-2.435.0388-.7313 0-1.4638-.0188-2.195-.0388-.0288.25-.0475.3375-.115.52.7212-.0487 2.7237-.1062 3.57-.1062l.0387.0575c-.4137.5875-4.1187 5.255-4.7925 5.9775zm8.71-3.3012c.4513 0 .9038.01 1.3563.0575-.0088-.1913.02-.2975.0875-.49-.2225.0187-.78.0575-1.1175.0575h-1.145c.1537-.6738.3175-1.4625.5775-2.5025.5775 0 1.6462.02 2.195.1162-.01-.2212.0088-.3087.0862-.53-.2987.02-.885.0388-1.3287.0388-.4325 0-1.0775-.0188-1.6938-.0388-.2787 1.6938-.9137 4.735-1.405 6.5925.27-.01.7025-.0387 1.4825-.0387.52 0 1.3088.02 1.9638.0387-.01-.2212 0-.2987.0575-.52-.8475.1063-1.7138.1163-2.58.1163.1737-.9625.3662-1.935.5687-2.8975zm6.1113-3.3975c-.3375.5487-.6738 1.03-1.155 1.7712-1.0788 1.655-2.1663 3.3013-3.2825 4.9275.145-.0187.26-.0387.3662-.0387.135 0 .2213.02.3075.0387.3088-.625 1.165-2.0787 1.5113-2.5987.4237-.0088.8475-.0288 1.27-.0288.54 0 1.0875.02 1.28.0288.1062.4912.3662 1.9062.4337 2.5987.125-.0187.26-.0387.4325-.0387.1738 0 .3175.02.4425.0387-.2587-.9425-1.2312-5.6975-1.4237-6.6987zm.2212 3.725a22.584 22.584 0 01-1.1162.0287c-.3763 0-.7513-.01-1.1163-.0287l1.6738-2.55h.0287zm5.9375 2.4162c-.8375.125-1.6837.1338-2.5312.1438.3762-2.0788.7987-4.1388 1.3375-6.1788-.125.02-.25.0388-.4425.0388-.1825 0-.2975-.0188-.4138-.0388-.2787 1.6938-.9137 4.735-1.405 6.5925.52-.0187 1.4725-.0387 1.7038-.0387.4525 0 1.2412.01 1.675.0387 0-.24.0187-.365.0762-.5575m4.5325-6.1412c-.3363.5487-.6738 1.03-1.155 1.7712-1.0775 1.655-2.165 3.3013-3.2812 4.9275.145-.0187.26-.0387.3662-.0387.1337 0 .2212.02.3075.0387.3075-.625 1.165-2.0787 1.5112-2.5987.4238-.0088.8463-.0288 1.27-.0288.5388 0 1.0875.02 1.28.0288.1063.4912.3663 1.9062.4338 2.5987.125-.0187.2587-.0387.4325-.0387.1737 0 .3175.02.4425.0387-.26-.9425-1.2313-5.6975-1.4238-6.6987zm.2212 3.725c-.375.0187-.75.0287-1.1162.0287-.375 0-.75-.01-1.1163-.0287l1.675-2.55h.0288zm4.0038-3.705c-.1438.8562-1.0875 5.36-1.53 6.6787.0962-.0187.2312-.0387.3375-.0387.125 0 .23.02.3262.0387.0675-.885.7325-4.1187 1.0113-5.255.3937.5013 3.3775 4.8313 3.6762 5.3613h.135c.105-.895 1.0963-5.4663 1.4525-6.6988-.0962.02-.1637.0388-.2887.0388-.115 0-.25-.0188-.3363-.0388-.1825 1.6075-.8275 4.7063-.9912 5.3125-.4713-.5487-3.1188-4.3975-3.6763-5.3987zm12.7625 2.7237c0-1.0112-.4338-1.8775-1.1463-2.2812-.5387-.3075-1.2987-.3563-2.02-.3563-.5487 0-1.0975.0388-1.57.0388-.2212 0-.4037-.0288-.5675-.0388-.2687 1.6938-.9137 4.735-1.405 6.5925.1063-.0187.385-.0387.6738-.0387.3275.02.8562.0387 1.3762.0387 1.1938 0 1.8863-.1437 2.6663-.5962 1.4812-.8663 1.9925-2.3 1.9925-3.3588m-.8288 0c0 1.0388-.5287 2.2425-1.4337 2.945-.6925.5388-1.4813.6538-2.3963.6538-.375 0-.75-.0088-1.1262-.0475.3375-1.915.8475-4.2638 1.2325-5.8038.375-.0187.7412-.0287 1.1162-.0287.7025 0 1.3663.0575 1.8288.395.49.3562.7787 1.0875.7787 1.8862M51.331 66.9c-.5875.385-1.2612.6262-1.9537.6262-.655 0-1.3-.2212-1.7613-.7225-.2987-.3175-.5587-.8175-.5587-1.7225 0-1.8675 1.1075-3.6662 3.1375-3.6662 1.03 0 1.5587.51 1.7325.6825.0387-.125.115-.3363.2787-.645-.5575-.2888-1.2025-.375-1.8375-.375-2.5987 0-4.1575 1.7712-4.1575 3.9175 0 2.05 1.4913 2.9062 3.1075 2.9062.9438 0 1.56-.2787 1.8963-.4425.0387-.1925.0675-.2987.1537-.51zm1.0775.8762c.125-.02.2888-.0387.4325-.0387.1638 0 .3088.0187.4238.0387.2887-1.7712.885-4.62 1.405-6.5925-.125.0188-.2888.0388-.4425.0388-.135 0-.2988-.02-.4138-.0388-.2787 1.6938-.9137 4.735-1.405 6.5925m5.0138-.9437c-.125-.6738-.26-1.2313-.365-1.8575-.1163-.6638-.2413-1.3275-.3375-2.0013-.0863-.5962-.1638-1.1937-.25-1.79-.115.0188-.2213.0388-.395.0388-.1725 0-.2975-.02-.4238-.0388.155.7413.2888 1.4913.4238 2.2325.26 1.4538.5587 3.0025.77 4.36.0775-.02.145-.0387.2787-.0387.1263 0 .1925.0187.27.0387.2988-.6262 3.4838-6.025 3.8213-6.5925-.0963.0188-.2025.0388-.3463.0388-.145 0-.2412-.02-.3275-.0388-.1737.4238-.5012 1.0388-.7987 1.6263-.3375.655-.4725.895-1.7038 3.06-.1825.3275-.4137.6937-.5675.9625zm3.5412.9437c.1263-.02.2888-.0387.4338-.0387.1637 0 .3075.0187.4237.0387.2888-1.7712.885-4.62 1.405-6.5925-.125.0188-.2887.0388-.4425.0388-.135 0-.2987-.02-.4137-.0388-.28 1.6938-.915 4.735-1.4063 6.5925m6.1988-.5587c-.8375.125-1.685.135-2.5313.145.375-2.0788.7988-4.1388 1.3375-6.1788-.125.0188-.25.0388-.4425.0388-.1825 0-.2987-.02-.4137-.0388-.2788 1.6938-.915 4.735-1.405 6.5925.5187-.02 1.4725-.0387 1.7037-.0387.4513 0 1.2413.01 1.6738.0387 0-.2412.02-.3662.0775-.5587m6.9687-6.14c-.3375.5487-.6737 1.03-1.155 1.7712-1.0787 1.655-2.1662 3.3013-3.2825 4.9275.145-.02.26-.0387.3663-.0387.135 0 .2212.0187.3075.0387.3087-.6262 1.165-2.0787 1.5112-2.5987.4238-.01.8475-.0288 1.27-.0288.5388 0 1.0875.0188 1.28.0288.1063.4912.3663 1.9062.4338 2.5987.125-.02.26-.0387.4325-.0387.1737 0 .3175.0187.4425.0387-.2588-.9437-1.2313-5.6975-1.4238-6.6987zm.2213 3.725a22.584 22.584 0 01-1.1163.0287c-.3762 0-.7512-.01-1.1162-.0287l1.6737-2.5513h.0288zm3.9362 2.03c-.125-.6738-.26-1.2313-.3662-1.8575-.115-.6638-.24-1.3275-.3363-2.0013-.0862-.5962-.1637-1.1937-.25-1.79-.1162.0188-.2212.0388-.395.0388-.1725 0-.2987-.02-.4237-.0388.155.7413.2887 1.4913.4237 2.2325.26 1.4538.5588 3.0025.77 4.36.0775-.02.145-.0387.2788-.0387.125 0 .1925.0187.27.0387.2987-.6262 3.4837-6.025 3.8212-6.5925-.0962.0188-.2025.0388-.3475.0388-.1437 0-.24-.02-.3262-.0388-.1738.4238-.5013 1.0388-.7988 1.6263-.3375.655-.4725.895-1.7037 3.06-.1838.3275-.4138.6937-.5688.9625zm3.5413.9437c.125-.02.2887-.0387.4337-.0387.1638 0 .3075.0187.4225.0387.2888-1.7712.8863-4.62 1.4063-6.5925-.125.0188-.2888.0388-.4438.0388-.1337 0-.2975-.02-.4137-.0388-.2788 1.6938-.9138 4.735-1.405 6.5925m6.4575-6.6987c-.3363.5487-.6725 1.03-1.1538 1.7712-1.0787 1.655-2.1662 3.3013-3.2825 4.9275.145-.02.26-.0387.3663-.0387.1337 0 .2212.0187.3075.0387.3075-.6262 1.165-2.0787 1.5112-2.5987.4238-.01.8463-.0288 1.27-.0288.5388 0 1.0875.0188 1.28.0288.1063.4912.3663 1.9062.4338 2.5987.125-.02.26-.0387.4325-.0387.1737 0 .3175.0187.4425.0387-.26-.9437-1.2313-5.6975-1.4238-6.6987zm.2225 3.725a22.595 22.595 0 01-1.1175.0287c-.375 0-.75-.01-1.1163-.0287l1.675-2.5513h.0288zm5.3237-3.195c.5188 0 1.3563.0475 1.8088.0862.0287-.25.0487-.3462.1062-.51-.6262.0288-1.3762.0388-2.3487.0388-.9625 0-1.7325 0-2.425-.0388-.0188.2113-.0388.3075-.1063.51.905-.0675 1.6463-.0862 2.1463-.0862-.2313 1.3762-.8088 4.1862-1.3275 6.1687.125-.02.2887-.0387.4425-.0387.1825 0 .2987.0187.4137.0387.3175-1.935.905-4.6387 1.29-6.1687m1.8663 6.1687c.125-.02.2887-.0387.4337-.0387.1638 0 .3075.0187.4238.0387.2875-1.7712.885-4.62 1.405-6.5925-.125.0188-.2888.0388-.4438.0388-.1337 0-.2975-.02-.4137-.0388-.2788 1.6938-.9138 4.735-1.405 6.5925m2.8487-2.6175c0 .5488.1163 1.4725.8275 2.0588.7225.6062 1.7137.7025 2.2525.7025 2.6462 0 4.1575-2.165 4.1575-4.08 0-1.7138-1.1938-2.7913-3.06-2.7913-2.2913 0-4.1775 1.6075-4.1775 4.11m.8275.115c0-1.9825 1.2512-3.9175 3.2537-3.9175 1.2313 0 2.3288.7413 2.3288 2.435 0 1.5688-1.0588 3.8213-3.33 3.8213-1.2025 0-2.2525-.6638-2.2525-2.3388m8.605-4.1762c-.145.8562-1.0888 5.36-1.5313 6.6787.0962-.02.2313-.0387.3375-.0387.125 0 .2313.0187.3275.0387.0662-.885.7313-4.1187 1.01-5.255.395.5 3.3775 4.8313 3.6763 5.3613h.135c.1062-.895 1.0975-5.4675 1.4537-6.6988-.0962.0188-.1637.0388-.2887.0388-.1163 0-.2513-.02-.3375-.0388-.1825 1.6075-.8275 4.7063-.9913 5.3125-.4712-.5487-3.1187-4.3987-3.6762-5.3987zm12.1175-.02c-.3375.5487-.6738 1.03-1.155 1.7712-1.0788 1.655-2.1663 3.3013-3.2825 4.9275.145-.02.26-.0387.3662-.0387.135 0 .2213.0187.3075.0387.3088-.6262 1.165-2.0787 1.5113-2.5987.4237-.01.8475-.0288 1.27-.0288.5387 0 1.0875.0188 1.28.0288.1062.4912.3662 1.9062.4337 2.5987.125-.02.26-.0387.4325-.0387.1738 0 .3175.0187.4425.0387-.2587-.9437-1.2312-5.6975-1.4237-6.6987zm.2212 3.725a22.584 22.584 0 01-1.1162.0287c-.3763 0-.7513-.01-1.1163-.0287l1.6738-2.5513h.0288zm2.5813 1.3375c0 1.2512 1.2412 1.79 2.3087 1.79.8575 0 1.695-.2888 2.3013-.895.5675-.5675.76-1.1938.9812-2.1075.2988-1.2513.5488-2.5025.905-3.7438-.0962.0188-.1925.0388-.3175.0388-.145 0-.2512-.02-.3375-.0388-.0675.4325-.6062 3.7438-1.0775 4.9075-.385.9438-1.3287 1.415-2.2237 1.415-.8175 0-1.79-.4425-1.79-1.4337 0-.3175.0388-.5875.2125-1.3863.4425-2.05.51-2.3475.8362-3.5025-.115.0188-.2212.0388-.4037.0388-.1925 0-.3275-.02-.4525-.0388-.1063.7213-.3075 1.8088-.5 2.695-.0962.4425-.4425 1.78-.4425 2.2613m10.4225-4.5325c.52 0 1.3575.0475 1.8087.0862.03-.25.0487-.3462.1063-.51-.625.0288-1.3763.0388-2.3488.0388-.9612 0-1.7312 0-2.425-.0388-.0188.2113-.0388.3075-.105.51.9038-.0675 1.645-.0862 2.1463-.0862-.2313 1.3762-.8088 4.1862-1.3288 6.1687.125-.02.2888-.0387.4425-.0387.1825 0 .2988.0187.4138.0387.3175-1.935.905-4.6387 1.29-6.1687m7.5837 2.435c-.4037.0087-1.03.0087-2.0212.0187-.5775 0-1.26.01-1.9725-.0187.365-1.6363.4037-1.82.6737-2.8588-.1162.0188-.27.0388-.4337.0388-.1438 0-.3075-.02-.4225-.0388-.2513 1.5688-.8963 4.6675-1.3963 6.5925.115-.02.27-.0387.4338-.0387.1625 0 .2975.0187.4225.0387.1637-1.02.2212-1.3087.635-3.3487.6362-.02 1.2712-.02 1.9062-.02.6925 0 1.4438 0 2.0888.02-.3088 1.4525-.51 2.3287-.78 3.3487.125-.02.27-.0387.4337-.0387.1625 0 .3075.0187.4225.0387.26-1.6075.8275-4.36 1.405-6.5925-.125.0188-.2887.0388-.4425.0388-.1437 0-.2975-.02-.4137-.0388-.1438.905-.2213 1.29-.5388 2.8588m2.1175 1.1162c0 .5488.115 1.4725.8275 2.0588.7213.6062 1.7125.7025 2.2525.7025 2.6463 0 4.1575-2.165 4.1575-4.08 0-1.7138-1.1937-2.7913-3.0612-2.7913-2.29 0-4.1763 1.6075-4.1763 4.11m.8275.115c0-1.9825 1.2513-3.9175 3.2525-3.9175 1.2325 0 2.3288.7413 2.3288 2.435 0 1.5688-1.0575 3.8213-3.3288 3.8213-1.2037 0-2.2525-.6638-2.2525-2.3388m12.2325 2.4538c-.395-.4325-1.7712-2.425-2.2812-3.2425.24-.0388.8462-.135 1.3275-.4338.6362-.3937.9825-1.03.9825-1.6162 0-.405-.2213-.8275-.7025-1.0688-.3088-.1537-.7413-.1825-1.1075-.1825-.1825.01-1.0775.0388-1.28.0388-.2013 0-.4038-.01-.6063-.0388-.2687 1.6938-.9137 4.735-1.395 6.5925.115-.02.24-.0387.4138-.0387.1637 0 .2887.0187.395.0387.1725-1.0975.3937-2.185.625-3.2725.1437.02.2987.02.4425.0288.52.5975 1.55 2.1562 2.2037 3.2437.1638-.02.2988-.0387.4725-.0387.1725 0 .3363 0 .51.0387zm-3.5612-3.5225c.3075-1.395.375-1.7225.6062-2.6175.2988-.0288.5-.0475.7888-.0475.4812 0 1.405 0 1.405.9812 0 .4525-.2113 1.01-.74 1.3763-.52.3562-1.3475.3562-1.4925.3562-.2025 0-.385-.01-.5675-.0487m4.225 3.5712c.125-.02.2887-.0387.4325-.0387.1637 0 .3087.0187.4237.0387.2888-1.7712.885-4.62 1.405-6.5925-.125.0188-.2887.0388-.4425.0388-.135 0-.2987-.02-.4137-.0388-.2788 1.6938-.915 4.735-1.405 6.5925m6.1587-6.1687c.52 0 1.3575.0475 1.81.0862.0288-.25.0475-.3462.1063-.51-.6263.0288-1.3775.0388-2.3488.0388-.9625 0-1.7325 0-2.425-.0388-.02.2113-.0387.3075-.1062.51.905-.0675 1.6462-.0862 2.1462-.0862-.2312 1.3762-.8087 4.1862-1.3287 6.1687.125-.02.2887-.0387.4437-.0387.1825 0 .2975.0187.4138.0387.3175-1.935.9037-4.6387 1.2887-6.1687m4.4538 2.935c-.125-.3075-.2113-.53-.375-.9525-.4913-1.2713-.6063-1.5788-.8663-2.4063-.125.0188-.2212.0388-.4037.0388-.1925 0-.3463-.02-.4913-.0388.5675 1.27.6738 1.5113 1.2513 2.955.135.3363.2787.6825.4037 1.0288-.24 1.0975-.3937 1.7525-.625 2.6087.115-.02.25-.0387.4138-.0387.1637 0 .2887.0187.4037.0387.1638-1.0487.3563-1.9925.5488-2.9062.375-.53 2.3387-3.09 2.7625-3.6863-.1638.0288-.26.0388-.3563.0388-.125 0-.2212-.02-.2987-.0388-.7413 1.27-2.2138 3.2238-2.3288 3.3588z" fill="#231f20"/></svg>